<svg xmlns="http://www.w3.org/2000/svg" xmlns:xlink="http://www.w3.org/1999/xlink" width="332.802" height="266" viewBox="0 0 332.802 266">
  <defs>
    <filter id="Rectangle_1764" x="17.714" y="27.778" width="303.823" height="176.087" filterUnits="userSpaceOnUse">
      <feOffset dy="3" input="SourceAlpha"/>
      <feGaussianBlur stdDeviation="8" result="blur"/>
      <feFlood flood-opacity="0.322"/>
      <feComposite operator="in" in2="blur"/>
      <feComposite in="SourceGraphic"/>
    </filter>
  </defs>
  <g id="Group_23" data-name="Group 23" transform="translate(0)">
    <rect id="Rectangle_1716" data-name="Rectangle 1716" width="30.179" height="9.124" rx="4.562" transform="translate(68.034 45.62)" fill="#aaea15" opacity="0.1"/>
    <rect id="Rectangle_1717" data-name="Rectangle 1717" width="30.179" height="9.124" rx="4.562" transform="translate(99.617 54.744)" fill="#aaea15" opacity="0.1"/>
    <rect id="Rectangle_1718" data-name="Rectangle 1718" width="30.179" height="9.124" rx="4.562" transform="translate(131.2 63.868)" fill="#aaea15" opacity="0.1"/>
    <rect id="Rectangle_1719" data-name="Rectangle 1719" width="30.179" height="9.124" rx="4.562" transform="translate(68.034 31.934)" fill="#aaea15" opacity="0.1"/>
    <rect id="Rectangle_1720" data-name="Rectangle 1720" width="30.179" height="9.124" rx="4.562" transform="translate(99.617 41.058)" fill="#aaea15" opacity="0.1"/>
    <rect id="Rectangle_1721" data-name="Rectangle 1721" width="30.179" height="9.124" rx="4.562" transform="translate(131.2 50.182)" fill="#aaea15" opacity="0.1"/>
    <rect id="Rectangle_1722" data-name="Rectangle 1722" width="30.179" height="9.124" rx="4.562" transform="translate(166.292 45.62)" fill="#aaea15" opacity="0.1"/>
    <rect id="Rectangle_1723" data-name="Rectangle 1723" width="30.179" height="9.124" rx="4.562" transform="translate(197.875 54.744)" fill="#aaea15" opacity="0.1"/>
    <rect id="Rectangle_1724" data-name="Rectangle 1724" width="30.179" height="9.124" rx="4.562" transform="translate(229.458 63.868)" fill="#aaea15" opacity="0.1"/>
    <rect id="Rectangle_1725" data-name="Rectangle 1725" width="30.179" height="9.124" rx="4.562" transform="translate(166.292 31.934)" fill="#aaea15" opacity="0.1"/>
    <rect id="Rectangle_1726" data-name="Rectangle 1726" width="30.179" height="9.124" rx="4.562" transform="translate(197.875 41.058)" fill="#aaea15" opacity="0.1"/>
    <rect id="Rectangle_1727" data-name="Rectangle 1727" width="30.179" height="9.124" rx="4.562" transform="translate(229.458 50.182)" fill="#aaea15" opacity="0.1"/>
    <rect id="Rectangle_1728" data-name="Rectangle 1728" width="30.179" height="9.124" rx="4.562" transform="translate(68.034 13.686)" fill="#aaea15" opacity="0.1"/>
    <rect id="Rectangle_1729" data-name="Rectangle 1729" width="30.179" height="9.124" rx="4.562" transform="translate(99.617 22.81)" fill="#aaea15" opacity="0.1"/>
    <rect id="Rectangle_1730" data-name="Rectangle 1730" width="30.179" height="9.124" rx="4.562" transform="translate(131.2 31.934)" fill="#aaea15" opacity="0.1"/>
    <rect id="Rectangle_1731" data-name="Rectangle 1731" width="30.179" height="9.124" rx="4.562" transform="translate(68.034)" fill="#aaea15" opacity="0.1"/>
    <rect id="Rectangle_1732" data-name="Rectangle 1732" width="30.179" height="9.124" rx="4.562" transform="translate(99.617 9.124)" fill="#aaea15" opacity="0.1"/>
    <rect id="Rectangle_1733" data-name="Rectangle 1733" width="30.179" height="9.124" rx="4.562" transform="translate(131.2 18.248)" fill="#aaea15" opacity="0.1"/>
    <rect id="Rectangle_1734" data-name="Rectangle 1734" width="30.179" height="9.124" rx="4.562" transform="translate(166.292 13.686)" fill="#aaea15" opacity="0.1"/>
    <rect id="Rectangle_1735" data-name="Rectangle 1735" width="30.179" height="9.124" rx="4.562" transform="translate(197.875 22.81)" fill="#aaea15" opacity="0.1"/>
    <rect id="Rectangle_1736" data-name="Rectangle 1736" width="30.179" height="9.124" rx="4.562" transform="translate(229.458 31.934)" fill="#aaea15" opacity="0.1"/>
    <rect id="Rectangle_1737" data-name="Rectangle 1737" width="30.179" height="9.124" rx="4.562" transform="translate(166.292)" fill="#aaea15" opacity="0.1"/>
    <rect id="Rectangle_1738" data-name="Rectangle 1738" width="30.179" height="9.124" rx="4.562" transform="translate(197.875 9.124)" fill="#aaea15" opacity="0.1"/>
    <rect id="Rectangle_1739" data-name="Rectangle 1739" width="30.179" height="9.124" rx="4.562" transform="translate(229.458 18.248)" fill="#aaea15" opacity="0.1"/>
    <rect id="Rectangle_1740" data-name="Rectangle 1740" width="30.179" height="9.124" rx="4.562" transform="translate(68.034 208.098)" fill="#aaea15" opacity="0.1"/>
    <rect id="Rectangle_1741" data-name="Rectangle 1741" width="30.179" height="9.124" rx="4.562" transform="translate(99.617 217.222)" fill="#aaea15" opacity="0.1"/>
    <rect id="Rectangle_1742" data-name="Rectangle 1742" width="30.179" height="9.124" rx="4.562" transform="translate(131.2 226.346)" fill="#aaea15" opacity="0.1"/>
    <rect id="Rectangle_1743" data-name="Rectangle 1743" width="30.179" height="9.124" rx="4.562" transform="translate(68.034 194.412)" fill="#aaea15" opacity="0.1"/>
    <rect id="Rectangle_1744" data-name="Rectangle 1744" width="30.179" height="9.124" rx="4.562" transform="translate(99.617 203.536)" fill="#aaea15" opacity="0.1"/>
    <rect id="Rectangle_1745" data-name="Rectangle 1745" width="30.179" height="9.124" rx="4.562" transform="translate(131.2 212.66)" fill="#aaea15" opacity="0.1"/>
    <rect id="Rectangle_1746" data-name="Rectangle 1746" width="30.179" height="9.124" rx="4.562" transform="translate(166.292 208.098)" fill="#aaea15" opacity="0.1"/>
    <rect id="Rectangle_1747" data-name="Rectangle 1747" width="30.179" height="9.124" rx="4.562" transform="translate(197.875 217.222)" fill="#aaea15" opacity="0.1"/>
    <rect id="Rectangle_1748" data-name="Rectangle 1748" width="30.179" height="9.124" rx="4.562" transform="translate(229.458 226.346)" fill="#aaea15" opacity="0.1"/>
    <rect id="Rectangle_1749" data-name="Rectangle 1749" width="30.179" height="9.124" rx="4.562" transform="translate(166.292 194.412)" fill="#aaea15" opacity="0.1"/>
    <rect id="Rectangle_1750" data-name="Rectangle 1750" width="30.179" height="9.124" rx="4.562" transform="translate(197.875 203.536)" fill="#aaea15" opacity="0.1"/>
    <rect id="Rectangle_1751" data-name="Rectangle 1751" width="30.179" height="9.124" rx="4.562" transform="translate(229.458 212.66)" fill="#aaea15" opacity="0.1"/>
    <rect id="Rectangle_1752" data-name="Rectangle 1752" width="30.179" height="9.124" rx="4.562" transform="translate(68.034 176.164)" fill="#aaea15" opacity="0.1"/>
    <rect id="Rectangle_1753" data-name="Rectangle 1753" width="30.179" height="9.124" rx="4.562" transform="translate(99.617 185.288)" fill="#aaea15" opacity="0.1"/>
    <rect id="Rectangle_1754" data-name="Rectangle 1754" width="30.179" height="9.124" rx="4.562" transform="translate(131.2 194.412)" fill="#aaea15" opacity="0.1"/>
    <rect id="Rectangle_1755" data-name="Rectangle 1755" width="30.179" height="9.124" rx="4.562" transform="translate(68.034 162.478)" fill="#aaea15" opacity="0.1"/>
    <rect id="Rectangle_1756" data-name="Rectangle 1756" width="30.179" height="9.124" rx="4.562" transform="translate(99.617 171.602)" fill="#aaea15" opacity="0.1"/>
    <rect id="Rectangle_1757" data-name="Rectangle 1757" width="30.179" height="9.124" rx="4.562" transform="translate(131.2 180.726)" fill="#aaea15" opacity="0.1"/>
    <rect id="Rectangle_1758" data-name="Rectangle 1758" width="30.179" height="9.124" rx="4.562" transform="translate(166.292 176.164)" fill="#aaea15" opacity="0.1"/>
    <rect id="Rectangle_1759" data-name="Rectangle 1759" width="30.179" height="9.124" rx="4.562" transform="translate(197.875 185.288)" fill="#aaea15" opacity="0.1"/>
    <rect id="Rectangle_1760" data-name="Rectangle 1760" width="30.179" height="9.124" rx="4.562" transform="translate(229.458 194.412)" fill="#aaea15" opacity="0.1"/>
    <rect id="Rectangle_1761" data-name="Rectangle 1761" width="30.179" height="9.124" rx="4.562" transform="translate(166.292 162.478)" fill="#aaea15" opacity="0.1"/>
    <rect id="Rectangle_1762" data-name="Rectangle 1762" width="30.179" height="9.124" rx="4.562" transform="translate(197.875 171.602)" fill="#aaea15" opacity="0.1"/>
    <rect id="Rectangle_1763" data-name="Rectangle 1763" width="30.179" height="9.124" rx="4.562" transform="translate(229.458 180.726)" fill="#aaea15" opacity="0.1"/>
    <ellipse id="Ellipse_3" data-name="Ellipse 3" cx="153.88" cy="12.633" rx="153.88" ry="12.633" transform="translate(15.395 240.734)" fill="rgba(72,114,18,0.38)" opacity="0.1"/>
    <path id="Path_21" data-name="Path 21" d="M155.526,250.209c14.511,6.289,22.849,19.3,22.849,19.3s-15.191,2.807-29.706-3.478-22.849-19.3-22.849-19.3S141.011,243.921,155.526,250.209Z" transform="translate(-125.82 -184.657)" fill="#aaea15"/>
    <path id="Path_22" data-name="Path 22" d="M329.724,168.879A31.026,31.026,0,0,1,341.855,158a31.262,31.262,0,0,1-4.123,15.749A30.95,30.95,0,0,1,325.6,184.6,30.969,30.969,0,0,1,329.724,168.879Z" transform="translate(-255.486 -127.47)" fill="#aaea15"/>
    <path id="Path_23" data-name="Path 23" d="M240.9,169.838c3.211,11.461,12.061,19.006,12.061,19.006s3.646-11.044.435-22.508-12.065-19.006-12.065-19.006S237.685,158.374,240.9,169.838Z" transform="translate(-199.656 -120.544)" fill="#46455b"/>
    <g transform="matrix(1, 0, 0, 1, 0, 0)" filter="url(#Rectangle_1764)">
      <rect id="Rectangle_1764-2" data-name="Rectangle 1764" width="255.823" height="128.087" rx="7.21" transform="translate(41.71 48.78)" fill="#fefefe"/>
    </g>
    <path id="Path_24" data-name="Path 24" d="M118.87,482H374.693v5.19a2.53,2.53,0,0,1-2.53,2.53H121.4a2.53,2.53,0,0,1-2.53-2.53Z" transform="translate(-77.156 -312.855)" opacity="0.1"/>
    <rect id="Rectangle_1765" data-name="Rectangle 1765" width="18.95" height="9.475" rx="2.5" transform="translate(66.63 159.67)" fill="#aaea15"/>
    <rect id="Rectangle_1766" data-name="Rectangle 1766" width="12.984" height="1.404" rx="0.702" transform="translate(90.844 167.741)" fill="#aaea15"/>
    <path id="Path_25" data-name="Path 25" d="M313.363,270.237c9.261,1.709,18.708,0,27.93-1.158l28.028-3.509c1.133-.144,2.783-.821,3.45.565.375.776.123,2.456.151,3.348.074,2.456.067,4.913,0,7.369-.126,4.7-.47,9.38-.909,14.054-.853,9.149-2.06,18.248-2.663,27.432-.309,4.674-.463,9.363-.326,14.037.032,1.116.077,2.232.144,3.344.074,1.246.632,3.1-.726,3.927-.776.477-2.3.453-3.19.593-1.4.221-2.807.4-4.239.54-9.436.944-19,.551-28.467.495l-28.6-.147-6.976-.039c-.632,0-2.909.379-3.3-.372a7.427,7.427,0,0,1,.351-2.214q.161-.99.351-1.976c.814-4.615,1.776-9.2,2.744-13.784,2.081-9.826,4.211-19.7,5.067-29.737.425-5.036.144-10.117.663-15.142.242-2.334.53-7.541,3.636-7.748,2.632-.175,5.341,0,7.98,0a.526.526,0,0,0,0-1.053c-2.492,0-4.987-.067-7.478-.018-1.656.032-2.807.425-3.6,1.948-2.018,3.909-1.811,9.124-1.874,13.391a162.488,162.488,0,0,1-3.762,30.2c-1.028,5.029-2.137,10.04-3.158,15.072-.481,2.4-.94,4.815-1.362,7.233-.2,1.151-1.19,3.688-.316,4.744s3.562.488,4.766.495l8.373.049,16.044.091c10.366.06,20.768.351,31.13.046a72.805,72.805,0,0,0,14.995-1.534,2.4,2.4,0,0,0,2.183-2.541c.084-2.372-.3-4.818-.351-7.2-.351-20.389,4.439-40.493,3.948-60.889-.032-1.386.491-4.881-1.025-5.72a3.828,3.828,0,0,0-2.281-.088c-1.369.158-2.734.351-4.1.512l-17.774,2.218c-5.681.7-11.359,1.46-17.051,2.106-6.025.7-12.11,1.119-18.115,0-.663-.123-.948.891-.281,1.014Z" transform="translate(-234.047 -196.41)" fill="#aaea15"/>
    <path id="Path_26" data-name="Path 26" d="M319.063,308.42l70.122-3.439c.677-.035.681-1.088,0-1.053l-70.122,3.439C318.389,307.4,318.386,308.452,319.063,308.42Z" transform="translate(-250.921 -222.188)" fill="#aaea15"/>
    <path id="Path_27" data-name="Path 27" d="M380.675,285.726a1.755,1.755,0,0,0,.621,2.832,4.611,4.611,0,0,0,2.99-.165c1.4-.351,2.807-.663,4.25-.919a57.957,57.957,0,0,1,9.507-.884c1.453-.018,2.9.049,4.348.112a4.7,4.7,0,0,0,3.078-.526,1.987,1.987,0,0,0,.351-3.1c-1.4-1.281-4.429-.537-6.05-.4a135.676,135.676,0,0,0-17.5,2.611c-.66.14-.383,1.158.281,1.014q5.71-1.232,11.507-1.979,2.849-.351,5.71-.593c.9-.074,1.8-.14,2.7-.193.351-.021.723-.06,1.081-.049,1.112.025,1.242-.175.576,1.169-.593,1.19-.4,1.053-1.432,1.014-.435,0-.87-.049-1.305-.07q-1.337-.056-2.674-.06-2.846,0-5.678.274c-1.6.154-3.2.372-4.78.653-.99.175-1.972.379-2.951.6-.432.1-.867.207-1.3.316-.207.056-.418.105-.625.158q-1.151.4-1.962-1.053c.47-.488-.27-1.235-.744-.744Z" transform="translate(-290.93 -208.171)" fill="#aaea15"/>
    <path id="Path_28" data-name="Path 28" d="M386.836,333.181c-5.078-.2-10.563,1.176-13.907,5.264-2.618,3.2-4.109,8.682-1.337,12.282,2.979,3.86,9.514,3.179,13.454,1.534,4.169-1.755,8.731-5.373,9.984-9.9,1.562-5.653-3.509-9.928-8.791-9.991a.527.527,0,0,0,0,1.053,8.032,8.032,0,0,1,7.369,4.13c1.47,2.955.2,6.057-1.755,8.422-3.137,3.765-8.043,6.6-13.04,6.524-3-.046-6.317-1.074-7.247-4.239a9.8,9.8,0,0,1,1.151-7.643c2.885-4.913,8.756-6.576,14.139-6.366.677.025.677-1.028,0-1.053Z" transform="translate(-284.381 -240.649)" fill="#aaea15"/>
    <path id="Path_29" data-name="Path 29" d="M400,350.4a1.369,1.369,0,0,0-1.839,1.4c.105,1.369,1.614,1.755,2.748,1.674.979-.084,2.123-.446,1.779-1.67a1.572,1.572,0,0,0-.856-.99,1.982,1.982,0,0,0-.99-.123c-.13,0-1.319.435-.814-.088l-.828-.109a.863.863,0,0,1,.253.7.53.53,0,0,0,.79.453.7.7,0,0,1,.951.821.53.53,0,0,0,.962.407c.351-.632.776-1.888.249-2.548a1.123,1.123,0,0,0-1.449-.053,5.077,5.077,0,0,0-.723.621c-.425.375-.7.551-.544-.168a4.55,4.55,0,0,1,2.653-2.874l-.772-.593a11.1,11.1,0,0,1-2.123,4.158l.9.372a2.344,2.344,0,0,1,1.432-2.285h-.516l.274.449c-.1.663.912.948,1.014.277.133-.867-.414-1.993-1.428-1.569a3.305,3.305,0,0,0-1.814,3.127c0,.421.6.747.9.376a12.374,12.374,0,0,0,2.39-4.629.533.533,0,0,0-.776-.593,5.885,5.885,0,0,0-2.555,2.225c-.428.7-.965,1.8-.53,2.6a1.116,1.116,0,0,0,1.526.432,4.105,4.105,0,0,0,.881-.7c.13-.116.274-.316.446-.351.154-.105.147-.046-.025.186a1.913,1.913,0,0,1-.305,1.025l.962.4a1.755,1.755,0,0,0-2.5-2.011l.793.456a1.912,1.912,0,0,0-.4-1.239.533.533,0,0,0-.825-.109,1.377,1.377,0,0,0,.035,2.039c.5.383.747,0,1.3-.088,1.87-.242.779.6.119.628a2.489,2.489,0,0,1-.881-.063q-1.1-.372-.137-.958c.628.256.9-.762.281-1.014Z" transform="translate(-302.586 -250.068)" fill="#aaea15"/>
    <path id="Path_30" data-name="Path 30" d="M391.319,361.182c.432,1.4-1.351,1.867-2.2,2.351a4.893,4.893,0,0,0-1.52,1.33,10.161,10.161,0,0,0-1.505,4.116c-.133.663.881.944,1.018.281a11.932,11.932,0,0,1,.888-3.028,5.347,5.347,0,0,1,2.716-2.323c1.179-.646,2.032-1.646,1.614-3.007-.2-.646-1.214-.368-1.014.281Z" transform="translate(-294.752 -258.93)" fill="#aaea15"/>
    <path id="Path_31" data-name="Path 31" d="M395.619,360.37a1.018,1.018,0,0,0-.877,1.053c0,.418.277.684.467,1.018a8.036,8.036,0,0,1,1.018,2.214,4.778,4.778,0,0,1-.06,2.807c-.726,1.3-2.039,1.053-3.158,1.053-1.053,0-1.867.351-1.832-1.116a4.668,4.668,0,0,1,1.053-2.309l-.962-.126a18.345,18.345,0,0,1,.319,3.25c0,.488.747.758.979.263a20.328,20.328,0,0,0,1.337-3.7l-1.035-.14.182,2.667a.53.53,0,0,0,.979.267,1.194,1.194,0,0,0,.263-.474c.035-.165-.288-1.277-.418-.881l1.032.14.074-2.534-1.053.14a5.243,5.243,0,0,1,.2,2.211c-.067.586.919.719,1.053.14l.66-3.4-.962.123a2.326,2.326,0,0,1,.179,1.516c-.077.674.976.667,1.053,0a3.7,3.7,0,0,0-.323-2.046.53.53,0,0,0-.962.126l-.663,3.4,1.035.14a5.741,5.741,0,0,0-.235-2.488.526.526,0,0,0-1.032.137l-.074,2.534a.529.529,0,0,0,1.035.14l.056-.172a.533.533,0,0,0-.133-.512c-1.091-1.186-1.312.7-1.691,1.225l.983.267-.182-2.667a.53.53,0,0,0-1.035-.14,18.866,18.866,0,0,1-1.228,3.45l.983.267a19.842,19.842,0,0,0-.351-3.53c-.091-.484-.726-.463-.962-.126-.7,1.011-1.916,3.218-.979,4.429.818,1.053,3.39.646,4.488.579,1.734-.1,2.362-1.2,2.551-2.832a6.934,6.934,0,0,0-.13-2.344c-.095-.414-1.053-3.039-1.341-2.986.667-.123.383-1.141-.281-1.018Z" transform="translate(-297.298 -258.823)" fill="#aaea15"/>
    <path id="Path_32" data-name="Path 32" d="M394.47,364.429l-2.874,3.793.909.53,2.106-3.046-.961-.407-1.049,4a.53.53,0,0,0,.962.407,18.5,18.5,0,0,1,1.6-2.256l-.877-.512a5.731,5.731,0,0,1-1.323,2.432l.881.512a4.7,4.7,0,0,1,.382-1.4c.27-.607-.586-1.144-.909-.533a12.356,12.356,0,0,1-1.014,1.593l.962.126.214-1-.962-.126.154.877a.53.53,0,0,0,.881.232,10.479,10.479,0,0,0,2.106-3.176h-.905a4.727,4.727,0,0,1,.495,1.4c.126.632.965.4,1.032-.14a28.532,28.532,0,0,0,.232-3.544h-1.053V366.4c0,.572.937.74,1.035.14a4.021,4.021,0,0,1,.516-1.509h-.923a2.341,2.341,0,0,1,.351,1.193.526.526,0,0,0,1.053,0l.133-.7H396.61c.1.621.488,4.12-.884,3.709-.232-.056-.3-.042-.2.039l.312-.667.733-1.555-.983-.267a3.851,3.851,0,0,1-.305,2.372,1.818,1.818,0,0,1-1.983.407,3.51,3.51,0,0,1-.916-.962l-.719.7c.583.425,1.527,1.467,2.277,1.527.572.046,1.053-.428,1.428-.807a6.116,6.116,0,0,0,1.716-4.5.526.526,0,1,0-1.053,0v1.2a.526.526,0,0,0,1.053,0v-2.944a.526.526,0,0,0-1.053,0,12.64,12.64,0,0,1-.182,2.106l1.035.14a24.245,24.245,0,0,1-.116-2.523.526.526,0,0,0-1.032-.14c-.158.67-.351,1.33-.537,1.986l.962-.126-.074-.281c-.049-.67-1.1-.674-1.053,0a1.927,1.927,0,0,0,.218.814.532.532,0,0,0,.962-.126c.2-.66.379-1.319.537-1.986l-1.035-.14a24.245,24.245,0,0,0,.116,2.523c.053.54.923.772,1.032.14a14.5,14.5,0,0,0,.221-2.4h-1.053v2.944h1.053v-1.2h-1.053a5.06,5.06,0,0,1-1.281,3.607,4.313,4.313,0,0,1-.442.435c-.249.239-.477.2-.677-.109a8.768,8.768,0,0,1-1.449-1.053c-.435-.312-1.032.305-.723.719.807,1.074,2.011,2.27,3.509,1.755,1.576-.558,1.79-2.692,1.67-4.1-.039-.467-.737-.783-.979-.263-.351.74-.7,1.477-1.053,2.221a1.963,1.963,0,0,0-.316.926c.116.79,1.074.66,1.663.614,2.285-.172,1.923-3.411,1.66-5.039-.088-.54-.874-.456-1.014,0a3.1,3.1,0,0,0-.172,1h1.053a4.172,4.172,0,0,0-.495-1.723.53.53,0,0,0-.909,0,5.117,5.117,0,0,0-.625,1.755l1.053.14v-2.207a.526.526,0,0,0-1.053,0,28.539,28.539,0,0,1-.232,3.544l1.035-.14a6.023,6.023,0,0,0-.6-1.642.53.53,0,0,0-.909,0,9.6,9.6,0,0,1-1.941,2.962l.881.232-.154-.877c-.081-.467-.74-.481-.962-.126a2.309,2.309,0,0,0-.319,1.811c.088.5.719.446.962.126a12.319,12.319,0,0,0,1.014-1.59l-.909-.533a5.987,5.987,0,0,0-.491,1.653c-.063.463.488.948.881.512a7.019,7.019,0,0,0,1.593-2.9c.13-.477-.53-.93-.881-.512a20.1,20.1,0,0,0-1.755,2.456l.962.407,1.07-3.99a.53.53,0,0,0-.962-.407l-2.106,3.049c-.393.565.509,1.053.909.53l2.864-3.79c.407-.54-.505-1.053-.909-.533Z" transform="translate(-298.187 -260.517)" fill="#aaea15"/>
    <path id="Path_33" data-name="Path 33" d="M526.3,334.7c4.211-2.576,7.559-6.418,11.279-9.633,4.036-3.485,8.271-6.731,12.633-9.8,8.471-5.966,17.367-11.3,26.256-16.627a.526.526,0,0,0-.53-.909c-8.889,5.324-17.788,10.651-26.26,16.627-4,2.807-7.9,5.783-11.64,8.942-4.071,3.439-7.7,7.72-12.282,10.5-.579.351-.049,1.263.53.909Z" transform="translate(-385.247 -218.121)" fill="#aaea15"/>
    <path id="Path_34" data-name="Path 34" d="M683.393,253.844c-4.562.463-9.475,1.625-12.282,5.615-2.425,3.432-2.372,9.419-.095,12.942,2.586,4,7.871,4.148,11.977,2.853s8.356-3.565,8.317-8.471a20.474,20.474,0,0,0-2.021-7.759c-.905-2.06-2.509-3.86-4.937-3.632-.67.063-.677,1.116,0,1.053,3.253-.3,4.3,3.562,5.071,6,.7,2.277,1.351,4.973.249,7.236s-3.758,3.418-6.029,4.246a12.61,12.61,0,0,1-7.72.7c-5.081-1.421-6.485-7.861-5.022-12.43,1.684-5.264,7.65-6.811,12.51-7.3.667-.067.674-1.119,0-1.053Z" transform="translate(-478.58 -189.678)" fill="#aaea15"/>
    <path id="Path_35" data-name="Path 35" d="M703.393,369.844c-4.562.463-9.475,1.625-12.282,5.615-2.425,3.432-2.372,9.419-.095,12.942,2.586,4,7.871,4.148,11.977,2.853s8.355-3.565,8.317-8.471a20.474,20.474,0,0,0-2.021-7.759c-.905-2.06-2.509-3.86-4.937-3.632-.67.063-.677,1.116,0,1.053,3.253-.3,4.3,3.562,5.071,6,.7,2.277,1.351,4.973.249,7.236s-3.758,3.418-6.029,4.246a12.61,12.61,0,0,1-7.72.7c-5.081-1.421-6.485-7.861-5.022-12.43,1.684-5.264,7.65-6.811,12.51-7.3.667-.067.674-1.119,0-1.053Z" transform="translate(-491.562 -264.971)" fill="#aaea15"/>
    <path id="Path_36" data-name="Path 36" d="M689.615,249.86l3.323,3.79a.53.53,0,0,0,.877-.235c.7-1.846.569-3.758.733-5.7a18.763,18.763,0,0,1,1.491-5.815,19.627,19.627,0,0,1,7.854-9c.579-.351.049-1.263-.53-.909a20.606,20.606,0,0,0-7.941,8.724,20.169,20.169,0,0,0-1.755,5.569c-.351,2.278-.032,4.664-.874,6.85l.881-.235-3.306-3.783c-.449-.509-1.19.239-.744.744Z" transform="translate(-491.683 -175.444)" fill="#aaea15"/>
    <path id="Path_37" data-name="Path 37" d="M531.658,411.965q27.151-.828,54.316-.351a.527.527,0,0,0,0-1.053q-27.158-.484-54.316.351C530.981,410.933,530.977,411.986,531.658,411.965Z" transform="translate(-388.909 -291.286)" fill="#aaea15"/>
    <path id="Path_38" data-name="Path 38" d="M697.539,383.362A108.757,108.757,0,0,1,715.32,392.3c.576.351,1.105-.551.53-.909a109.919,109.919,0,0,0-18.016-9.04c-.628-.249-.9.769-.277,1.014Z" transform="translate(-496.692 -273.063)" fill="#aaea15"/>
    <path id="Path_39" data-name="Path 39" d="M711.09,371.4a42.988,42.988,0,0,0-10.321,26.154c-.028.677,1.025.677,1.053,0a41.809,41.809,0,0,1,10.012-25.41c.439-.512-.3-1.26-.744-.744Z" transform="translate(-499.006 -265.869)" fill="#aaea15"/>
    <path id="Path_40" data-name="Path 40" d="M329.264,400.875l39.223-.512L373,400.3c.811,0,1.621-.028,2.432-.032a1.934,1.934,0,0,1,1.888,2.106c-.053,2.456-1.6,2.369-3.618,2.456l-4.874.221-19.848.874c-3.555.158-7.113.351-10.668.474-3.207.1-9.307-.947-7.882-5.615.2-.649-.818-.926-1.018-.281a5.172,5.172,0,0,0,2.541,5.829c2.839,1.705,6.58,1.126,9.714.986l24.368-1.105,5.917-.263c1.516-.07,3.625.239,5.018-.467,1.635-.825,1.923-4.1.891-5.478a2.44,2.44,0,0,0-2.106-.8c-2.183-.084-4.4.06-6.59.088l-12.149.161-27.762.351a.527.527,0,0,0,0,1.053Z" transform="translate(-257.532 -284.018)" fill="#aaea15"/>
    <g id="Michel" transform="translate(225.272 78.825)">
      <path id="Path_41" data-name="Path 41" d="M772.692,757.751c-.884.555-1.9.867-2.807,1.355a3.842,3.842,0,0,0-2.06,2.232,1.4,1.4,0,0,0,.046.955,1.853,1.853,0,0,0,.983.779,14.911,14.911,0,0,0,11.795.133,15.538,15.538,0,0,1,2.035-.807,13.23,13.23,0,0,1,2.607-.267,20.043,20.043,0,0,0,2.741-.351,2.411,2.411,0,0,0,1.242-.516,2.306,2.306,0,0,0,.558-1.341,11.037,11.037,0,0,0-1.755-7.819,2.643,2.643,0,0,0-.765-.811,2.951,2.951,0,0,0-1.218-.326c-1.755-.214-3.593-.607-5.366-.649-1.27-.028-1.909.576-2.807,1.449C776.064,753.624,774.98,756.323,772.692,757.751Z" transform="translate(-767.762 -590.754)" fill="#323444"/>
      <path id="Path_42" data-name="Path 42" d="M855.118,757.181a8.022,8.022,0,0,0,1.249,4.913,6.49,6.49,0,0,0,1.706,1.491,7.683,7.683,0,0,0,7.447.73,2.211,2.211,0,0,0,.926-.779,2.655,2.655,0,0,0-.032-2.046l-3.362-11.651c-2.172.333-5.366.568-7.3,1.67C854.356,752.307,855.118,755.644,855.118,757.181Z" transform="translate(-824.328 -590.444)" fill="#323444"/>
      <path id="Path_43" data-name="Path 43" d="M773.011,560.473c-.2.642-.94.94-1.344,1.481a2.811,2.811,0,0,0-.253,2.288,6.05,6.05,0,0,0,1.541,3.035,3.639,3.639,0,0,0,3.158,1.074,2.632,2.632,0,0,0,2.144-2.362,4.473,4.473,0,0,0-.33-1.52l-2.393-6.92a.262.262,0,0,0-.432-.19c-.565.267-1.7.547-2.028,1.133S773.25,559.838,773.011,560.473Z" transform="translate(-770.053 -465.475)" fill="#fbb3b2"/>
      <path id="Path_44" data-name="Path 44" d="M773,554.739a11.349,11.349,0,0,0,2.456-.986,2.535,2.535,0,0,1,2.53.095c.2.161.386.383.642.379a25.121,25.121,0,0,0-1.572-5,.389.389,0,0,0-.137-.193.4.4,0,0,0-.3,0l-2.362.618c-.874.228-.976.158-.909,1.018C773.368,551.054,773.565,554.739,773,554.739Z" transform="translate(-771.162 -460.088)" fill="#106433"/>
      <path id="Path_45" data-name="Path 45" d="M769.649,422.683a3.327,3.327,0,0,0-.351,1.849,62.874,62.874,0,0,0,.491,9.3c.109.737.246,1.474.316,2.218a25.589,25.589,0,0,1,.049,3.113l-.351,13.511c-.042,1.653-.126,3.429-1.147,4.727a2.26,2.26,0,0,0-.411,1.5c.267,3.39.828,6.752,1.386,10.1a6.243,6.243,0,0,1,5.664.27,62.347,62.347,0,0,0,2.909-17.2,68.25,68.25,0,0,1,.4-8.6,54.742,54.742,0,0,0-.105-14.49,8.007,8.007,0,0,0-1.512-4.271,6.475,6.475,0,0,0-3.509-2.021C772.179,422.353,771.018,422.7,769.649,422.683Z" transform="translate(-768.071 -378.004)" fill="#106433"/>
      <path id="Path_47" data-name="Path 47" d="M782.358,525.848a61.976,61.976,0,0,0,3.692,35.878,9.731,9.731,0,0,1,.856,2.653c.193,1.72-.6,3.372-1.053,5.036-1.053,3.783-.446,7.812.228,11.682q.421,2.421.867,4.839c.291,1.572.572,3.281-.158,4.706.628,2.618,1,5.211,1.628,7.829a1.488,1.488,0,0,1,.06.642,1.891,1.891,0,0,1-.642.86,3.839,3.839,0,0,0-.979,3.674c1.6-1.151,3.839-.747,5.671,0s3.636,1.755,5.615,1.755c-.288-2.323-.565-4.762.291-6.941.5-1.263,1.376-2.456,1.351-3.807-.025-1.211-.765-2.292-.944-3.488a8.829,8.829,0,0,1,.084-2.232,55.792,55.792,0,0,0-.6-12.921,7.719,7.719,0,0,0-.59-2.456,3.627,3.627,0,0,1-.614-1.555c0-.656.53-1.19.726-1.814.351-1.151-.295-2.716.677-3.429,2.562-1.881,1.579-6.373,1.523-9.549q-.067-4.109-.351-8.212a34.978,34.978,0,0,1,1.937,14.156,10.133,10.133,0,0,0,.295,4.678c.47,1.116,1.4,2.035,1.656,3.218a13.459,13.459,0,0,1,.081,2.228,2.3,2.3,0,0,0,.93,1.93c.049,3.383.351,7,.4,10.384a25.612,25.612,0,0,0,.421,5.159,6.573,6.573,0,0,1,.26,1.663,6.95,6.95,0,0,1-.554,2.046,11.732,11.732,0,0,0,1.755,10.826,5.232,5.232,0,0,1,4.239-2.372,15.377,15.377,0,0,1,4.98.73,9.752,9.752,0,0,1,1.165-5.931,4.853,4.853,0,0,0,.614-1.319,5.844,5.844,0,0,0-.491-2.66,13.374,13.374,0,0,1-.161-4.383,69.357,69.357,0,0,0-.649-14.711,12.462,12.462,0,0,0-.67-2.807c-.126-.323-.281-.632-.386-.958a7.551,7.551,0,0,1-.281-1.8l-.4-5.615c-.284-3.934,1.007-7.819,1.909-11.658.4-1.72.842-3.436,1.112-5.183.368-2.379.428-4.811.969-7.159.484-2.106,1.358-4.158,1.541-6.317.281-3.344-1.109-6.576-2.456-9.643-.561-1.263-2.685-1.137-4.05-1.362-9.682-1.59-19.88-1.6-29.011,1.983a7.219,7.219,0,0,0-2.5,1.723Z" transform="translate(-776.491 -441.988)" fill="#2b2833"/>
      <path id="Path_48" data-name="Path 48" d="M801.728,351.745l1.074,4.176a11.158,11.158,0,0,1,.481,2.951,2.179,2.179,0,0,1-.235,1.053,2.511,2.511,0,0,1-.667.681c-.733.558-1.242,1.86-2.081,2.246.432.751,1.028.263,1.807.639a19.621,19.621,0,0,0,4.116,1.955,9.183,9.183,0,0,0,4.271-.351,14.748,14.748,0,0,0,5.531-2.572c1.59-1.295,2.495-2.439,2.488-4.485-1.755.207-3.316-1.565-4.092-3.158a8.585,8.585,0,0,1-.59-1.891l-.94-4.137a20.283,20.283,0,0,0-2.839,1.341,10.306,10.306,0,0,1-3.225.467,34.74,34.74,0,0,0-5.741.744c-.26.053-.586.218-.523.47" transform="translate(-788.882 -330.171)" fill="#fbb3b2"/>
      <path id="Path_49" data-name="Path 49" d="M801.728,351.745l1.074,4.176a11.158,11.158,0,0,1,.481,2.951,2.179,2.179,0,0,1-.235,1.053,2.511,2.511,0,0,1-.667.681c-.733.558-1.242,1.86-2.081,2.246.432.751,1.028.263,1.807.639a19.621,19.621,0,0,0,4.116,1.955,9.183,9.183,0,0,0,4.271-.351,14.748,14.748,0,0,0,5.531-2.572c1.59-1.295,2.495-2.439,2.488-4.485-1.755.207-3.316-1.565-4.092-3.158a8.585,8.585,0,0,1-.59-1.891l-.94-4.137a20.283,20.283,0,0,0-2.839,1.341,10.306,10.306,0,0,1-3.225.467,34.74,34.74,0,0,0-5.741.744c-.26.053-.586.218-.523.47" transform="translate(-788.882 -330.171)" opacity="0.1"/>
      <circle id="Ellipse_4" data-name="Ellipse 4" cx="9.292" cy="9.292" r="9.292" transform="translate(8.165 5.291)" fill="#fbb3b2"/>
      <path id="Path_50" data-name="Path 50" d="M804.841,368.627a8.422,8.422,0,0,1,2.106-2.807c1.309-1.148,3.1-2.077,3.407-3.79l2.836,3.3a1.526,1.526,0,0,1,.351.54,1.361,1.361,0,0,1-.267,1.091,11.364,11.364,0,0,1-2.853,2.73,86.658,86.658,0,0,0-6.875,6.064.7.7,0,0,1-.368.225.663.663,0,0,1-.383-.109,15.964,15.964,0,0,1-4.9-3.986c-.1-.123-.228-.263-.393-.253a.5.5,0,0,0-.263.137c-.944.772-1.976,1.695-3.186,1.576a7.547,7.547,0,0,0,2.786-4.913,9.285,9.285,0,0,1,.4-1.92,2,2,0,0,1,1.369-1.3,3.079,3.079,0,0,0,.786,3.769,7.748,7.748,0,0,0,3.481,1.688C804.065,370.9,804.416,369.547,804.841,368.627Z" transform="translate(-784.825 -338.726)" fill="#106433"/>
      <path id="Path_51" data-name="Path 51" d="M782.27,524.776c1.323.326,2.576.881,3.86,1.291a18.449,18.449,0,0,0,7.247.761,3.913,3.913,0,0,0,2.106-.67c.165-.133.316-.291.491-.414a3.436,3.436,0,0,1,.944-.389c3.218-1.007,5.913-3.179,8.527-5.306.084-.07.179-.158.172-.27a.351.351,0,0,0-.105-.2L804.136,518a56.874,56.874,0,0,1-10.963.291,15.92,15.92,0,0,0-2.253.06c-.723.084-1.435.267-2.148.421-2.706.59-5.471.814-8.212,1.2a1.267,1.267,0,0,0-.544.168,1.225,1.225,0,0,0-.291.323l-.962,1.351a4.252,4.252,0,0,0-.807,1.548c-.225,1.053.246,1.4,1.141,1.267A8.33,8.33,0,0,1,782.27,524.776Z" transform="translate(-774.343 -439.962)" fill="#106433"/>
      <path id="Path_52" data-name="Path 52" d="M788.421,380.315a17.094,17.094,0,0,0-3.618-2.825,5.127,5.127,0,0,0-1.755-.7,2.19,2.19,0,0,0-1.8.442c-.312.277-.509.663-.811.955a4.032,4.032,0,0,1-1.284.726,22.781,22.781,0,0,0-4.513,2.572,10.349,10.349,0,0,0-2.046,1.888c-1.59,2.035-1.828,4.8-1.786,7.387.032,1.8,1.755,3.13,2.941,4.474a32.973,32.973,0,0,1,3.011,4.211,5.734,5.734,0,0,1,1.225,3.309c-.067.986-.642,1.913-.551,2.9.032.351.144.674.175,1.014a11.4,11.4,0,0,1-.284,2.106,26.759,26.759,0,0,0,.246,2.979,9.479,9.479,0,0,1-.26,2.032c-.674,3.207-1.52,6.432-1.348,9.707l-1.944.351a1.642,1.642,0,0,1-.376,2.621c3.036,1.014,6.317.5,9.535.5,2.663,0,5.316.351,7.976.3a13.786,13.786,0,0,0,7.6-2.035c.6-.407,1.144-.884,1.772-1.239a8.743,8.743,0,0,1,2.685-.877,26.641,26.641,0,0,1,5.264-.47,4.052,4.052,0,0,0,2.492-.484,3.561,3.561,0,0,0,1.053-2.562c.1-1,.165-2,.182-3a12.92,12.92,0,0,0-.123-2.33,15.249,15.249,0,0,0-.411-1.67l-1.323-4.66c-.547-1.923.214-4.032.376-6.025a1.511,1.511,0,0,0-.316-1.32c-.13-.109-.309-.182-.351-.351a.6.6,0,0,1,.084-.47,25.98,25.98,0,0,1,2.716-3.909,79.905,79.905,0,0,0,4.492-6.9,22.21,22.21,0,0,0-5.945-13.293,6.432,6.432,0,0,0-2.488-1.835,7.37,7.37,0,0,0-1.979-.319c-2.751-.186-5.615-.351-8.012-1.734a1.524,1.524,0,0,0-.572-.242c-.53-.06-.916.463-1.26.877a15.1,15.1,0,0,1-3.33,2.432A23.613,23.613,0,0,0,788.421,380.315Z" transform="translate(-769.739 -344.89)" fill="#106c36"/>
      <path id="Path_53" data-name="Path 53" d="M878.8,417.881a26.345,26.345,0,0,1,.674,5.394,20.984,20.984,0,0,0,.572,3.232,5.16,5.16,0,0,0,.667,1.646,7.244,7.244,0,0,1,.969,1.362,3.289,3.289,0,0,1,.144,1.095l.042,2.421a8.708,8.708,0,0,1-.572,3.769l-1.512,4.6a28.2,28.2,0,0,1-3.13,7.19,2.074,2.074,0,0,1-.9.846,4.382,4.382,0,0,1-.909.14,2.337,2.337,0,0,0-1.927,2.27,5.33,5.33,0,0,0-1.295-1.323l-3.078-2.456a13.154,13.154,0,0,0-3.429-2.221,9.3,9.3,0,0,0,6.464-7.812,3.508,3.508,0,0,1,.351-1.537c.256-.414.73-.73.765-1.218.042-.614-.653-1.077-.653-1.691,0-.407.3-.744.435-1.126a2.828,2.828,0,0,0,0-1.442l-.425-2.358a1.8,1.8,0,0,0-.211-.674,4.358,4.358,0,0,0-.526-.554c-.73-.818-.407-2.106,0-3.113a29.752,29.752,0,0,1,3.586-6.292,21.5,21.5,0,0,0,1.428-2.042c.372-.646.456-1.541.849-2.106C877.68,415.206,878.364,416.515,878.8,417.881Z" transform="translate(-830.948 -372.38)" fill="#106c36"/>
      <path id="Path_54" data-name="Path 54" d="M861.12,504.785a1.691,1.691,0,0,0-.4.421,3.548,3.548,0,0,1-1.59,1.134c.351.253.67.5,1,.758a43.822,43.822,0,0,1,6.668,6.376c.221-.79,1.544-.733,1.867-1.488a1.457,1.457,0,0,0,.07-.674,20.56,20.56,0,0,0-.505-3.509,3.973,3.973,0,0,0-.7-1.642,4.211,4.211,0,0,0-1.986-1.123C864.436,504.652,862.243,504.108,861.12,504.785Z" transform="translate(-827.067 -431.176)" fill="#106433"/>
      <path id="Path_55" data-name="Path 55" d="M841.8,511.164a18.483,18.483,0,0,1-3.158,2.288,11.887,11.887,0,0,0-2.516,1.109,2.5,2.5,0,0,0,2.386,1.291,5.671,5.671,0,0,0,2.671-.979c.628-.386,1.365-.835,2.049-.565.105.533-.351,1.035-.351,1.576a1.588,1.588,0,0,0,.891,1.218c2.106,1.358,4.815,1.246,7.324,1.088a.66.66,0,0,0,.4-.119.635.635,0,0,0,.151-.463c.032-.554.046-1.105.049-1.66a2.379,2.379,0,0,0-1.018-2.344A28.638,28.638,0,0,0,846.3,510.5C844.756,509.6,843.191,510.132,841.8,511.164Z" transform="translate(-812.138 -434.796)" fill="#fbb3b2"/>
      <path id="Path_56" data-name="Path 56" d="M822.1,326.066a2.437,2.437,0,1,0,3.106,2.049A2.647,2.647,0,0,0,822.1,326.066Zm.53,4.408a2.063,2.063,0,1,1,2.144-2.306A2.246,2.246,0,0,1,822.626,330.473Z" transform="translate(-801.375 -315.366)" fill="#3c354c"/>
      <path id="Path_57" data-name="Path 57" d="M800.456,328.665a2.437,2.437,0,1,0,3.106,2.046A2.646,2.646,0,0,0,800.456,328.665Zm.53,4.4a2.062,2.062,0,1,1,2.144-2.306A2.241,2.241,0,0,1,800.986,333.069Z" transform="translate(-787.329 -317.054)" fill="#3c354c"/>
      <path id="Path_58" data-name="Path 58" d="M663.02,259.64l3.386.723-.333.891-3.193-.937Z" transform="translate(-655.532 -247.351)" fill="#3c354c"/>
      <path id="Path_59" data-name="Path 59" d="M711.293,253.18l-3.123,1.505.537.786,2.881-1.667Z" transform="translate(-684.929 -243.158)" fill="#3c354c"/>
      <path id="Path_60" data-name="Path 60" d="M687.31,260.534l2.376-.284-.123.59-2.039.137Z" transform="translate(-671.389 -247.747)" fill="#3c354c"/>
      <path id="Path_61" data-name="Path 61" d="M789.33,307.612a3.769,3.769,0,0,0,.351-1.534,3.276,3.276,0,0,1,.161-.933,2.611,2.611,0,0,1,.765-.979,7.077,7.077,0,0,1,4.211-1.47,9.735,9.735,0,0,1,4.871,1.053,3.791,3.791,0,0,1,1.211.9c.491.6.6,1.376,1.091,1.969a2.867,2.867,0,0,0,2.688.842,13.981,13.981,0,0,0,.035-1.881,9.1,9.1,0,0,1,.558-1.558,3.829,3.829,0,0,0-1.884-4.422,7.274,7.274,0,0,1-1.677-1.053,7.938,7.938,0,0,1-.825-1.439,3.832,3.832,0,0,0-4.348-1.26c-.484.182-.912.46-1.4.656a11.569,11.569,0,0,1-2.955.568,9.051,9.051,0,0,0-2.864.751,3.207,3.207,0,0,0-1.793,1.937c-.095.379-.074.772-.168,1.147-.484,1.906-3.611,2.832-3.786,4.776a2.788,2.788,0,0,0,.8,1.948c.33.39,1.119,1.432,1.677,1.583s.983-.379,1.516-.561C788.4,308.387,788.908,308.331,789.33,307.612Z" transform="translate(-778.016 -295.621)" fill="#cbceda"/>
    </g>
    <path id="Path_62" data-name="Path 62" d="M912.81,682c0,17.63,11.061,31.9,24.73,31.9" transform="translate(-636.637 -467.586)" fill="#46455b"/>
    <path id="Path_63" data-name="Path 63" d="M983.28,713.247c0-17.83,12.345-32.257,27.6-32.257" transform="translate(-682.377 -466.93)" fill="#aaea15"/>
    <path id="Path_64" data-name="Path 64" d="M938.35,686.56c0,16.75,7.054,30.3,15.767,30.3" transform="translate(-653.214 -470.546)" fill="#aaea15"/>
    <path id="Path_65" data-name="Path 65" d="M983.28,696.669c0-22.782,14.269-41.219,31.9-41.219" transform="translate(-682.377 -450.353)" fill="#46455b"/>
    <ellipse id="Ellipse_5" data-name="Ellipse 5" cx="6.148" cy="1.039" rx="6.148" ry="1.039" transform="translate(293.684 250.331)" fill="#aaea15" opacity="0.1"/>
    <path id="Path_66" data-name="Path 66" d="M968.46,770.045s3.509-.109,4.562-.86,5.394-1.653,5.657-.446,5.264,6,1.309,6.036-9.2-.618-10.254-1.26S968.46,770.045,968.46,770.045Z" transform="translate(-672.758 -523.504)" fill="#a8a8a8"/>
    <path id="Path_67" data-name="Path 67" d="M980.062,777.853c-3.958.032-9.2-.618-10.254-1.26-.8-.488-1.123-2.246-1.232-3.053h-.116s.221,2.828,1.277,3.471,6.3,1.291,10.254,1.26c1.144,0,1.537-.418,1.516-1.018C981.349,777.618,980.932,777.846,980.062,777.853Z" transform="translate(-672.758 -527.002)" opacity="0.2"/>
    <path id="Path_68" data-name="Path 68" d="M148.31,711.36c0,14.037,8.8,25.379,19.673,25.379" transform="translate(-140.418 -486.643)" fill="#46455b"/>
    <path id="Path_69" data-name="Path 69" d="M204.37,736.213c0-14.184,9.826-25.663,21.957-25.663" transform="translate(-176.805 -486.117)" fill="#aaea15"/>
    <path id="Path_70" data-name="Path 70" d="M168.62,715c0,13.335,5.615,24.108,12.546,24.108" transform="translate(-153.6 -489.005)" fill="#aaea15"/>
    <path id="Path_71" data-name="Path 71" d="M204.37,723.024c0-18.125,11.352-32.794,25.379-32.794" transform="translate(-176.805 -472.928)" fill="#46455b"/>
    <ellipse id="Ellipse_6" data-name="Ellipse 6" cx="4.892" cy="0.828" rx="4.892" ry="0.828" transform="translate(21.82 253.29)" fill="#aaea15" opacity="0.1"/>
    <path id="Path_72" data-name="Path 72" d="M192.58,781.362s2.79-.088,3.629-.7,4.3-1.316,4.5-.351,4.194,4.776,1.053,4.8-7.32-.491-8.159-1S192.58,781.362,192.58,781.362Z" transform="translate(-169.152 -531.087)" fill="#a8a8a8"/>
    <path id="Path_73" data-name="Path 73" d="M201.809,787.652c-3.158.025-7.32-.491-8.159-1-.639-.386-.891-1.786-.979-2.428h-.091s.175,2.249,1.014,2.762,5.011,1.025,8.159,1c.909,0,1.225-.33,1.207-.811C202.834,787.452,202.487,787.631,201.809,787.652Z" transform="translate(-169.152 -533.934)" opacity="0.2"/>
  </g>
</svg>
