<svg xmlns="http://www.w3.org/2000/svg" xmlns:xlink="http://www.w3.org/1999/xlink" width="86.962" height="78.033" viewBox="0 0 86.962 78.033">
  <defs>
    <clipPath id="clip-path">
      <path id="Path_7" data-name="Path 7" d="M56.516,10.268a65.176,65.176,0,0,0,1.607,15A55.621,55.621,0,0,0,60,31.874,79.373,79.373,0,0,1,44.2,18.482l-.714-.8,5.893-3.3,7.232-4.107h0M33.749,0a3.036,3.036,0,0,0-1.786.625h0L1.25,23.571A3.036,3.036,0,0,0,0,25.981H0a3.036,3.036,0,0,0,.268,1.25,62.409,62.409,0,0,0,14.91,21.785A72.409,72.409,0,0,0,34.463,61.695l-6.875,5.178a6.161,6.161,0,0,0-1.25,8.75h0a6.7,6.7,0,0,0,5.089,2.411h0a5.983,5.983,0,0,0,3.661-1.251L84.462,39.642a6.339,6.339,0,0,0,2.5-4.911v-.179a6.071,6.071,0,0,0-1.25-3.661h0a6.339,6.339,0,0,0-8.75-1.25l-8.214,6.25c-2.143-2.946-3.928-7.678-5.089-12.767a54.552,54.552,0,0,1-1.25-17.946,2.411,2.411,0,0,0-.268-1.786A2.669,2.669,0,0,0,58.3,3.125,108.213,108.213,0,0,1,47.32,9.732L40.445,13.66c-2.321-3.571-3.661-7.143-3.661-10.535A3.036,3.036,0,0,0,33.838,0Z" transform="translate(0 0)" fill="none"/>
    </clipPath>
  </defs>
  <g id="Artwork_5" data-name="Artwork 5" transform="translate(43.481 39.017)">
    <g id="Artwork_5-2" data-name="Artwork 5" transform="translate(-43.481 -39.017)" clip-path="url(#clip-path)">
      <rect id="Rectangle_16" data-name="Rectangle 16" width="0.536" height="70.551" transform="translate(41.9 -16.786) rotate(-44.5)" fill="#b3ec13"/>
      <rect id="Rectangle_17" data-name="Rectangle 17" width="0.536" height="70.551" transform="translate(41.515 -16.456) rotate(-44.6)" fill="#b2ec13"/>
      <rect id="Rectangle_18" data-name="Rectangle 18" width="0.536" height="70.551" transform="translate(41.358 -16.207) rotate(-44.5)" fill="#b1eb14"/>
      <rect id="Rectangle_19" data-name="Rectangle 19" width="0.536" height="70.551" transform="translate(41.063 -15.967) rotate(-44.6)" fill="#afeb14"/>
      <rect id="Rectangle_20" data-name="Rectangle 20" width="0.536" height="70.551" transform="translate(40.879 -15.78) rotate(-44.5)" fill="#aeeb14"/>
      <rect id="Rectangle_21" data-name="Rectangle 21" width="0.536" height="70.551" transform="translate(40.586 -15.45) rotate(-44.6)" fill="#adea15"/>
      <rect id="Rectangle_22" data-name="Rectangle 22" width="0.536" height="70.551" transform="translate(40.426 -15.201) rotate(-44.5)" fill="#abea15"/>
      <rect id="Rectangle_23" data-name="Rectangle 23" width="0.536" height="70.551" transform="translate(39.982 -15.024) rotate(-44.6)" fill="#aaea15"/>
      <rect id="Rectangle_24" data-name="Rectangle 24" width="0.536" height="70.551" transform="translate(39.821 -14.775) rotate(-44.5)" fill="#a8e916"/>
      <rect id="Rectangle_25" data-name="Rectangle 25" width="0.536" height="70.551" transform="translate(39.55 -14.485) rotate(-44.5)" fill="#a7e916"/>
      <rect id="Rectangle_26" data-name="Rectangle 26" width="0.536" height="70.551" transform="translate(39.279 -14.196) rotate(-44.5)" fill="#a6e916"/>
      <rect id="Rectangle_27" data-name="Rectangle 27" width="0.536" height="70.551" transform="translate(39.008 -13.906) rotate(-44.5)" fill="#a4e817"/>
      <rect id="Rectangle_28" data-name="Rectangle 28" width="0.536" height="70.551" transform="translate(38.719 -13.666) rotate(-44.6)" fill="#a3e817"/>
      <rect id="Rectangle_29" data-name="Rectangle 29" width="0.536" height="70.551" transform="translate(38.555 -13.416) rotate(-44.5)" fill="#a1e817"/>
      <rect id="Rectangle_30" data-name="Rectangle 30" width="0.536" height="70.551" transform="translate(38.221 -13.191) rotate(-44.5)" fill="#a0e718"/>
      <rect id="Rectangle_31" data-name="Rectangle 31" width="0.536" height="70.551" transform="translate(38.013 -12.964) rotate(-44.5)" fill="#9fe718"/>
      <rect id="Rectangle_32" data-name="Rectangle 32" width="0.536" height="70.551" transform="translate(37.742 -12.674) rotate(-44.5)" fill="#9de718"/>
      <rect id="Rectangle_33" data-name="Rectangle 33" width="0.536" height="70.551" transform="translate(37.471 -12.474) rotate(-44.5)" fill="#9ce619"/>
      <rect id="Rectangle_34" data-name="Rectangle 34" width="0.536" height="70.551" transform="translate(37.289 -12.184) rotate(-44.5)" fill="#9be619"/>
      <rect id="Rectangle_35" data-name="Rectangle 35" width="0.536" height="70.551" transform="translate(37.018 -11.895) rotate(-44.5)" fill="#99e619"/>
      <rect id="Rectangle_36" data-name="Rectangle 36" width="0.536" height="70.551" transform="translate(36.747 -11.605) rotate(-44.5)" fill="#98e51a"/>
      <rect id="Rectangle_37" data-name="Rectangle 37" width="0.536" height="70.551" transform="translate(36.476 -11.405) rotate(-44.5)" fill="#96e51a"/>
      <rect id="Rectangle_38" data-name="Rectangle 38" width="0.536" height="70.551" transform="translate(36.142 -11.179) rotate(-44.5)" fill="#95e41b"/>
      <rect id="Rectangle_39" data-name="Rectangle 39" width="0.536" height="70.551" transform="translate(35.871 -10.89) rotate(-44.5)" fill="#94e41b"/>
      <rect id="Rectangle_40" data-name="Rectangle 40" width="0.536" height="70.551" transform="translate(35.6 -10.6) rotate(-44.5)" fill="#92e41b"/>
      <rect id="Rectangle_41" data-name="Rectangle 41" width="0.536" height="70.551" transform="translate(35.319 -10.36) rotate(-44.6)" fill="#91e31c"/>
      <rect id="Rectangle_42" data-name="Rectangle 42" width="0.536" height="70.551" transform="translate(35.049 -10.071) rotate(-44.6)" fill="#8fe31c"/>
      <rect id="Rectangle_43" data-name="Rectangle 43" width="0.536" height="70.551" transform="translate(34.842 -9.844) rotate(-44.6)" fill="#8ee31c"/>
      <rect id="Rectangle_44" data-name="Rectangle 44" width="0.536" height="70.551" transform="translate(34.668 -9.594) rotate(-44.5)" fill="#8de21d"/>
      <rect id="Rectangle_45" data-name="Rectangle 45" width="0.536" height="70.551" transform="translate(34.397 -9.305) rotate(-44.5)" fill="#8be21d"/>
      <rect id="Rectangle_46" data-name="Rectangle 46" width="0.536" height="70.551" transform="translate(34.063 -9.079) rotate(-44.5)" fill="#8ae21d"/>
      <rect id="Rectangle_47" data-name="Rectangle 47" width="0.536" height="70.551" transform="translate(33.786 -8.839) rotate(-44.6)" fill="#88e11e"/>
      <rect id="Rectangle_48" data-name="Rectangle 48" width="0.536" height="70.551" transform="translate(33.61 -8.589) rotate(-44.5)" fill="#87e11e"/>
      <rect id="Rectangle_49" data-name="Rectangle 49" width="0.536" height="70.551" transform="translate(33.245 -8.26) rotate(-44.6)" fill="#86e11e"/>
      <rect id="Rectangle_50" data-name="Rectangle 50" width="0.536" height="70.551" transform="translate(32.975 -8.059) rotate(-44.6)" fill="#84e01f"/>
      <rect id="Rectangle_51" data-name="Rectangle 51" width="0.536" height="70.551" transform="translate(32.704 -7.77) rotate(-44.6)" fill="#83e01f"/>
      <rect id="Rectangle_52" data-name="Rectangle 52" width="0.536" height="70.551" transform="translate(32.523 -7.48) rotate(-44.6)" fill="#82e01f"/>
      <rect id="Rectangle_53" data-name="Rectangle 53" width="0.536" height="70.551" transform="translate(32.192 -7.295) rotate(-44.5)" fill="#80df20"/>
      <rect id="Rectangle_54" data-name="Rectangle 54" width="0.536" height="70.551" transform="translate(31.983 -7.117) rotate(-44.6)" fill="#7fdf20"/>
      <rect id="Rectangle_55" data-name="Rectangle 55" width="0.536" height="70.551" transform="translate(31.803 -6.778) rotate(-44.5)" fill="#7ddf20"/>
      <rect id="Rectangle_56" data-name="Rectangle 56" width="0.536" height="70.551" transform="translate(31.442 -6.538) rotate(-44.6)" fill="#7cde21"/>
      <rect id="Rectangle_57" data-name="Rectangle 57" width="0.536" height="70.551" transform="translate(31.26 -6.289) rotate(-44.5)" fill="#7bde21"/>
      <rect id="Rectangle_58" data-name="Rectangle 58" width="0.536" height="70.551" transform="translate(30.901 -5.959) rotate(-44.6)" fill="#79de21"/>
      <rect id="Rectangle_59" data-name="Rectangle 59" width="0.536" height="70.551" transform="translate(30.72 -5.759) rotate(-44.6)" fill="#78dd22"/>
      <rect id="Rectangle_60" data-name="Rectangle 60" width="0.536" height="70.551" transform="translate(30.449 -5.469) rotate(-44.6)" fill="#76dd22"/>
      <rect id="Rectangle_61" data-name="Rectangle 61" width="0.536" height="70.551" transform="translate(30.116 -5.243) rotate(-44.6)" fill="#75dd22"/>
      <rect id="Rectangle_62" data-name="Rectangle 62" width="0.536" height="70.551" transform="translate(29.931 -4.994) rotate(-44.5)" fill="#74dc23"/>
      <rect id="Rectangle_63" data-name="Rectangle 63" width="0.536" height="70.551" transform="translate(29.575 -4.753) rotate(-44.6)" fill="#72dc23"/>
      <rect id="Rectangle_64" data-name="Rectangle 64" width="0.536" height="70.551" transform="translate(29.389 -4.415) rotate(-44.5)" fill="#71db24"/>
      <rect id="Rectangle_65" data-name="Rectangle 65" width="0.536" height="70.551" transform="translate(29.187 -4.237) rotate(-44.6)" fill="#70db24"/>
      <rect id="Rectangle_66" data-name="Rectangle 66" width="0.536" height="70.551" transform="translate(28.91 -3.988) rotate(-44.5)" fill="#6edb24"/>
      <rect id="Rectangle_67" data-name="Rectangle 67" width="0.536" height="70.551" transform="translate(28.646 -3.658) rotate(-44.6)" fill="#6dda25"/>
      <rect id="Rectangle_68" data-name="Rectangle 68" width="0.536" height="70.551" transform="translate(28.395 -3.473) rotate(-44.5)" fill="#6bda25"/>
      <rect id="Rectangle_69" data-name="Rectangle 69" width="0.536" height="70.551" transform="translate(28.042 -3.232) rotate(-44.6)" fill="#6ada25"/>
      <rect id="Rectangle_70" data-name="Rectangle 70" width="0.536" height="70.551" transform="translate(27.772 -2.942) rotate(-44.6)" fill="#69d926"/>
      <rect id="Rectangle_71" data-name="Rectangle 71" width="0.536" height="70.551" transform="translate(27.581 -2.693) rotate(-44.5)" fill="#67d926"/>
      <rect id="Rectangle_72" data-name="Rectangle 72" width="0.536" height="70.551" transform="translate(27.31 -2.404) rotate(-44.5)" fill="#66d926"/>
      <rect id="Rectangle_73" data-name="Rectangle 73" width="0.536" height="70.551" transform="translate(27.039 -2.114) rotate(-44.5)" fill="#64d827"/>
      <rect id="Rectangle_74" data-name="Rectangle 74" width="0.536" height="70.551" transform="translate(26.857 -1.914) rotate(-44.5)" fill="#63d827"/>
      <rect id="Rectangle_75" data-name="Rectangle 75" width="0.536" height="70.551" transform="translate(26.586 -1.625) rotate(-44.5)" fill="#62d827"/>
      <rect id="Rectangle_76" data-name="Rectangle 76" width="0.536" height="70.551" transform="translate(26.175 -1.358) rotate(-44.6)" fill="#60d728"/>
      <rect id="Rectangle_77" data-name="Rectangle 77" width="0.536" height="70.551" transform="translate(26.045 -1.172) rotate(-44.5)" fill="#5fd728"/>
      <rect id="Rectangle_78" data-name="Rectangle 78" width="0.536" height="70.551" transform="translate(25.773 -0.882) rotate(-44.5)" fill="#5dd728"/>
      <rect id="Rectangle_79" data-name="Rectangle 79" width="0.536" height="70.551" transform="translate(25.502 -0.682) rotate(-44.5)" fill="#5cd629"/>
      <rect id="Rectangle_80" data-name="Rectangle 80" width="0.536" height="70.551" transform="translate(25.231 -0.393) rotate(-44.5)" fill="#5bd629"/>
      <rect id="Rectangle_81" data-name="Rectangle 81" width="0.536" height="70.551" transform="translate(25.049 -0.103) rotate(-44.5)" fill="#59d629"/>
      <rect id="Rectangle_82" data-name="Rectangle 82" width="0.536" height="70.551" transform="translate(24.778 0.186) rotate(-44.5)" fill="#58d52a"/>
      <rect id="Rectangle_83" data-name="Rectangle 83" width="0.536" height="70.551" transform="translate(24.507 0.386) rotate(-44.5)" fill="#57d52a"/>
      <rect id="Rectangle_84" data-name="Rectangle 84" width="0.536" height="70.551" transform="translate(24.173 0.612) rotate(-44.5)" fill="#55d52a"/>
      <rect id="Rectangle_85" data-name="Rectangle 85" width="0.536" height="70.551" transform="translate(23.902 0.902) rotate(-44.5)" fill="#54d42b"/>
      <rect id="Rectangle_86" data-name="Rectangle 86" width="0.536" height="70.551" transform="translate(23.631 1.191) rotate(-44.5)" fill="#52d42b"/>
      <rect id="Rectangle_87" data-name="Rectangle 87" width="0.536" height="70.551" transform="translate(23.449 1.481) rotate(-44.5)" fill="#51d32c"/>
      <rect id="Rectangle_88" data-name="Rectangle 88" width="0.536" height="70.551" transform="translate(23.242 1.618) rotate(-44.5)" fill="#50d32c"/>
      <rect id="Rectangle_89" data-name="Rectangle 89" width="0.536" height="70.551" transform="translate(22.97 1.908) rotate(-44.5)" fill="#4ed32c"/>
      <rect id="Rectangle_90" data-name="Rectangle 90" width="0.536" height="70.551" transform="translate(22.699 2.197) rotate(-44.5)" fill="#4dd22d"/>
      <rect id="Rectangle_91" data-name="Rectangle 91" width="0.536" height="70.551" transform="translate(22.298 2.375) rotate(-44.6)" fill="#4bd22d"/>
      <rect id="Rectangle_92" data-name="Rectangle 92" width="0.536" height="70.551" transform="translate(22.094 2.623) rotate(-44.5)" fill="#4ad22d"/>
      <rect id="Rectangle_93" data-name="Rectangle 93" width="0.536" height="70.551" transform="translate(21.823 2.913) rotate(-44.5)" fill="#49d12e"/>
      <rect id="Rectangle_94" data-name="Rectangle 94" width="0.536" height="70.551" transform="translate(21.641 3.202) rotate(-44.5)" fill="#47d12e"/>
      <rect id="Rectangle_95" data-name="Rectangle 95" width="0.536" height="70.551" transform="translate(21.37 3.492) rotate(-44.5)" fill="#46d12e"/>
      <rect id="Rectangle_96" data-name="Rectangle 96" width="0.536" height="70.551" transform="translate(21.035 3.733) rotate(-44.6)" fill="#44d02f"/>
      <rect id="Rectangle_97" data-name="Rectangle 97" width="0.536" height="70.551" transform="translate(20.828 3.982) rotate(-44.5)" fill="#43d02f"/>
      <rect id="Rectangle_98" data-name="Rectangle 98" width="0.536" height="70.551" transform="translate(20.494 4.312) rotate(-44.6)" fill="#42d02f"/>
      <rect id="Rectangle_99" data-name="Rectangle 99" width="0.536" height="70.551" transform="translate(20.223 4.497) rotate(-44.5)" fill="#40cf30"/>
      <rect id="Rectangle_100" data-name="Rectangle 100" width="0.536" height="70.551" transform="translate(20.043 4.675) rotate(-44.6)" fill="#3fcf30"/>
      <rect id="Rectangle_101" data-name="Rectangle 101" width="0.536" height="70.551" transform="translate(19.834 4.924) rotate(-44.5)" fill="#3ecf30"/>
      <rect id="Rectangle_102" data-name="Rectangle 102" width="0.536" height="70.551" transform="translate(19.502 5.254) rotate(-44.6)" fill="#3cce31"/>
      <rect id="Rectangle_103" data-name="Rectangle 103" width="0.536" height="70.551" transform="translate(19.291 5.503) rotate(-44.5)" fill="#3bce31"/>
      <rect id="Rectangle_104" data-name="Rectangle 104" width="0.536" height="70.551" transform="translate(18.961 5.833) rotate(-44.6)" fill="#39ce31"/>
      <rect id="Rectangle_105" data-name="Rectangle 105" width="0.536" height="70.551" transform="translate(18.691 6.034) rotate(-44.6)" fill="#38cd32"/>
      <rect id="Rectangle_106" data-name="Rectangle 106" width="0.536" height="70.551" transform="translate(18.51 6.323) rotate(-44.6)" fill="#37cd32"/>
      <rect id="Rectangle_107" data-name="Rectangle 107" width="0.536" height="70.551" transform="translate(18.176 6.549) rotate(-44.6)" fill="#35cd32"/>
      <rect id="Rectangle_108" data-name="Rectangle 108" width="0.536" height="70.551" transform="translate(17.962 6.798) rotate(-44.5)" fill="#34cc33"/>
      <rect id="Rectangle_109" data-name="Rectangle 109" width="0.536" height="70.551" transform="translate(17.635 7.039) rotate(-44.6)" fill="#33cb33"/>
      <rect id="Rectangle_110" data-name="Rectangle 110" width="0.536" height="70.551" transform="translate(17.42 7.377) rotate(-44.5)" fill="#32ca33"/>
      <rect id="Rectangle_111" data-name="Rectangle 111" width="0.536" height="70.551" transform="translate(17.158 7.555) rotate(-44.6)" fill="#32c933"/>
      <rect id="Rectangle_112" data-name="Rectangle 112" width="0.536" height="70.551" transform="translate(16.941 7.804) rotate(-44.5)" fill="#32c833"/>
      <rect id="Rectangle_113" data-name="Rectangle 113" width="0.536" height="70.551" transform="translate(16.706 8.134) rotate(-44.6)" fill="#31c733"/>
      <rect id="Rectangle_114" data-name="Rectangle 114" width="0.536" height="70.551" transform="translate(16.373 8.271) rotate(-44.6)" fill="#31c533"/>
      <rect id="Rectangle_115" data-name="Rectangle 115" width="0.536" height="70.551" transform="translate(16.103 8.56) rotate(-44.6)" fill="#30c433"/>
      <rect id="Rectangle_116" data-name="Rectangle 116" width="0.536" height="70.551" transform="translate(15.883 8.809) rotate(-44.5)" fill="#30c333"/>
      <rect id="Rectangle_117" data-name="Rectangle 117" width="0.536" height="70.551" transform="translate(15.612 9.098) rotate(-44.5)" fill="#30c233"/>
      <rect id="Rectangle_118" data-name="Rectangle 118" width="0.536" height="70.551" transform="translate(15.291 9.339) rotate(-44.6)" fill="#2fc033"/>
      <rect id="Rectangle_119" data-name="Rectangle 119" width="0.536" height="70.551" transform="translate(15.07 9.677) rotate(-44.5)" fill="#2fbf33"/>
      <rect id="Rectangle_120" data-name="Rectangle 120" width="0.536" height="70.551" transform="translate(14.839 9.918) rotate(-44.6)" fill="#2ebe33"/>
      <rect id="Rectangle_121" data-name="Rectangle 121" width="0.536" height="70.551" transform="translate(14.617 10.167) rotate(-44.5)" fill="#2ebd33"/>
      <rect id="Rectangle_122" data-name="Rectangle 122" width="0.536" height="70.551" transform="translate(14.283 10.393) rotate(-44.5)" fill="#2dbb33"/>
      <rect id="Rectangle_123" data-name="Rectangle 123" width="0.536" height="70.551" transform="translate(14.029 10.571) rotate(-44.6)" fill="#2dba33"/>
      <rect id="Rectangle_124" data-name="Rectangle 124" width="0.536" height="70.551" transform="translate(13.758 10.861) rotate(-44.6)" fill="#2db933"/>
      <rect id="Rectangle_125" data-name="Rectangle 125" width="0.536" height="70.551" transform="translate(13.533 11.109) rotate(-44.5)" fill="#2cb733"/>
      <rect id="Rectangle_126" data-name="Rectangle 126" width="0.536" height="70.551" transform="translate(13.262 11.399) rotate(-44.5)" fill="#2cb633"/>
      <rect id="Rectangle_127" data-name="Rectangle 127" width="0.536" height="70.551" transform="translate(13.08 11.688) rotate(-44.5)" fill="#2bb533"/>
      <rect id="Rectangle_128" data-name="Rectangle 128" width="0.536" height="70.551" transform="translate(12.809 11.978) rotate(-44.5)" fill="#2bb433"/>
      <rect id="Rectangle_129" data-name="Rectangle 129" width="0.536" height="70.551" transform="translate(12.476 12.114) rotate(-44.5)" fill="#2bb333"/>
      <rect id="Rectangle_130" data-name="Rectangle 130" width="0.536" height="70.551" transform="translate(12.204 12.404) rotate(-44.5)" fill="#2ab133"/>
      <rect id="Rectangle_131" data-name="Rectangle 131" width="0.536" height="70.551" transform="translate(11.933 12.693) rotate(-44.5)" fill="#2ab033"/>
      <rect id="Rectangle_132" data-name="Rectangle 132" width="0.536" height="70.551" transform="translate(11.662 12.983) rotate(-44.5)" fill="#29af33"/>
      <rect id="Rectangle_133" data-name="Rectangle 133" width="0.536" height="70.551" transform="translate(11.35 13.224) rotate(-44.6)" fill="#29ae33"/>
      <rect id="Rectangle_134" data-name="Rectangle 134" width="0.536" height="70.551" transform="translate(11.273 13.41) rotate(-44.5)" fill="#28ac33"/>
      <rect id="Rectangle_135" data-name="Rectangle 135" width="0.536" height="70.551" transform="translate(11.002 13.7) rotate(-44.5)" fill="#28ab33"/>
      <rect id="Rectangle_136" data-name="Rectangle 136" width="0.536" height="70.551" transform="translate(10.73 13.989) rotate(-44.5)" fill="#28aa33"/>
      <rect id="Rectangle_137" data-name="Rectangle 137" width="0.536" height="70.551" transform="translate(10.397 14.215) rotate(-44.5)" fill="#27a933"/>
      <rect id="Rectangle_138" data-name="Rectangle 138" width="0.536" height="70.551" transform="translate(10.126 14.415) rotate(-44.5)" fill="#27a733"/>
      <rect id="Rectangle_139" data-name="Rectangle 139" width="0.536" height="70.551" transform="translate(9.818 14.746) rotate(-44.6)" fill="#26a633"/>
      <rect id="Rectangle_140" data-name="Rectangle 140" width="0.536" height="70.551" transform="translate(9.673 14.994) rotate(-44.5)" fill="#26a533"/>
      <rect id="Rectangle_141" data-name="Rectangle 141" width="0.536" height="70.551" transform="translate(9.401 15.284) rotate(-44.5)" fill="#26a433"/>
      <rect id="Rectangle_142" data-name="Rectangle 142" width="0.536" height="70.551" transform="translate(9.095 15.525) rotate(-44.6)" fill="#25a233"/>
      <rect id="Rectangle_143" data-name="Rectangle 143" width="0.536" height="70.551" transform="translate(8.859 15.773) rotate(-44.5)" fill="#25a133"/>
      <rect id="Rectangle_144" data-name="Rectangle 144" width="0.536" height="70.551" transform="translate(8.554 16.104) rotate(-44.6)" fill="#24a033"/>
      <rect id="Rectangle_145" data-name="Rectangle 145" width="0.536" height="70.551" transform="translate(8.254 16.289) rotate(-44.5)" fill="#249f33"/>
      <rect id="Rectangle_146" data-name="Rectangle 146" width="0.536" height="70.551" transform="translate(8.014 16.467) rotate(-44.6)" fill="#239d33"/>
      <rect id="Rectangle_147" data-name="Rectangle 147" width="0.536" height="70.551" transform="translate(7.865 16.716) rotate(-44.5)" fill="#239c33"/>
      <rect id="Rectangle_148" data-name="Rectangle 148" width="0.536" height="70.551" transform="translate(7.594 17.005) rotate(-44.5)" fill="#239b33"/>
      <rect id="Rectangle_149" data-name="Rectangle 149" width="0.536" height="70.551" transform="translate(7.322 17.295) rotate(-44.5)" fill="#229a33"/>
      <rect id="Rectangle_150" data-name="Rectangle 150" width="0.536" height="70.551" transform="translate(7.022 17.536) rotate(-44.6)" fill="#229833"/>
      <rect id="Rectangle_151" data-name="Rectangle 151" width="0.536" height="70.551" transform="translate(6.751 17.826) rotate(-44.6)" fill="#219733"/>
      <rect id="Rectangle_152" data-name="Rectangle 152" width="0.536" height="70.551" transform="translate(6.446 18.01) rotate(-44.5)" fill="#219633"/>
      <rect id="Rectangle_153" data-name="Rectangle 153" width="0.536" height="70.551" transform="translate(6.147 18.341) rotate(-44.6)" fill="#219533"/>
      <rect id="Rectangle_154" data-name="Rectangle 154" width="0.536" height="70.551" transform="translate(5.993 18.589) rotate(-44.5)" fill="#209333"/>
      <rect id="Rectangle_155" data-name="Rectangle 155" width="0.536" height="70.551" transform="translate(5.696 18.831) rotate(-44.6)" fill="#209233"/>
      <rect id="Rectangle_156" data-name="Rectangle 156" width="0.536" height="70.551" transform="translate(5.451 19.079) rotate(-44.5)" fill="#1f9133"/>
      <rect id="Rectangle_157" data-name="Rectangle 157" width="0.536" height="70.551" transform="translate(5.218 19.347) rotate(-44.6)" fill="#1f9033"/>
      <rect id="Rectangle_158" data-name="Rectangle 158" width="0.536" height="70.551" transform="translate(4.972 19.595) rotate(-44.5)" fill="#1e8e33"/>
      <rect id="Rectangle_159" data-name="Rectangle 159" width="0.536" height="70.551" transform="translate(4.677 19.837) rotate(-44.6)" fill="#1e8d33"/>
      <rect id="Rectangle_160" data-name="Rectangle 160" width="0.536" height="70.551" transform="translate(4.344 20.063) rotate(-44.6)" fill="#1e8c33"/>
      <rect id="Rectangle_161" data-name="Rectangle 161" width="0.536" height="70.551" transform="translate(4.163 20.352) rotate(-44.6)" fill="#1d8b33"/>
      <rect id="Rectangle_162" data-name="Rectangle 162" width="0.536" height="70.551" transform="translate(3.892 20.642) rotate(-44.6)" fill="#1d8933"/>
      <rect id="Rectangle_163" data-name="Rectangle 163" width="0.536" height="70.551" transform="translate(3.643 20.89) rotate(-44.5)" fill="#1c8833"/>
      <rect id="Rectangle_164" data-name="Rectangle 164" width="0.536" height="70.551" transform="translate(3.372 21.179) rotate(-44.5)" fill="#1c8733"/>
      <rect id="Rectangle_165" data-name="Rectangle 165" width="0.536" height="70.551" transform="translate(3.101 21.38) rotate(-44.5)" fill="#1b8533"/>
      <rect id="Rectangle_166" data-name="Rectangle 166" width="0.536" height="70.551" transform="translate(2.81 21.711) rotate(-44.6)" fill="#1b8433"/>
      <rect id="Rectangle_167" data-name="Rectangle 167" width="0.536" height="70.551" transform="translate(2.648 21.959) rotate(-44.5)" fill="#1b8333"/>
      <rect id="Rectangle_168" data-name="Rectangle 168" width="0.536" height="70.551" transform="translate(2.296 22.137) rotate(-44.6)" fill="#1a8233"/>
      <rect id="Rectangle_169" data-name="Rectangle 169" width="0.536" height="70.551" transform="translate(2.089 22.364) rotate(-44.6)" fill="#1a8133"/>
      <rect id="Rectangle_170" data-name="Rectangle 170" width="0.536" height="70.551" transform="translate(1.836 22.612) rotate(-44.5)" fill="#197f33"/>
      <rect id="Rectangle_171" data-name="Rectangle 171" width="0.536" height="70.551" transform="translate(1.565 22.901) rotate(-44.5)" fill="#197e33"/>
      <rect id="Rectangle_172" data-name="Rectangle 172" width="0.536" height="70.551" transform="translate(1.293 23.191) rotate(-44.5)" fill="#197d33"/>
      <rect id="Rectangle_173" data-name="Rectangle 173" width="0.536" height="70.551" transform="translate(1.112 23.48) rotate(-44.5)" fill="#187b33"/>
      <rect id="Rectangle_174" data-name="Rectangle 174" width="0.536" height="70.551" transform="translate(0.84 23.68) rotate(-44.5)" fill="#187a33"/>
      <rect id="Rectangle_175" data-name="Rectangle 175" width="0.536" height="70.551" transform="translate(0.507 23.906) rotate(-44.5)" fill="#177933"/>
      <rect id="Rectangle_176" data-name="Rectangle 176" width="0.536" height="70.551" transform="translate(0.236 24.196) rotate(-44.5)" fill="#177833"/>
      <rect id="Rectangle_177" data-name="Rectangle 177" width="0.536" height="70.551" transform="translate(-0.036 24.485) rotate(-44.5)" fill="#167633"/>
      <rect id="Rectangle_178" data-name="Rectangle 178" width="0.536" height="70.551" transform="translate(-0.319 24.727) rotate(-44.6)" fill="#167533"/>
      <rect id="Rectangle_179" data-name="Rectangle 179" width="0.536" height="70.551" transform="translate(-0.578 24.975) rotate(-44.5)" fill="#167433"/>
      <rect id="Rectangle_180" data-name="Rectangle 180" width="0.536" height="70.551" transform="translate(-0.696 25.202) rotate(-44.5)" fill="#157333"/>
      <rect id="Rectangle_181" data-name="Rectangle 181" width="0.536" height="70.551" transform="translate(-1.067 25.533) rotate(-44.6)" fill="#157233"/>
      <rect id="Rectangle_182" data-name="Rectangle 182" width="0.536" height="70.551" transform="translate(-1.238 25.781) rotate(-44.5)" fill="#147033"/>
      <rect id="Rectangle_183" data-name="Rectangle 183" width="0.536" height="70.551" transform="translate(-1.572 26.007) rotate(-44.5)" fill="#146f33"/>
      <rect id="Rectangle_184" data-name="Rectangle 184" width="0.536" height="70.551" transform="translate(-1.843 26.207) rotate(-44.5)" fill="#146e33"/>
      <rect id="Rectangle_185" data-name="Rectangle 185" width="0.536" height="70.551" transform="translate(-2.114 26.496) rotate(-44.5)" fill="#136d33"/>
      <rect id="Rectangle_186" data-name="Rectangle 186" width="0.536" height="70.551" transform="translate(-2.296 26.786) rotate(-44.5)" fill="#136b33"/>
      <rect id="Rectangle_187" data-name="Rectangle 187" width="0.536" height="70.551" transform="translate(-2.663 27.028) rotate(-44.6)" fill="#126a33"/>
      <rect id="Rectangle_188" data-name="Rectangle 188" width="0.536" height="70.551" transform="translate(-2.844 27.317) rotate(-44.6)" fill="#126933"/>
      <rect id="Rectangle_189" data-name="Rectangle 189" width="0.536" height="70.551" transform="translate(-3.11 27.565) rotate(-44.5)" fill="#126833"/>
      <rect id="Rectangle_190" data-name="Rectangle 190" width="0.536" height="70.551" transform="translate(-3.381 27.855) rotate(-44.5)" fill="#163"/>
      <rect id="Rectangle_191" data-name="Rectangle 191" width="0.536" height="70.551" transform="translate(-3.715 28.08) rotate(-44.5)" fill="#116533"/>
      <rect id="Rectangle_192" data-name="Rectangle 192" width="0.536" height="70.551" transform="translate(-3.925 28.26) rotate(-44.6)" fill="#106433"/>
      <rect id="Rectangle_193" data-name="Rectangle 193" width="0.536" height="70.551" transform="translate(-4.104 28.507) rotate(-44.5)" fill="#106333"/>
      <rect id="Rectangle_194" data-name="Rectangle 194" width="0.536" height="70.551" transform="translate(-4.466 28.839) rotate(-44.6)" fill="#0f6133"/>
      <rect id="Rectangle_195" data-name="Rectangle 195" width="0.536" height="70.551" transform="translate(-4.646 29.086) rotate(-44.5)" fill="#0f6033"/>
      <rect id="Rectangle_196" data-name="Rectangle 196" width="0.536" height="70.551" transform="translate(-4.918 29.376) rotate(-44.5)" fill="#0f5f33"/>
      <rect id="Rectangle_197" data-name="Rectangle 197" width="0.536" height="70.551" transform="translate(-5.189 29.618) rotate(-44.6)" fill="#0e5d33"/>
      <rect id="Rectangle_198" data-name="Rectangle 198" width="0.536" height="70.551" transform="translate(-5.522 29.802) rotate(-44.5)" fill="#0e5c33"/>
      <rect id="Rectangle_199" data-name="Rectangle 199" width="0.536" height="70.551" transform="translate(-5.792 30.133) rotate(-44.6)" fill="#0d5b33"/>
      <rect id="Rectangle_200" data-name="Rectangle 200" width="0.536" height="70.551" transform="translate(-5.975 30.381) rotate(-44.5)" fill="#0d5a33"/>
      <rect id="Rectangle_201" data-name="Rectangle 201" width="0.536" height="70.551" transform="translate(-6.333 30.623) rotate(-44.6)" fill="#0d5933"/>
      <rect id="Rectangle_202" data-name="Rectangle 202" width="0.536" height="70.551" transform="translate(-6.518 30.871) rotate(-44.5)" fill="#0c5733"/>
      <rect id="Rectangle_203" data-name="Rectangle 203" width="0.536" height="70.551" transform="translate(-6.721 31.139) rotate(-44.6)" fill="#0c5633"/>
      <rect id="Rectangle_204" data-name="Rectangle 204" width="0.536" height="70.551" transform="translate(-6.996 31.387) rotate(-44.5)" fill="#0b5533"/>
      <rect id="Rectangle_205" data-name="Rectangle 205" width="0.536" height="70.551" transform="translate(-7.262 31.629) rotate(-44.6)" fill="#0b5333"/>
      <rect id="Rectangle_206" data-name="Rectangle 206" width="0.536" height="70.551" transform="translate(-7.595 31.855) rotate(-44.6)" fill="#0a5233"/>
      <rect id="Rectangle_207" data-name="Rectangle 207" width="0.536" height="70.551" transform="translate(-7.783 32.103) rotate(-44.5)" fill="#0a5133"/>
      <rect id="Rectangle_208" data-name="Rectangle 208" width="0.536" height="70.551" transform="translate(-8.136 32.434) rotate(-44.6)" fill="#0a5033"/>
      <rect id="Rectangle_209" data-name="Rectangle 209" width="0.536" height="70.551" transform="translate(-8.325 32.682) rotate(-44.5)" fill="#094e33"/>
      <rect id="Rectangle_210" data-name="Rectangle 210" width="0.536" height="70.551" transform="translate(-8.588 32.924) rotate(-44.6)" fill="#094d33"/>
      <rect id="Rectangle_211" data-name="Rectangle 211" width="0.536" height="70.551" transform="translate(-8.868 33.171) rotate(-44.5)" fill="#084c33"/>
      <rect id="Rectangle_212" data-name="Rectangle 212" width="0.536" height="70.551" transform="translate(-9.139 33.461) rotate(-44.5)" fill="#084b33"/>
      <rect id="Rectangle_213" data-name="Rectangle 213" width="0.536" height="70.551" transform="translate(-9.383 33.687) rotate(-44.5)" fill="#084a33"/>
      <rect id="Rectangle_214" data-name="Rectangle 214" width="0.536" height="70.551" transform="translate(-9.733 33.929) rotate(-44.6)" fill="#074833"/>
      <rect id="Rectangle_215" data-name="Rectangle 215" width="0.536" height="70.551" transform="translate(-9.94 34.156) rotate(-44.6)" fill="#074733"/>
      <rect id="Rectangle_216" data-name="Rectangle 216" width="0.536" height="70.551" transform="translate(-10.133 34.403) rotate(-44.5)" fill="#064633"/>
      <rect id="Rectangle_217" data-name="Rectangle 217" width="0.536" height="70.551" transform="translate(-10.404 34.693) rotate(-44.5)" fill="#064533"/>
      <rect id="Rectangle_218" data-name="Rectangle 218" width="0.536" height="70.551" transform="translate(-10.675 34.982) rotate(-44.5)" fill="#054333"/>
      <rect id="Rectangle_219" data-name="Rectangle 219" width="0.536" height="70.551" transform="translate(-10.947 35.272) rotate(-44.5)" fill="#054233"/>
      <rect id="Rectangle_220" data-name="Rectangle 220" width="0.536" height="70.551" transform="translate(-11.128 35.472) rotate(-44.5)" fill="#054133"/>
      <rect id="Rectangle_221" data-name="Rectangle 221" width="0.536" height="70.551" transform="translate(-11.536 35.74) rotate(-44.6)" fill="#044033"/>
      <rect id="Rectangle_222" data-name="Rectangle 222" width="0.536" height="70.551" transform="translate(-11.733 35.987) rotate(-44.5)" fill="#043e33"/>
      <rect id="Rectangle_223" data-name="Rectangle 223" width="0.536" height="70.551" transform="translate(-12.005 36.277) rotate(-44.5)" fill="#033d33"/>
      <rect id="Rectangle_224" data-name="Rectangle 224" width="0.536" height="70.551" transform="translate(-12.258 36.519) rotate(-44.6)" fill="#033c33"/>
      <rect id="Rectangle_225" data-name="Rectangle 225" width="0.536" height="70.551" transform="translate(-12.547 36.767) rotate(-44.5)" fill="#033b33"/>
      <rect id="Rectangle_226" data-name="Rectangle 226" width="0.536" height="70.551" transform="translate(-12.665 36.993) rotate(-44.5)" fill="#023933"/>
      <rect id="Rectangle_227" data-name="Rectangle 227" width="0.268" height="70.551" transform="translate(-12.59 36.951) rotate(-44.7)" fill="#023833"/>
    </g>
  </g>
</svg>
