<svg id="home_1_" data-name="home (1)" xmlns="http://www.w3.org/2000/svg" width="25.359" height="23.772" viewBox="0 0 25.359 23.772">
  <g id="home">
    <path id="Path_10935" data-name="Path 10935" d="M59.118,207.021H42.278A2.281,2.281,0,0,1,40,204.742V192.755a.792.792,0,0,1,1.585,0v11.987a.694.694,0,0,0,.693.693h16.84a.694.694,0,0,0,.693-.693V192.755a.792.792,0,0,1,1.585,0v11.987A2.281,2.281,0,0,1,59.118,207.021Z" transform="translate(-38.019 -183.249)" fill="#143ed2"/>
    <path id="Path_10936" data-name="Path 10936" d="M24.566,28.3a.79.79,0,0,1-.56-.232L14.15,18.209a2.082,2.082,0,0,0-2.942,0L1.353,28.065A.792.792,0,0,1,.232,26.944l9.856-9.856a3.669,3.669,0,0,1,5.183,0l9.856,9.856a.792.792,0,0,1-.56,1.353Z" transform="translate(0 -16.017)" fill="#143ed2"/>
    <path id="Path_10937" data-name="Path 10937" d="M183.132,298.285h-6.34a.792.792,0,0,1-.792-.792v-7.033a2.479,2.479,0,0,1,2.476-2.476h2.972a2.479,2.479,0,0,1,2.476,2.476v7.033A.792.792,0,0,1,183.132,298.285Zm-5.547-1.585h4.755v-6.241a.893.893,0,0,0-.892-.891h-2.972a.893.893,0,0,0-.891.891Z" transform="translate(-167.283 -274.513)" fill="#143ed2"/>
  </g>
</svg>
