<svg id="Layer_1" enable-background="new 0 0 128 128" height="512" viewBox="0 0 128 128" width="512" xmlns="http://www.w3.org/2000/svg"><path d="m116.758 105.021c-1.424-.533-2.912-.597-4.293-.274l-5.257-7.31c.559-.964.903-2.046.986-3.189.143-1.982-.495-3.901-1.795-5.403-.208-.24-.432-.458-.662-.665l3.19-7.102c.084.003.169.009.253.009 1.786 0 3.493-.634 4.857-1.814 1.503-1.301 2.409-3.108 2.552-5.09s-.495-3.901-1.795-5.403c-1.3-1.503-3.108-2.409-5.09-2.552-1.983-.144-3.901.495-5.403 1.795-1.502 1.301-2.409 3.108-2.552 5.09s.495 3.901 1.795 5.403c.074.085.155.162.232.244l-3.385 7.535c-1.2.061-2.389.411-3.46 1.058.065-.893.11-1.791.11-2.701 0-15.693-9.867-29.541-24.629-34.687v-25.752c2.33-.325 4.135-2.311 4.135-4.729v-4.079c0-2.644-2.151-4.795-4.795-4.795h-22.9c-2.645 0-4.796 2.151-4.796 4.795v4.079c0 2.418 1.805 4.403 4.136 4.729v25.751c-5.105 1.78-9.624 4.601-13.353 8.179-.331-.087-.672-.149-1.031-.149h-18.492c-2.241 0-4.065 1.823-4.065 4.064v3.293c0 1.993 1.444 3.647 3.339 3.992v40.919c0 5.498 4.473 9.971 9.971 9.971 5.323 0 9.672-4.195 9.944-9.451 6.639 6.554 15.751 10.609 25.795 10.609 15.613 0 28.975-9.794 34.285-23.558.173.258.356.51.562.749 1.3 1.503 3.108 2.409 5.09 2.552.183.013.365.02.546.02.666 0 1.32-.089 1.95-.26l5.123 7.124c-.266.422-.494.876-.676 1.361-1.439 3.841.516 8.137 4.357 9.576.857.321 1.736.473 2.602.473 3.014 0 5.857-1.846 6.975-4.831 1.44-3.842-.515-8.138-4.356-9.576z" fill="#e6e7e8"/><path d="m24.561 44.491c-2.855 0-5.179 2.323-5.179 5.179s2.323 5.178 5.179 5.178 5.179-2.323 5.179-5.178-2.324-5.179-5.179-5.179z" fill="#e6e7e8"/><circle cx="24.561" cy="23.279" fill="#e6e7e8" r="5.179"/><circle cx="15.59" cy="37.854" fill="#e6e7e8" r="5.179"/><path d="m67.41 46.681v-27.402h-22.22v27.402c-14.297 4.674-24.629 18.111-24.629 33.969 0 19.738 16.001 35.739 35.739 35.739s35.74-16 35.74-35.738c0-15.858-10.333-29.296-24.63-33.97z" fill="#fff"/><path d="m21.309 73.484c-.473 2.318-.748 4.709-.748 7.167 0 19.738 16.001 35.739 35.739 35.739s35.74-16.001 35.74-35.739c0-2.458-.276-4.849-.749-7.167z" fill="#fa759e"/><path d="m56.3 113.39c-13.955 0-26.12-7.27-32.578-18.048 5.605 12.408 18.078 21.048 32.578 21.048s26.973-8.64 32.578-21.048c-6.457 10.778-18.623 18.048-32.578 18.048z" fill="#fff"/><path d="m67.75 19.279h-22.9c-2.096 0-3.795-1.699-3.795-3.795v-4.078c0-2.096 1.699-3.795 3.795-3.795h22.9c2.096 0 3.795 1.699 3.795 3.795v4.078c.001 2.096-1.698 3.795-3.795 3.795z" fill="#fff"/><path d="m11.59 64.416v41.845c0 4.954 4.016 8.971 8.971 8.971 4.954 0 8.971-4.016 8.971-8.971v-41.845z" fill="#fff"/><path d="m11.59 86.877v19.385c0 4.954 4.016 8.971 8.971 8.971 4.954 0 8.971-4.016 8.971-8.971v-19.385z" fill="#0089ef"/><path d="m29.806 64.416h-18.49c-1.693 0-3.065-1.372-3.065-3.065v-3.293c0-1.693 1.372-3.065 3.065-3.065h18.491c1.693 0 3.065 1.372 3.065 3.065v3.293c-.001 1.693-1.373 3.065-3.066 3.065z" fill="#fff"/><path d="m108.059 101.896-6.062-8.429c-.288.401-.621.777-1.011 1.114-.572.495-1.208.864-1.874 1.124l5.972 8.304c.776-.987 1.815-1.714 2.975-2.113z" fill="#ffd7e5"/><path d="m100.975 74.525-3.935 8.76c1.227.051 2.434.451 3.466 1.188l3.797-8.453c-1.204-.162-2.363-.664-3.328-1.495z" fill="#ffd7e5"/><path d="m90.719 91.893c-.425-1.182-.491-2.453-.208-3.657l-8.943 1.304c.528 1.143.698 2.398.525 3.611z" fill="#ffd7e5"/><circle cx="96.773" cy="89.713" fill="#fff" r="6.439"/><circle cx="96.773" cy="89.713" fill="#6dc9f7" r="6.439"/><circle cx="110.148" cy="107.987" fill="#6dc9f7" r="6.439"/><circle cx="105.167" cy="69.646" fill="#6dc9f7" r="6.439"/><circle cx="75.724" cy="92.236" fill="#6dc9f7" r="6.439"/><circle cx="20.561" cy="45.669" fill="#0089ef" r="4.179"/><circle cx="20.561" cy="19.279" fill="#0089ef" r="4.179"/><circle cx="11.59" cy="33.854" fill="#0089ef" r="4.179"/><g fill="#3a2c60"><path d="m29.532 82.584c-.552 0-1 .448-1 1v8.292c0 .552.448 1 1 1s1-.448 1-1v-8.292c0-.552-.448-1-1-1z"/><path d="m116.92 104.906c-.823-1.809-2.301-3.189-4.162-3.886-1.425-.534-2.912-.598-4.294-.274l-5.257-7.309c.559-.964.903-2.046.986-3.189.143-1.982-.495-3.901-1.795-5.403-.208-.24-.432-.458-.663-.665l3.19-7.102c.084.003.169.009.253.009 1.786 0 3.493-.634 4.857-1.815 3.102-2.685 3.441-7.392.757-10.493-2.684-3.102-7.392-3.442-10.494-.757-1.502 1.301-2.409 3.108-2.551 5.09-.143 1.982.495 3.901 1.795 5.403.074.086.155.162.233.244l-3.384 7.535c-1.202.061-2.393.412-3.465 1.061.067-.894.114-1.793.114-2.703 0-15.693-9.867-29.541-24.629-34.687v-25.752c2.33-.325 4.136-2.311 4.136-4.729v-4.079c0-2.644-2.151-4.795-4.795-4.795h-22.9c-2.644 0-4.795 2.151-4.795 4.795v4.079c0 2.418 1.806 4.404 4.136 4.729v25.751c-5.102 1.778-9.6 4.613-13.325 8.188-.34-.092-.69-.158-1.059-.158h-18.494c-2.241 0-4.064 1.823-4.064 4.064v3.293c0 1.993 1.444 3.647 3.339 3.991v40.919c0 5.498 4.473 9.971 9.971 9.971 5.329 0 9.681-4.205 9.945-9.469 6.639 6.56 15.746 10.626 25.794 10.626 15.615 0 28.974-9.796 34.283-23.562.172.259.356.512.565.753 1.301 1.502 3.108 2.409 5.09 2.551.183.013.365.02.546.02.666 0 1.32-.089 1.95-.26l5.123 7.124c-.266.422-.494.876-.676 1.361-1.439 3.841.516 8.137 4.357 9.576.857.321 1.736.473 2.601.473 3.014 0 5.857-1.846 6.975-4.831.698-1.858.629-3.879-.194-5.688zm-18.424-22.42 2.891-6.437c.474.281.978.505 1.505.674l-2.837 6.314c-.5-.245-1.024-.424-1.559-.551zm3.11-16.952c.998-.864 2.246-1.327 3.552-1.327.133 0 .266.004.399.014 1.449.104 2.771.767 3.722 1.866 1.962 2.268 1.714 5.709-.553 7.673-1.099.951-2.498 1.414-3.951 1.312-1.449-.104-2.771-.767-3.721-1.866-.951-1.099-1.417-2.502-1.312-3.951s.766-2.771 1.864-3.721zm-18.452 26.452c-.018-.549-.102-1.095-.241-1.631l6.438-.939c-.022.535.015 1.071.109 1.602-.005.017-.012.034-.018.052zm-2.004.641c-.104 1.449-.767 2.771-1.865 3.722-2.268 1.963-5.71 1.715-7.673-.553-.951-1.099-1.417-2.502-1.312-3.951.104-1.449.767-2.771 1.866-3.722.998-.863 2.246-1.327 3.552-1.327.132 0 .266.004.399.014 1.449.104 2.771.767 3.722 1.866.949 1.099 1.415 2.503 1.311 3.951zm-39.095-77.143v-4.079c0-1.542 1.254-2.795 2.795-2.795h22.9c1.542 0 2.795 1.254 2.795 2.795v4.079c0 1.542-1.254 2.795-2.795 2.795h-22.9c-1.541 0-2.795-1.254-2.795-2.795zm-32.804 45.868v-3.293c0-1.138.926-2.064 2.064-2.064h18.491c1.139 0 2.065.926 2.065 2.064v3.293c0 1.138-.926 2.064-2.065 2.064h-18.491c-1.138 0-2.064-.926-2.064-2.064zm47.049 54.038c-10.214 0-19.407-4.437-25.769-11.478v-7.676c0-.552-.448-1-1-1s-1 .448-1 1v10.025c0 4.395-3.576 7.971-7.971 7.971s-7.971-3.576-7.971-7.971v-12.092h6.754c.552 0 1-.448 1-1s-.448-1-1-1h-6.753v-4.292h6.754c.552 0 1-.448 1-1s-.448-1-1-1h-6.754v-4.292h6.754c.552 0 1-.448 1-1s-.448-1-1-1h-6.754v-4.293h6.754c.552 0 1-.448 1-1s-.448-1-1-1h-6.754v-7.875h15.941v13.875c0 .552.448 1 1 1s1-.448 1-1v-13.949c1.895-.344 3.339-1.998 3.339-3.991v-3.293c0-1.118-.454-2.131-1.187-2.866 3.596-3.339 7.922-5.96 12.816-7.56.411-.135.689-.518.689-.951v-26.403h20.22v4.818h-8.892c-.552 0-1 .448-1 1s.448 1 1 1h8.892v4.491h-8.892c-.552 0-1 .448-1 1s.448 1 1 1h8.892v4.492h-8.892c-.552 0-1 .448-1 1s.448 1 1 1h8.892v6.602c0 .433.278.816.689.951 14.319 4.68 23.94 17.95 23.94 33.019 0 1.62-.12 3.212-.336 4.773-.421.596-.745 1.241-.971 1.915l-7.612 1.11c-.223-.376-.475-.739-.771-1.081-1.3-1.503-3.108-2.409-5.09-2.552-1.984-.146-3.901.494-5.403 1.795s-2.409 3.108-2.552 5.09.495 3.901 1.795 5.403c1.469 1.698 3.544 2.567 5.63 2.567 1.726 0 3.46-.596 4.864-1.811 1.202-1.04 1.983-2.385 2.341-3.821l5.75-.839c-5.042 12.969-17.651 22.189-32.382 22.189zm40.081-20.252c-1.449-.104-2.771-.767-3.721-1.865-1.963-2.268-1.715-5.71.552-7.673 1.027-.889 2.294-1.324 3.556-1.324 1.525 0 3.042.636 4.117 1.877.951 1.099 1.417 2.502 1.312 3.951-.104 1.449-.767 2.771-1.866 3.722s-2.5 1.423-3.95 1.312zm5.26.2c.098-.085.186-.177.279-.266l4.618 6.421c-.48.267-.932.586-1.345.954l-4.577-6.365c.358-.217.702-.464 1.025-.744zm13.601 14.557c-1.052 2.809-4.194 4.239-7.002 3.186-2.809-1.052-4.238-4.193-3.186-7.002.817-2.182 2.896-3.531 5.1-3.531.632 0 1.276.111 1.902.346 1.36.509 2.441 1.519 3.043 2.841s.653 2.8.143 4.16z"/><path d="m20.561 40.491c-2.855 0-5.179 2.323-5.179 5.179s2.323 5.179 5.179 5.179 5.179-2.323 5.179-5.179-2.323-5.179-5.179-5.179zm0 8.357c-1.753 0-3.179-1.426-3.179-3.179s1.426-3.179 3.179-3.179 3.179 1.426 3.179 3.179-1.426 3.179-3.179 3.179z"/><path d="m20.561 24.458c2.855 0 5.179-2.323 5.179-5.179s-2.323-5.179-5.179-5.179-5.179 2.323-5.179 5.179 2.324 5.179 5.179 5.179zm0-8.357c1.753 0 3.179 1.426 3.179 3.179s-1.426 3.179-3.179 3.179-3.179-1.426-3.179-3.179 1.426-3.179 3.179-3.179z"/><path d="m11.59 39.033c2.855 0 5.179-2.323 5.179-5.179s-2.323-5.179-5.179-5.179-5.179 2.323-5.179 5.179 2.324 5.179 5.179 5.179zm0-8.358c1.753 0 3.179 1.426 3.179 3.179s-1.426 3.179-3.179 3.179-3.179-1.426-3.179-3.179 1.426-3.179 3.179-3.179z"/></g></svg>