<svg height="491pt" viewBox="-1 0 491 491.50913" width="491pt" xmlns="http://www.w3.org/2000/svg"><path d="m436.359375 4.027344-56.597656 8.785156c-1.714844.265625-2.566407 2.226562-1.589844 3.660156l11.253906 16.53125-340.613281 238.742188c-2.714844 1.902344-3.375 5.644531-1.472656 8.359375 1.167968 1.664062 3.027344 2.554687 4.917968 2.554687 1.191407 0 2.390626-.351562 3.4375-1.085937l340.480469-238.648438 9.664063 14.195313c.976562 1.433594 3.109375 1.359375 3.988281-.136719l28.929687-49.433594c1.003907-1.714843-.433593-3.828125-2.398437-3.523437zm0 0" fill="#6bdddd"/><path d="m52.261719 286.660156c-3.261719 0-6.328125-1.59375-8.195313-4.261718-1.53125-2.183594-2.121094-4.839844-1.660156-7.46875.460938-2.628907 1.921875-4.925782 4.109375-6.457032l337.382813-236.476562-9.035157-13.273438c-1.234375-1.8125-1.449219-4.09375-.578125-6.109375.871094-2.011719 2.6875-3.414062 4.855469-3.753906l56.601563-8.7851562c2.445312-.3671878 4.839843.6562502 6.234374 2.7070312 1.394532 2.050781 1.480469 4.652344.230469 6.792969l-28.929687 49.429687c-1.109375 1.894532-3.078125 3.070313-5.273438 3.144532-2.195312.101562-4.238281-.960938-5.472656-2.777344l-7.378906-10.84375-337.15625 236.324218c-1.691406 1.179688-3.675782 1.808594-5.734375 1.808594zm330.675781-270.292968 9.792969 14.386718c1.230469 1.808594.777343 4.269532-1.011719 5.527344l-340.613281 238.738281c-.589844.414063-.765625.988281-.820313 1.292969-.054687.304688-.082031.902344.332032 1.492188.378906.542968.976562.855468 1.640624.855468.285157 0 .714844-.0625 1.144532-.363281l340.476562-238.644531c.878906-.613282 1.96875-.847656 3.019532-.660156 1.050781.191406 1.980468.800781 2.585937 1.683593l8.199219 12.050781 25.878906-44.214843zm54.03125-8.386719-.007812.003906c.003906-.003906.003906-.003906.007812-.003906zm0 0" fill="#3762cc"/><path d="m92.625 413.824219h-80.742188c-4.210937 0-7.628906-3.417969-7.628906-7.632813v-82.984375c0-4.214843 3.417969-7.632812 7.628906-7.632812h80.742188c4.214844 0 7.628906 3.417969 7.628906 7.632812v82.984375c0 4.214844-3.414062 7.632813-7.628906 7.632813zm0 0" fill="#f9a7a7"/><path d="m220.625 414.15625h-80.742188c-4.210937 0-7.628906-3.417969-7.628906-7.632812v-155.761719c0-4.214844 3.417969-7.628907 7.628906-7.628907h80.742188c4.214844 0 7.628906 3.414063 7.628906 7.628907v155.761719c0 4.214843-3.414062 7.632812-7.628906 7.632812zm0 0" fill="#f9cfcf"/><path d="m348.625 414.15625h-80.742188c-4.210937 0-7.628906-3.417969-7.628906-7.632812v-225.78125c0-4.214844 3.417969-7.632813 7.628906-7.632813h80.742188c4.214844 0 7.628906 3.417969 7.628906 7.632813v225.78125c0 4.214843-3.414062 7.632812-7.628906 7.632812zm0 0" fill="#a4c9ff"/><path d="m476.625 414.320312h-80.742188c-4.210937 0-7.628906-3.417968-7.628906-7.632812v-290.398438c0-4.214843 3.417969-7.628906 7.628906-7.628906h80.742188c4.214844 0 7.628906 3.414063 7.628906 7.628906v290.398438c0 4.214844-3.414062 7.632812-7.628906 7.632812zm0 0" fill="#4671c6"/><g fill="#3762cc"><path d="m92.625 417.824219h-80.742188c-6.414062 0-11.628906-5.21875-11.628906-11.628907v-82.988281c0-6.410156 5.214844-11.628906 11.628906-11.628906h80.742188c6.414062 0 11.628906 5.21875 11.628906 11.628906v82.988281c0 6.410157-5.214844 11.628907-11.628906 11.628907zm-80.742188-98.246094c-2 0-3.628906 1.625-3.628906 3.628906v82.984375c0 2.003906 1.628906 3.628906 3.628906 3.628906h80.742188c2 0 3.628906-1.625 3.628906-3.628906v-82.984375c0-2.003906-1.628906-3.628906-3.628906-3.628906zm0 0"/><path d="m220.625 418.15625h-80.742188c-6.414062 0-11.628906-5.21875-11.628906-11.632812v-155.761719c0-6.414063 5.214844-11.628907 11.628906-11.628907h80.742188c6.414062 0 11.628906 5.214844 11.628906 11.628907v155.761719c0 6.414062-5.214844 11.632812-11.628906 11.632812zm-80.742188-171.023438c-2 0-3.628906 1.625-3.628906 3.625v155.765626c0 2 1.628906 3.628906 3.628906 3.628906h80.742188c2 0 3.628906-1.628906 3.628906-3.628906v-155.765626c0-2-1.628906-3.625-3.628906-3.625zm0 0"/><path d="m348.625 418.15625h-80.742188c-6.414062 0-11.628906-5.21875-11.628906-11.632812v-225.78125c0-6.414063 5.214844-11.628907 11.628906-11.628907h80.742188c6.414062 0 11.628906 5.214844 11.628906 11.628907v225.78125c0 6.414062-5.214844 11.632812-11.628906 11.632812zm-80.742188-241.046875c-2 0-3.628906 1.628906-3.628906 3.628906v225.785157c0 2 1.628906 3.628906 3.628906 3.628906h80.742188c2 0 3.628906-1.628906 3.628906-3.628906v-225.78125c0-2.003907-1.628906-3.628907-3.628906-3.628907h-80.742188zm0 0"/><path d="m476.625 418.320312h-80.742188c-6.414062 0-11.628906-5.21875-11.628906-11.628906v-290.398437c0-6.414063 5.214844-11.628907 11.628906-11.628907h80.742188c6.414062 0 11.628906 5.214844 11.628906 11.628907v290.398437c0 6.410156-5.214844 11.628906-11.628906 11.628906zm-80.742188-305.660156c-2 0-3.628906 1.628906-3.628906 3.628906v290.398438c0 2 1.628906 3.628906 3.628906 3.628906h80.742188c2 0 3.628906-1.628906 3.628906-3.628906v-290.398438c0-2-1.628906-3.628906-3.628906-3.628906zm0 0"/></g><path d="m484.855469 390.910156c0 53.351563-43.25 96.597656-96.601563 96.597656-53.351562 0-96.597656-43.246093-96.597656-96.597656 0-53.351562 43.246094-96.601562 96.597656-96.601562 53.351563 0 96.601563 43.25 96.601563 96.601562zm0 0" fill="#eaa97d"/><path d="m468.054688 390.910156c0 44.070313-35.726563 79.800782-79.800782 79.800782-44.070312 0-79.800781-35.730469-79.800781-79.800782 0-44.074218 35.730469-79.800781 79.800781-79.800781 44.074219 0 79.800782 35.726563 79.800782 79.800781zm0 0" fill="#ffea92"/><path d="m381.835938 442.742188c-14.136719-2.136719-24.375-10.886719-25.535157-25.1875-.117187-1.492188 1.089844-2.757813 2.582031-2.757813h11.183594c1.277344 0 2.335938.9375 2.550782 2.199219.84375 4.976562 3.335937 8.863281 7.664062 10.917968 1.730469.820313 3.730469-.410156 3.730469-2.324218v-27.007813c0-1.160156-.769531-2.171875-1.886719-2.488281-12.703125-3.59375-25.933594-8.285156-25.933594-28.132812 0-15.8125 10.402344-26.902344 25.660156-29.277344 1.246094-.191406 2.160157-1.277344 2.160157-2.539063v-7.265625c0-1.425781 1.15625-2.582031 2.582031-2.582031h3.445312c1.425782 0 2.582032 1.15625 2.582032 2.582031v7.109375c0 1.261719.910156 2.355469 2.15625 2.542969 13.160156 1.984375 22.257812 10.183594 24.292968 24.277344.222657 1.546875-1 2.9375-2.566406 2.9375h-11.074218c-1.238282 0-2.265626-.886719-2.53125-2.09375-.828126-3.714844-2.953126-7.082032-6.230469-9.234375-1.738281-1.136719-4.046875.0625-4.046875 2.140625v25.96875c0 1.167968.785156 2.191406 1.910156 2.496094 12.6875 3.453124 25.78125 8.019531 25.78125 27.851562 0 13.742188-9.019531 27.082031-25.53125 29.714844-1.246094.199218-2.160156 1.277344-2.160156 2.539062v7.269532c0 1.425781-1.15625 2.582031-2.582032 2.582031h-3.445312c-1.425781 0-2.582031-1.15625-2.582031-2.582031v-7.113282c.003906-1.269531-.921875-2.355468-2.175781-2.542968zm2.179687-64.605469v-22.714844c0-1.746094-1.71875-3.042969-3.367187-2.460937-5.460938 1.917968-9.085938 6.5625-9.085938 14.113281 0 6.988281 3.527344 10.832031 8.707031 13.375 1.722657.847656 3.746094-.390625 3.746094-2.3125zm8.609375 24.84375v22.683593c0 1.875 1.933594 3.105469 3.652344 2.359376 5.664062-2.464844 8.804687-7.847657 8.804687-14.261719 0-6.875-3.535156-10.601563-8.726562-13.105469-1.722657-.828125-3.730469.410156-3.730469 2.324219zm0 0" fill="#4671c6"/><path d="m388.253906 491.507812c-55.46875 0-100.597656-45.125-100.597656-100.597656s45.125-100.601562 100.597656-100.601562 100.601563 45.128906 100.601563 100.601562-45.132813 100.597656-100.601563 100.597656zm0-193.199218c-51.058594 0-92.597656 41.539062-92.597656 92.601562 0 51.058594 41.539062 92.597656 92.597656 92.597656 51.0625 0 92.601563-41.539062 92.601563-92.597656 0-51.0625-41.539063-92.601562-92.601563-92.601562zm0 0" fill="#3762cc"/><path d="m63.6875 277.542969c0 7.730469-6.265625 14-14 14-7.730469 0-14-6.269531-14-14 0-7.734375 6.269531-14 14-14 7.734375 0 14 6.265625 14 14zm0 0" fill="#f9a7a7"/><path d="m194.253906 188.476562c0 7.734376-6.265625 14-14 14-7.730468 0-14-6.265624-14-14 0-7.730468 6.269532-14 14-14 7.734375 0 14 6.269532 14 14zm0 0" fill="#f9a7a7"/><path d="m322.253906 95.507812c0 7.734376-6.265625 14-14 14-7.730468 0-14-6.265624-14-14 0-7.730468 6.269532-14 14-14 7.734375 0 14 6.269532 14 14zm0 0" fill="#f9a7a7"/><path d="m49.6875 295.542969c-9.921875 0-18-8.074219-18-18 0-9.929688 8.078125-18 18-18 9.925781 0 18 8.070312 18 18 0 9.925781-8.074219 18-18 18zm0-28c-5.511719 0-10 4.484375-10 10 0 5.511719 4.488281 10 10 10 5.515625 0 10-4.488281 10-10 0-5.515625-4.484375-10-10-10zm0 0" fill="#3762cc"/><path d="m180.253906 206.480469c-9.921875 0-18-8.074219-18-18s8.078125-18 18-18c9.925782 0 18 8.074219 18 18s-8.074218 18-18 18zm0-28c-5.511718 0-10 4.484375-10 10 0 5.511719 4.488282 10 10 10 5.515625 0 10-4.488281 10-10 0-5.515625-4.484375-10-10-10zm0 0" fill="#3762cc"/><path d="m308.253906 113.507812c-9.921875 0-18-8.074218-18-18 0-9.925781 8.078125-18 18-18 9.925782 0 18 8.074219 18 18 0 9.925782-8.074218 18-18 18zm0-28c-5.511718 0-10 4.488282-10 10 0 5.515626 4.488282 10 10 10 5.515625 0 10-4.484374 10-10 0-5.511718-4.484375-10-10-10zm0 0" fill="#3762cc"/></svg>