<svg height="408pt" viewBox="-43 0 408 408.488" width="408pt" xmlns="http://www.w3.org/2000/svg"><g fill="#122436"><path d="m104.714844 20.980469c2.957031-1.199219 5.960937-2.308594 9.007812-3.328125l-3.164062-9.484375c-3.25 1.085937-6.453125 2.269531-9.605469 3.546875zm0 0"/><path d="m145.566406 10.757812c3.164063-.335937 6.359375-.570312 9.578125-.707031l-.421875-9.9921872c-3.429687.1445312-6.832031.3984372-10.203125.7539062zm0 0"/><path d="m134.164062 12.398438-1.804687-9.835938c-3.375.621094-6.710937 1.34375-10.007813 2.167969l2.429688 9.703125c3.089844-.777344 6.21875-1.453125 9.382812-2.035156zm0 0"/><path d="m94.222656 25.71875-4.457031-8.949219c-3.058594 1.523438-6.0625 3.140625-9.003906 4.851563l5.019531 8.648437c2.757812-1.605469 5.574219-3.121093 8.441406-4.550781zm0 0"/><path d="m44.953125 64.863281-7.707031-6.375c-2.171875 2.628907-4.265625 5.328125-6.273438 8.09375l8.089844 5.875c1.886719-2.59375 3.847656-5.128906 5.890625-7.59375zm0 0"/><path d="m68.304688 42.109375c2.515624-1.972656 5.09375-3.871094 7.738281-5.683594l-5.664063-8.242187c-2.8125 1.933594-5.566406 3.953125-8.246094 6.058594zm0 0"/><path d="m59.511719 49.5625-6.75-7.378906c-2.519531 2.304687-4.964844 4.6875-7.332031 7.144531l7.199218 6.9375c2.226563-2.308594 4.519532-4.542969 6.882813-6.703125zm0 0"/><path d="m269.695312 55.261719 7.132813-7.003907c-2.386719-2.4375-4.855469-4.796874-7.394531-7.078124l-6.683594 7.441406c2.386719 2.140625 4.699219 4.355468 6.945312 6.640625zm0 0"/><path d="m176.261719 10.609375.953125-9.957031c-3.375-.324219-6.78125-.539063-10.210938-.652344l-.328125 9.992188c3.222657.105468 6.421875.3125 9.585938.617187zm0 0"/><path d="m241.226562 20.863281c-2.964843-1.683593-5.988281-3.277343-9.070312-4.773437l-4.371094 8.988281c2.886719 1.40625 5.722656 2.898437 8.503906 4.480469zm0 0"/><path d="m291.441406 65.371094c-2.03125-2.746094-4.148437-5.421875-6.34375-8.027344l-7.648437 6.441406c2.0625 2.445313 4.046875 4.957032 5.953125 7.535156zm0 0"/><path d="m294.75 89.113281 8.785156-4.773437c-1.632812-3.003906-3.355468-5.949219-5.167968-8.828125l-8.464844 5.320312c1.699218 2.707031 3.316406 5.464844 4.847656 8.28125zm0 0"/><path d="m259.988281 33.324219c-2.703125-2.082031-5.476562-4.078125-8.308593-5.988281l-5.585938 8.292968c2.660156 1.792969 5.261719 3.664063 7.796875 5.617188zm0 0"/><path d="m199.414062 4.355469c-3.300781-.792969-6.644531-1.484375-10.027343-2.066407l-1.707031 9.851563c3.171874.550781 6.304687 1.199219 9.40625 1.941406zm0 0"/><path d="m220.902344 11.136719c-3.171875-1.25-6.390625-2.40625-9.65625-3.457031l-3.070313 9.515624c3.0625.988282 6.082031 2.070313 9.054688 3.242188zm0 0"/><path d="m27.875 90.378906c1.503906-2.835937 3.097656-5.617187 4.773438-8.339844l-8.515626-5.242187c-1.785156 2.902344-3.488281 5.867187-5.089843 8.890625zm0 0"/><path d="m83.3125 290.851562 2.089844-2.878906c-7.886719-5.722656-15.101563-12.308594-21.515625-19.613281-.003907-.003906-.007813-.011719-.015625-.015625-.1875-.214844-.375-.433594-.5625-.648438l-.105469-.125c-.769531-.890624-1.523437-1.792968-2.269531-2.703124-.046875-.058594-.09375-.113282-.140625-.171876-.15625-.191406-.316407-.386718-.472657-.578124-.058593-.078126-.125-.15625-.1875-.234376-.152343-.191406-.300781-.378906-.453124-.570312-.058594-.074219-.117188-.148438-.175782-.222656-.28125-.355469-.558594-.710938-.835937-1.070313-.0625-.082031-.128907-.164062-.191407-.246093-2.390624-3.117188-4.644531-6.339844-6.753906-9.667969-.148437-.234375-.292968-.46875-.441406-.707031-.050781-.082032-.101562-.164063-.152344-.246094-.171875-.273438-.339844-.550782-.511718-.828125-.019532-.03125-.042969-.066407-.0625-.101563-.199219-.324218-.394532-.652344-.589844-.976562-.019532-.03125-.039063-.0625-.058594-.09375-.171875-.289063-.339844-.578125-.511719-.867188-.039062-.066406-.078125-.136718-.117187-.207031-.152344-.257813-.304688-.519531-.453125-.777344-.039063-.070312-.078125-.136719-.117188-.207031-.179687-.316406-.359375-.632812-.539062-.949219-.003907 0-.003907-.003906-.003907-.003906-.378906-.675781-.75-1.351563-1.117187-2.035156-1.816406-3.378907-3.484375-6.847657-5.003906-10.398438-.136719-.324219-.273438-.648437-.410157-.972656-.011718-.03125-.023437-.058594-.039062-.09375-.445312-1.070313-.878906-2.144531-1.296875-3.230469-.011719-.03125-.023437-.0625-.035156-.09375-.121094-.320312-.242188-.636718-.363281-.953125-.019532-.058593-.039063-.113281-.0625-.167969-.402344-1.078124-.792969-2.160156-1.164063-3.25-1.25-3.640624-2.347656-7.351562-3.273437-11.128906-.074219-.296875-.144532-.59375-.21875-.894531-.023438-.105469-.050782-.207031-.074219-.3125-.058594-.253906-.121094-.511719-.179688-.769531-.027343-.113282-.050781-.222656-.074219-.335938-.0625-.269531-.121093-.535156-.179687-.804687-.019531-.09375-.042969-.1875-.0625-.285157-.15625-.71875-.308594-1.441406-.453125-2.167968-.019531-.101563-.039062-.207032-.058594-.3125-.050781-.253906-.101562-.511719-.152344-.769532-.023437-.125-.046874-.25-.070312-.375-.046875-.242187-.089844-.484374-.132812-.722656-.023438-.132812-.046876-.265625-.070313-.398437-.046875-.261719-.09375-.523438-.140625-.785157-.667969-3.886718-1.164062-7.828124-1.480469-11.824218-.015625-.21875-.03125-.4375-.046875-.65625-.015625-.152344-.023437-.304688-.035156-.457032-.015625-.222656-.027344-.441406-.042969-.664062-.011719-.148438-.019531-.296875-.027343-.441406-.015626-.273438-.03125-.542969-.046876-.8125-.007812-.09375-.011718-.191406-.015624-.285156-.023438-.359376-.039063-.71875-.054688-1.082032-.007812-.125-.011719-.25-.015625-.375-.011719-.246094-.023437-.492187-.03125-.738281-.007813-.140625-.011719-.28125-.015625-.421875-.007812-.234375-.015625-.46875-.019531-.699219-.003907-.148437-.007813-.292969-.011719-.4375-.007812-.230469-.011719-.460937-.015625-.695312-.003906-.144531-.007813-.285157-.011719-.429688-.003906-.261719-.007812-.523437-.007812-.785156-.003906-.46875-.007813-.9375-.007813-1.40625 0-3.492187.136719-6.949219.40625-10.371094.027344-.355469.058594-.710937.089844-1.070312.003906-.070313.011719-.132813.015625-.203125.027344-.289063.054688-.578125.082031-.867188.011719-.136718.027344-.273437.039063-.410156.023437-.230469.046875-.460938.070312-.695312.015625-.132813.027344-.265626.042969-.402344.027344-.253906.054687-.503906.082031-.757813.011719-.109375.023438-.214843.039063-.328125.039062-.347656.082031-.691406.121093-1.039062.015626-.109375.027344-.21875.042969-.328125.03125-.25.0625-.5.097657-.75.015624-.132813.03125-.257813.050781-.390625.03125-.242188.066406-.484375.101562-.722656.015625-.117188.03125-.234376.046875-.355469.046875-.304688.089844-.609375.136719-.914063.589844-3.910156 1.355469-7.761718 2.285156-11.546875.0625-.242187.121094-.484375.179688-.726562.035156-.128907.066406-.257813.101562-.386719.058594-.234375.121094-.46875.179688-.703125.03125-.121094.0625-.238281.09375-.359375.085937-.328125.175781-.652344.265625-.980469.03125-.117187.066406-.238281.097656-.355469.0625-.226562.125-.453124.1875-.675781.042969-.144531.082031-.289062.125-.433593.058594-.203126.113281-.402344.171875-.605469.042969-.144531.085937-.289063.128906-.433594.09375-.320313.191407-.640625.285157-.957031.03125-.105469.066406-.210938.097656-.320313.070312-.226562.140625-.457031.210937-.683593.050781-.15625.101563-.3125.152344-.472657.054687-.175781.109375-.355469.167969-.53125 1.25-3.886719 2.675781-7.699219 4.273437-11.421875.046875-.113281.097657-.230468.148438-.34375.085937-.199218.171875-.398437.257812-.597656.050781-.113281.101563-.226562.152344-.339844.152344-.355468.3125-.710937.472656-1.0625.054688-.117187.109375-.238281.160157-.355468.082031-.179688.164062-.359376.246093-.539063.066407-.136719.128907-.273437.191407-.414063.085937-.175781.167968-.355468.25-.53125.070312-.144531.136718-.285156.207031-.429687.078125-.171875.160156-.339844.242187-.511719.5-1.03125 1.007813-2.058594 1.53125-3.074218l-8.894531-4.578126c-.414063.808594-.820313 1.621094-1.222656 2.4375-.144531.296876-.289063.59375-.429688.890626-.078125.15625-.152343.3125-.226562.46875-.089844.191406-.179688.382812-.269531.570312-.078126.160156-.152344.324219-.226563.484375-.089844.1875-.175781.378906-.265625.570313-.070312.15625-.144531.3125-.21875.472656-.144531.3125-.285156.628906-.425781.945312-.066407.144532-.132813.292969-.195313.441406-.089844.203126-.183594.40625-.273437.613282-.066407.15625-.136719.3125-.203125.46875-.089844.210937-.179688.414062-.269532.625-.042968.101562-.085937.199218-.128906.300781-1.597656 3.757813-3.03125 7.605469-4.300781 11.527344h-.003906c-.035157.105469-.066407.210937-.101563.316406-.0625.195313-.125.386719-.183594.582031-.054687.171875-.109374.34375-.164062.515625-.066406.21875-.132812.4375-.203125.660157-.066406.210937-.128906.421874-.195313.636718-.078124.261719-.15625.527344-.234374.792969-.050782.171875-.101563.347656-.152344.519531-.058594.195313-.113282.394532-.171875.59375-.050781.179688-.105469.359375-.152344.542969-.050781.175781-.101563.355469-.152344.535156-.050781.1875-.105469.378907-.15625.570313-.089843.328125-.179687.660156-.265625.988281-.046875.171875-.089844.347656-.136718.519531-.050782.195313-.101563.394532-.152344.589844-.046875.179688-.09375.359375-.136719.539062-.050781.203126-.101563.40625-.152344.609376-.027343.113281-.058593.230468-.085937.347656h.003906c-.96875 3.957031-1.765625 7.980468-2.386719 12.0625-.015625.101562-.027343.203125-.042969.304687-.042968.257813-.078124.519531-.117187.777344-.019531.160156-.042969.316406-.066406.472656-.03125.234375-.066407.464844-.097657.699219-.019531.152344-.039062.300781-.058593.453125-.035157.265625-.070313.53125-.101563.796875-.019531.117188-.03125.242188-.046875.359375-.046875.378906-.09375.753906-.136719 1.132813-.011718.101562-.023437.207031-.035156.308593-.03125.28125-.0625.5625-.09375.84375-.015625.144531-.03125.289063-.046875.433594-.027343.257813-.050781.511719-.078125.769531-.015625.136719-.027344.265625-.039062.402344-.035156.328125-.0625.65625-.089844.984375-.007812.058594-.011719.121094-.015625.179687-.035156.386719-.066406.78125-.101563 1.171876 0 .027343-.003906.054687-.003906.082031-.285156 3.648437-.433594 7.335937-.429687 11.058593 0 .40625 0 .816407.003906 1.222657 0 .078125.003906.160156.003906.238281.003907.304688.007813.609375.011719.914062.003906.140626.007812.277344.007812.417969.007813.261719.011719.519531.019532.78125.003906.148438.007812.296875.011718.445313.007813.261718.015626.519531.023438.78125.003906.148437.011719.296875.015625.441406.011719.28125.023437.5625.035156.839844.003907.117187.011719.230468.015625.347656.015625.398438.035156.796875.058594 1.195312.003906.039063.003906.078126.007812.113282.019532.363281.039063.722656.058594 1.078125.011719.125.019532.25.027344.371093.015625.273438.035156.542969.054688.816407.011718.144531.019531.289062.03125.433593.019531.257813.039062.515626.0625.773438.003906.082031.011718.160156.015624.242188.335938 4.117187.847657 8.1875 1.527344 12.199218.011719.074219.027344.148438.042969.226563.046875.292969.101563.585937.152344.878906.027343.144531.050781.289063.078125.4375l.140625.75c.027343.148437.054687.292969.082031.4375.046875.253906.097656.511719.148438.765625.023437.136719.050781.269531.078124.40625.078126.378906.152344.753906.230469 1.132812.003907.003907.003907.007813.003907.015626.078124.378906.160156.757812.242187 1.136718.03125.140625.0625.289063.097656.433594.050781.238281.101563.472656.15625.707031.039063.164063.074219.332031.113281.496094.046876.21875.101563.441406.152344.660156.039063.164063.078125.324219.113282.488281.058593.230469.113281.464844.167968.695313.03125.121094.058594.242187.089844.363281.988281 4.003906 2.148438 7.9375 3.472656 11.796875.023438.074219.050782.152344.078125.226563.046875.136718.09375.269531.140625.40625.164063.464844.328125.933594.496094 1.398437.027344.078125.054688.152344.082031.226563.082031.226562.164063.453125.246094.675781.050781.132813.101563.265625.148437.398437.085938.226563.171876.453126.253907.679688.050781.125.09375.25.144531.375.085938.226562.171875.453125.261719.679688.046875.125.097656.25.144531.375.304688.777343.613281 1.546874.929688 2.316406.046874.117187.09375.234375.144531.347656.09375.230469.191406.460938.289062.691406.046875.109375.09375.21875.140625.332032.058594.140624.117188.28125.175782.421874h.003906c1.617187 3.78125 3.398437 7.476563 5.328125 11.078126.042969.082031.089843.167968.136719.25.0625.121093.128906.242187.195312.359374.007812.015626.011719.027344.019531.042969-.082031-.117187-.167969-.234375-.25-.351562-.042969-.058594-.085937-.117188-.125-.175781-.179687-.253907-.359375-.503907-.535156-.757813-.023437-.03125-.046875-.066406-.070313-.097656-1.003906-1.429688-1.980468-2.878907-2.933593-4.34375-.035157-.054688-.070313-.105469-.101563-.15625-.140625-.214844-.273437-.425781-.410156-.640625-.074219-.113282-.148438-.226563-.222656-.339844-2.121094-3.328125-4.113282-6.742188-5.972656-10.234375-.113282-.207031-.21875-.414063-.328126-.617187-.070312-.136719-.140624-.269532-.214843-.40625-.113281-.21875-.226563-.4375-.335938-.65625-.066406-.121094-.128906-.246094-.191406-.371094-.136719-.257813-.265625-.519532-.398437-.78125-.042969-.082032-.082032-.160156-.125-.242188-.175782-.347656-.347657-.695312-.519532-1.042968-.019531-.039063-.039062-.082032-.058594-.121094-.152343-.308594-.304687-.617188-.453124-.925782-.046876-.097656-.09375-.199218-.144532-.296874-.117187-.246094-.234375-.496094-.355468-.746094-.058594-.117188-.109376-.234375-.167969-.351563-.109375-.238281-.222657-.476562-.332031-.714843-.050782-.113282-.105469-.226563-.160157-.339844-.109375-.238282-.21875-.480469-.332031-.71875-1.625-3.566406-3.117188-7.210938-4.46875-10.921875-.082031-.226563-.164062-.457031-.246094-.6875-.050781-.128907-.09375-.261719-.144531-.394531-.085937-.25-.175781-.5-.261719-.75-.042968-.117188-.082031-.230469-.125-.351563-.101562-.289063-.199218-.582031-.300781-.871094-.023437-.074219-.050781-.144531-.074219-.21875-.25-.746093-.5-1.496093-.742187-2.25-.007813-.023437-.011719-.042969-.019531-.066406-.113282-.347656-.222657-.699219-.332032-1.046875-.03125-.101562-.0625-.203125-.09375-.304688-.078125-.257812-.160156-.519531-.238281-.78125-.046875-.148437-.089844-.296874-.136719-.449218-.070312-.226563-.136718-.457032-.203125-.6875-1.121093-3.800782-2.097656-7.660156-2.921875-11.574219-.042968-.203125-.089844-.410156-.128906-.613281-.039062-.179688-.074219-.359375-.109375-.542969-.042969-.191406-.078125-.382813-.117187-.578125-.039063-.191406-.078126-.382812-.113282-.578125-.039062-.191406-.074218-.378906-.109375-.570313-.039062-.191406-.074219-.386718-.113281-.578124-.035156-.195313-.070312-.386719-.105469-.582032-.03125-.1875-.066406-.375-.101562-.5625-.035157-.199218-.070313-.398437-.105469-.597656-.03125-.1875-.0625-.371094-.097656-.558594-.03125-.1875-.0625-.378906-.09375-.570312-.035156-.203125-.070313-.40625-.101563-.609375-.027343-.171875-.054687-.347657-.082031-.523438-.03125-.207031-.066406-.414062-.097656-.625-.03125-.199219-.0625-.398437-.089844-.597656-.59375-3.960937-1.039062-7.96875-1.320312-12.023437-.011719-.21875-.027344-.433594-.042969-.648438-.011719-.175781-.019531-.351562-.03125-.523438-.015625-.21875-.027344-.4375-.039063-.652343-.011718-.179688-.019531-.359375-.03125-.539063-.007812-.183594-.015625-.367187-.027344-.554687-.007812-.214844-.019531-.425781-.03125-.640625-.007812-.160156-.015624-.324219-.019531-.484375-.011719-.234375-.019531-.460938-.03125-.695313-.007812-.234375-.015625-.464844-.023437-.699218-.003906-.15625-.011719-.316407-.015625-.472657-.023438-.796875-.042969-1.589843-.054688-2.386719 0-.074218 0-.152343 0-.226562-.003906-.328125-.007812-.652344-.011719-.980469-.003906-.382812-.003906-.761719-.003906-1.144531 0-3.617188.125-7.203125.375-10.753906.011719-.191406.023438-.382813.039063-.574219.015625-.1875.027343-.378906.042969-.570313.015624-.199218.03125-.398437.050781-.597656.011719-.183594.027343-.371094.042969-.558594.015624-.191406.035156-.382812.050781-.574218.019531-.191406.035156-.382813.050781-.578125.019531-.199219.039062-.394531.058594-.597657.015625-.175781.03125-.351562.050781-.527343.023437-.214844.042969-.429688.066406-.644531.019531-.167969.035157-.339844.054688-.507813.023437-.238281.050781-.476563.078125-.714844.015625-.136719.03125-.277343.046875-.414062.042969-.378907.089843-.757813.136719-1.132813.007812-.058594.011718-.113281.023437-.171875.039063-.328125.082031-.652343.121094-.976562.507812-3.875 1.164062-7.703125 1.960937-11.484375.066406-.320313.136719-.640625.207032-.960938.011718-.054687.023437-.113281.035156-.167968.167968-.761719.339844-1.527344.519531-2.285157.011719-.058593.027344-.121093.039063-.179687.078124-.320313.152343-.636719.230468-.957032.019532-.082031.039063-.160156.058594-.242187.070312-.289063.140625-.574219.214844-.863281.027344-.109375.054687-.21875.082031-.332032.066406-.261718.132813-.519531.203125-.78125.027344-.117187.058594-.234374.089844-.351562.070312-.265625.140625-.53125.210937-.796875.027344-.101563.054688-.203125.082031-.304687.074219-.273438.148438-.542969.222657-.816407 1.066406-3.859375 2.28125-7.65625 3.640625-11.386719.074218-.199218.144531-.402343.21875-.601562.0625-.164062.121094-.324219.179687-.488281.074219-.191407.144531-.382813.21875-.574219.058594-.160156.117188-.324219.179688-.484375.097656-.253906.199219-.507813.296875-.761719.070312-.1875.144531-.375.21875-.5625.097656-.246094.195312-.492187.292968-.738281.066407-.167969.132813-.335937.203126-.503906.070312-.175781.140624-.351563.210937-.527344.078125-.195313.160156-.386719.238281-.578125.0625-.148438.125-.300781.1875-.449219.082032-.195312.164063-.394531.246094-.585937.0625-.152344.125-.304688.1875-.453125.082031-.191407.164062-.382813.246094-.570313.066406-.160156.136718-.320312.207031-.476562.929687-2.152344 1.910156-4.277344 2.9375-6.375l-8.980469-4.402344c-1.03125 2.105469-2.019531 4.242188-2.960937 6.398438-.042969.101562-.085938.199218-.128907.300781-.097656.226562-.195312.449219-.296874.679687-.058594.140625-.121094.285156-.183594.429688-.097656.238281-.199219.476562-.300782.714844-.054687.136718-.113281.269531-.167968.40625-.105469.25-.210938.503906-.3125.757812-.050782.117188-.097656.238281-.148438.359375-.117187.289063-.238281.578125-.351562.871094-.035156.085937-.070313.171875-.105469.257812-.300781.757813-.601563 1.519531-.890625 2.285157-.039062.09375-.074219.191406-.109375.289062-.113281.289062-.21875.578125-.328125.867188-.039062.105468-.078125.214843-.117188.320312-.105468.277344-.207031.558594-.308593.839844-.019531.050781-.035157.097656-.054688.148437-1.390625 3.835938-2.640625 7.738281-3.742187 11.703125-.027344.101563-.054688.207032-.082032.308594-.070312.242188-.136718.484375-.199218.730469-.042969.15625-.085938.3125-.128906.46875-.0625.238281-.125.472656-.1875.710937-.042969.164063-.082032.324219-.125.484375-.058594.230469-.121094.460938-.179688.695313-.039062.160156-.082031.324218-.121094.488281-.0625.246094-.125.492187-.183594.738281-.035156.144532-.070312.289063-.109374.4375-.0625.265625-.125.53125-.191407.800782-.03125.132812-.0625.261718-.09375.394531-.082031.34375-.160156.691406-.238281 1.035156-.015625.0625-.03125.125-.046875.1875-.085937.382813-.171875.765625-.253906 1.148437-.027344.128907-.054688.261719-.085938.386719-.054687.269531-.113281.535157-.171875.800781-.007812.042969-.015625.085938-.027344.125-.835937 3.984376-1.527343 8.027344-2.066406 12.113282 0 .015625-.003906.03125-.003906.050781-.050781.378906-.097656.757813-.148438 1.136719-.003906.027344-.003906.054687-.007812.078125-.050781.414062-.101562.824219-.148438 1.238281-.007812.074219-.015624.144531-.023437.214844-.039063.332031-.078125.667968-.113281 1-.011719.132812-.027344.265625-.042969.398437-.027344.273438-.054687.546875-.082031.816407-.015625.15625-.03125.316406-.046875.472656-.023438.253906-.050781.507812-.070313.757812-.015625.160156-.03125.316406-.042968.472656-.023438.257813-.046876.511719-.066407.765626-.015625.164062-.027343.324218-.039062.488281-.019531.246093-.039063.496093-.0625.746093-.011719.160157-.023438.320313-.035157.480469-.019531.257813-.039062.515625-.054687.777344-.007813.097656-.015625.195313-.023437.289063-.246094 3.65625-.375 7.34375-.375 11.0625 0 .40625.003906.804687.003906 1.210937v.023437c.003906.238282.007812.476563.011718.714844 0 .226563.003907.449219.007813.671875.003906.386719.011719.769531.019531 1.152344.003906.160156.007813.320313.011719.480469.007813.261718.015625.523437.023437.78125.003907.222656.015626.445312.023438.667968.007812.199219.011719.398438.019531.59375.007813.191407.015625.382813.023438.570313.007812.238281.019531.476563.027343.710937.011719.171876.019532.347657.027344.519532.011719.242187.023438.484375.035156.730468.011719.195313.023438.390626.035157.589844.015625.222656.027343.449219.039062.675782.011719.1875.023438.378906.039063.566406.011718.226562.027344.453125.042968.683594 0 .03125.003907.066406.003907.097656.289062 4.113281.730469 8.183594 1.324219 12.210937.019531.148438.046874.300781.066406.449219.035156.238281.070312.472656.105468.703125.03125.203125.066407.402344.09375.601563.035157.210937.066407.421874.101563.628906.03125.203125.066406.40625.101563.605468.035156.214844.070312.433594.105468.644532.03125.195312.070313.390625.101563.582031.035156.210937.074219.421875.109375.632813.039062.21875.078125.4375.121094.65625.03125.183593.066406.363281.097656.546874.042968.230469.085937.457032.128906.683594.035156.183594.070312.363282.105469.542969.042969.226563.085937.453125.132812.679687.035157.175782.070313.351563.105469.527344.046875.238282.097656.472656.144531.707032.035157.167968.070313.332031.105469.5.023438.125.050781.253906.078125.378906h.003906c.855469 4.03125 1.863281 8 3.011719 11.910156.023438.085938.046875.167969.074219.253906.023437.078125.046875.15625.070312.234375.09375.316407.1875.632813.285157.949219.011718.042969.027343.085938.039062.128906.796875 2.613282 1.65625 5.191406 2.582031 7.742188.015625.039062.027344.074218.039063.109375.039062.105469.074218.207031.113281.3125 1.410156 3.855469 2.960937 7.644531 4.652344 11.359375h-.003907c1.414063 3.113281 2.925782 6.167968 4.527344 9.171875h.003906c1.933594 3.621093 3.996094 7.15625 6.191407 10.605469h-.003907c1.082032 1.699218 2.191407 3.371093 3.332032 5.027343.027344.039063.050781.074219.078125.113281.171875.246094.34375.492188.511719.734376.066406.09375.132812.191406.199218.285156.152344.21875.304688.433594.460938.652344.082031.117187.167968.234374.25.355468.140625.195313.28125.394532.425781.589844.101563.140625.203125.28125.304687.421875.066407.089844.132813.183594.199219.273437 2.414063 3.3125 4.949219 6.53125 7.605469 9.644532.023438.03125.050781.058594.074219.089844.246093.285156.488281.570312.734375.851562.058594.066406.113281.132812.171875.199219.214843.25.433593.5.652343.746093.0625.070313.128907.144532.191407.21875.210937.234376.417969.472657.628906.707032.074219.085937.148437.167968.226563.253906.207031.226562.410156.457031.621093.6875.070313.078125.136719.152344.207031.230469.210938.230469.421876.460937.636719.691406.070313.074219.140625.152344.207031.226563.222657.238281.441407.472656.660157.710937.0625.0625.125.128906.183593.195313.238282.25.476563.503906.714844.753906l.128906.136718c.265626.28125.535157.558594.804688.835938.011719.015625.027344.027344.039062.042969 2.847657 2.941406 5.804688 5.777343 8.867188 8.5.011719.011719.023438.023437.035156.03125.289063.257812.582032.511719.871094.769531.042969.039062.089844.078125.132812.117188.277344.238281.550782.480468.832032.71875.035156.03125.074218.066406.113281.097656.285156.25.574219.496094.863281.742187.03125.023438.0625.046875.089844.074219.292969.246094.582031.488281.875.734375.035156.027344.070312.054687.101562.085937.300782.25.601563.496094.902344.746094.023438.019532.042969.035156.066406.054688 2.476563 2.027344 5.011719 3.988281 7.605469 5.867187l2.722657-3.75c.496093.429688.992187.855469 1.492187 1.28125.011719.011719.023437.019531.039063.03125 1.101562.933594 2.21875 1.847657 3.347656 2.75l-2.265625 3.398438c2.839843 1.890625 5.742187 3.695312 8.703125 5.40625l5.003906-8.65625c-.878906-.515625-1.785156-1.054688-2.6875-1.597657zm0 0"/><path d="m322.710938 171.519531c.003906-.042969.003906-.082031.007812-.125.011719-.203125.023438-.40625.035156-.609375.011719-.214844.027344-.425781.035156-.640625.011719-.207031.019532-.414062.03125-.621093.011719-.214844.023438-.425782.035157-.636719.007812-.21875.015625-.4375.027343-.660157.007813-.199218.015626-.398437.023438-.597656.007812-.226562.015625-.449218.023438-.675781.007812-.195313.015624-.394531.019531-.589844.007812-.234375.015625-.46875.019531-.703125.007812-.1875.011719-.371094.015625-.558594.007813-.253906.011719-.507812.015625-.761718.003906-.171875.007812-.339844.011719-.511719.003906-.304687.007812-.609375.007812-.917969.003907-.113281.003907-.230468.003907-.347656.003906-.425781.007812-.847656.007812-1.273438v-.367187h-.003906c-.007813-4.128906-.171875-8.222656-.488282-12.273437h.003907c-.007813-.058594-.011719-.121094-.015625-.179688-.019532-.226562-.039063-.445312-.054688-.667969-.015625-.1875-.03125-.371093-.046875-.558593-.023437-.257813-.046875-.515626-.070312-.773438-.011719-.144531-.027344-.289062-.039063-.433594-.078125-.816406-.160156-1.628906-.25-2.441406-.011718-.128906-.027344-.253906-.039062-.382812-.035156-.28125-.066406-.566407-.097656-.847657-.019532-.148437-.035157-.296875-.054688-.441406-.027344-.253906-.058594-.507813-.089844-.761719-.023437-.179687-.046875-.359375-.070312-.539062-.027344-.214844-.054688-.429688-.082032-.644532-.027343-.203124-.054687-.402343-.082031-.601562-.027343-.199219-.054687-.402344-.082031-.597656-.011719-.097656-.023438-.199219-.039062-.296875-.578126-4.082031-1.308594-8.113281-2.1875-12.089844-.03125-.140625-.0625-.285156-.09375-.425781-.050782-.21875-.097657-.4375-.148438-.65625-.042969-.199219-.089844-.394532-.136719-.59375-.046875-.195313-.089843-.390625-.136719-.585938-.046874-.203125-.09375-.40625-.144531-.609375-.042969-.183593-.089843-.371093-.132812-.554687-.054688-.21875-.105469-.429688-.160157-.644532-.042968-.171874-.082031-.34375-.128906-.511718-.050781-.21875-.109375-.4375-.164062-.65625-.046875-.179688-.09375-.355469-.136719-.53125-.054687-.210938-.109375-.421875-.164063-.628906-.046874-.171876-.09375-.34375-.136718-.511719-.0625-.222657-.121094-.449219-.179688-.671875-.027344-.101563-.058594-.203125-.085937-.304688-.144531-.523437-.289063-1.042968-.4375-1.5625-.035157-.121094-.066407-.242187-.101563-.363281-.011718-.035156-.019531-.074219-.03125-.109375-1.140625-3.953125-2.429687-7.84375-3.855468-11.667969-.046876-.121093-.09375-.246093-.140626-.371093-.09375-.246094-.183593-.492188-.277343-.734376-.070313-.175781-.136719-.351562-.207031-.53125-.078126-.199218-.152344-.398437-.230469-.601562-.074219-.179688-.144531-.363281-.21875-.542969-.074219-.191406-.148438-.382812-.226563-.570312-.070312-.179688-.144531-.359375-.214844-.542969-.082031-.199219-.164062-.398438-.246093-.601562-.066407-.167969-.136719-.335938-.207031-.503907-.085938-.207031-.171876-.414062-.257813-.617187-.070313-.164063-.136719-.332032-.207031-.496094-.097656-.234375-.199219-.472656-.300782-.707031-.054687-.125-.105468-.253907-.160156-.378907-.121094-.285156-.246094-.566406-.367187-.847656-.042969-.09375-.082031-.183594-.121094-.277344-.160156-.359374-.320313-.71875-.480469-1.082031-.007812-.015625-.015625-.03125-.023437-.046875-.75-1.675781-1.527344-3.335937-2.335938-4.984375l-8.980469 4.402344c1.042969 2.125 2.039063 4.28125 2.980469 6.464844.035157.078125.070313.160156.105469.238281.09375.222656.1875.441406.28125.660156.054688.128906.109375.257813.164062.386719.089844.210937.179688.425781.269532.640625.050781.125.101562.246094.152344.371094.09375.21875.183593.445312.273437.667968.050781.117188.097656.234376.144531.351563.09375.226563.183594.453125.273438.679687.046875.117188.089844.230469.136718.347657.089844.226562.179688.449219.265626.675781.046874.117188.089843.234375.136718.351562 1.609375 4.152344 3.042969 8.386719 4.285156 12.707032.085938.300781.171876.597656.257813.898437.039063.144531.078125.285157.121094.429688.078125.277343.152343.554687.226562.832031.042969.148438.078125.292969.121094.4375.058594.226562.117187.449219.179687.671875.039063.152344.078126.304687.117188.457031.054688.214844.113281.429688.164062.640625.042969.164063.082032.324219.125.484375.050782.210938.105469.425782.15625.636719.039063.15625.078126.308594.113282.464844.054687.21875.105468.433593.160156.652343.035156.160157.074219.320313.113281.480469.046875.207031.097657.410157.144531.617188.039063.167969.078126.335937.113282.503906.050781.207031.097656.417969.140625.625.882812 3.945313 1.609375 7.953125 2.175781 12.007813.027344.191406.054688.378906.078125.566406.027344.191406.054687.378906.078125.570312s.050781.378906.074219.574219c.023437.1875.046875.375.070312.566406.023438.191407.046875.382813.070313.574219.023437.183594.042968.367188.066406.550781.027344.226563.050781.457031.078125.683594.015625.152344.035156.300781.050781.453125.039063.359375.078125.722656.113282 1.085938.011718.082031.019531.160156.027343.242187.03125.308594.058594.621094.089844.933594.015625.179687.03125.355469.046875.53125.019531.203125.039062.40625.054688.609375.015624.1875.03125.375.050781.566406.015625.195312.03125.390625.046875.589844.3125 3.972656.472656 7.988281.472656 12.042968 0 .398438-.003906.800782-.007812 1.199219v.210938c-.003907.332031-.007813.664062-.011719.996093 0 .046876-.003907.09375-.003907.140626-.003906.351562-.011718.703124-.019531 1.054687-.003906.0625-.003906.121094-.003906.179687-.007813.335938-.019531.675782-.027344 1.011719-.003906.097657-.007812.191407-.011719.285157-.007812.296874-.019531.597656-.03125.898437-.003906.128906-.011718.257813-.015624.386719-.011719.261718-.023438.523437-.035157.785156-.007812.15625-.015625.308594-.023437.464844-.011719.238281-.023438.480468-.035156.71875-.007813.160156-.019532.320312-.027344.484375-.015625.230469-.027344.460937-.042969.691406-.25 4.066406-.664063 8.09375-1.230469 12.066406-.027344.191407-.054687.378907-.082031.570313-.027344.183594-.054687.371094-.082031.554687-.035156.207031-.0625.414063-.097656.621094-.027344.179687-.054688.359375-.082032.539063-.03125.203124-.0625.40625-.097656.609374-.027344.183594-.058594.367188-.089844.550782-.035156.210937-.070312.417968-.105468.625-.027344.175781-.058594.351562-.089844.527344-.039063.203124-.074219.410156-.109375.613281-.035157.1875-.066407.375-.101563.5625-.035156.199219-.074218.398437-.109375.59375-.035156.179687-.070312.363281-.101562.542969-.039063.199218-.078125.40625-.117188.605468-.035156.1875-.074219.371094-.109375.558594-.039062.195312-.082031.394531-.117187.589844-.796875 3.921875-1.742188 7.789062-2.832031 11.59375-.078126.265625-.15625.53125-.234376.796875-.03125.105469-.0625.214843-.09375.320312-.085937.296875-.171874.585938-.261718.878907-.027344.082031-.050782.160156-.074219.242187-.109375.355469-.21875.714844-.328125 1.074219-.003906.011718-.007812.027344-.011719.039062-.238281.761719-.484375 1.519532-.730469 2.273438-.007812.023437-.015624.042968-.019531.0625-.117187.347656-.234375.699218-.351562 1.046875-.023438.066406-.046875.132812-.066407.199219-.105468.304687-.210937.609374-.316406.914062-.027344.078125-.054687.160156-.082031.242188-.097656.28125-.199219.566406-.300781.847656-1.320313 3.707031-2.777344 7.34375-4.371094 10.910156-.117188.257812-.234375.519531-.351562.78125-.042969.097656-.089844.195312-.132813.289062-.125.277344-.253906.558594-.382813.832032-.035156.074218-.066406.152344-.101562.226562-.152344.324219-.300781.644532-.453125.964844-.011719.03125-.027344.058594-.042969.085938-.339844.71875-.683594 1.429687-1.035156 2.144531-.015625.027343-.03125.054687-.042969.082031-.160156.320312-.320312.644531-.480469.964844-.035156.066406-.066406.132812-.101562.195312-.136719.277344-.28125.554688-.421875.832032-.054687.105468-.109375.210937-.164063.316406-.117187.230468-.238281.460937-.359374.6875-1.832032 3.503906-3.796876 6.921875-5.890626 10.257812-.089843.144532-.183593.292969-.277343.4375-.113281.179688-.230469.363282-.34375.546875-.066407.097657-.128907.199219-.195313.296875-.503906.789063-1.015625 1.570313-1.535156 2.347656-.035156.050782-.070312.105469-.105469.15625-.167969.253907-.339843.507813-.511719.761719-.039062.054688-.074218.109375-.113281.164063-.160156.234375-.324219.46875-.484375.703125-.054687.082031-.113281.164062-.167968.246093-.152344.226563-.308594.445313-.464844.667969-.0625.085938-.121094.171875-.179688.257813-.15625.222656-.3125.441406-.46875.660156-.0625.089844-.125.175781-.1875.265625-.070312.097656-.140625.195313-.210937.292969.070312-.128906.136719-.25.207031-.378906.109375-.203126.21875-.40625.328125-.613282.070313-.128906.136719-.257812.207031-.390625.058594-.109375.117188-.222656.175782-.332031h-.003907c1.902344-3.617188 3.652344-7.332031 5.238281-11.128906h.003907c.042969-.101563.082031-.203125.125-.300782.050781-.128906.105469-.257812.15625-.386718.09375-.222656.183593-.445313.273437-.671875.035156-.082031.070313-.167969.101563-.25.183593-.457031.367187-.917969.550781-1.378907.046875-.125.09375-.246093.140625-.367187.085937-.21875.167969-.441406.253906-.664063.050781-.132812.101563-.261718.152344-.394531.082031-.222656.167969-.445312.25-.667969.050781-.136718.101563-.273437.152344-.410156.082031-.222656.164062-.445312.242187-.664062.039063-.105469.074219-.207032.113282-.3125.167968-.464844.332031-.933594.496093-1.402344.039063-.105469.074219-.210938.109375-.316406.078125-.226563.152344-.449219.230469-.675782.050781-.140624.09375-.28125.144531-.421874.035156-.105469.074219-.214844.109375-.324219h-.003906c1.292969-3.867188 2.417969-7.816407 3.375-11.824219.023437-.109375.046875-.214844.074219-.320312.050781-.226563.105468-.449219.15625-.671876.035156-.15625.070312-.316406.109375-.472656.054687-.238281.105469-.476562.160156-.714844.03125-.148437.066406-.296874.097656-.445312.058594-.265625.113281-.535156.171875-.800781.023438-.121094.050782-.238281.074219-.359375.078125-.367188.152344-.738282.226563-1.109375.027343-.140625.054687-.285157.085937-.425781.046875-.242188.09375-.488282.140625-.730469.03125-.160157.058594-.320313.089844-.480469.042968-.238281.089844-.476562.132812-.714844.027344-.152344.054688-.304687.082032-.457031.042968-.25.085937-.5.132812-.75.023438-.144531.046875-.289063.070312-.429687.066407-.378907.128907-.753907.191407-1.132813 0-.007813.003906-.019531.003906-.03125.648437-4.015625 1.121094-8.085937 1.421875-12.210937.003906-.046876.003906-.101563.007812-.152344.023438-.296875.042969-.597656.0625-.898438.007813-.105468.015626-.207031.019532-.308594.023437-.375.046875-.75.066406-1.125l.003906-.0625c.023438-.417968.042969-.832031.0625-1.25.003906-.039062.003906-.078124.003906-.117187.015626-.351563.03125-.703125.042969-1.058594.003907-.125.007813-.25.011719-.375.011719-.28125.019531-.5625.027344-.839843.003906-.140626.007812-.273438.011718-.414063.003907-.257813.011719-.519531.015626-.78125.003906-.148437.007812-.292969.007812-.441406.003906-.285157.007812-.570313.011719-.855469.003906-.113281.003906-.230469.003906-.34375.003906-.402344.007813-.804688.007813-1.210938v-.394531c-.011719-4.136719-.203126-8.230469-.566407-12.277343-.007812-.0625-.011719-.125-.019531-.191407-.027344-.296875-.054688-.597656-.082031-.898437-.011719-.105469-.019531-.207032-.03125-.308594-.035157-.34375-.070313-.6875-.105469-1.03125-.003906-.050781-.011719-.105469-.019531-.160156-.039063-.390625-.085938-.785156-.128907-1.175782-.011718-.09375-.023437-.1875-.035156-.277343-.035156-.300781-.070312-.597657-.109375-.894531-.015625-.121094-.03125-.242188-.046875-.363282-.039062-.289062-.074218-.578125-.113281-.867187-.015625-.101563-.027344-.207031-.042969-.308594-.109375-.78125-.21875-1.5625-.339844-2.339844-.015624-.097656-.03125-.191406-.046874-.289062-.046876-.289063-.089844-.582031-.140626-.871094-.007812-.0625-.019531-.125-.027343-.1875-.667969-4.070313-1.511719-8.089844-2.523438-12.035156-.007812-.019531-.011719-.046875-.019531-.066407-.09375-.359374-.1875-.71875-.28125-1.078124-.03125-.121094-.066406-.246094-.101562-.367188-.066407-.25-.136719-.5-.203126-.75-.039062-.148438-.078124-.292969-.121093-.4375-.074219-.269531-.148438-.53125-.226563-.796875-.027344-.097656-.054687-.195313-.082031-.292969-.105469-.371094-.214844-.738281-.324219-1.109375-.023437-.085937-.046875-.167969-.074218-.253906-.085938-.289063-.175782-.578125-.261719-.867187-.035157-.117188-.070313-.234376-.109375-.351563-.082032-.277344-.167969-.546875-.253906-.820313-.03125-.105468-.066407-.207031-.097657-.3125-.238281-.746093-.480469-1.488281-.730469-2.226562-.007812-.03125-.019531-.066406-.03125-.09375-1.3125-3.902344-2.792968-7.726562-4.429687-11.464844-.011719-.019531-.019531-.039062-.03125-.0625-.144531-.332031-.289063-.660156-.4375-.992187-.0625-.132813-.125-.269531-.183594-.402344-.097656-.21875-.199219-.4375-.296875-.65625-.066406-.144531-.132812-.285156-.199218-.429687-.097657-.21875-.199219-.429688-.300782-.648438-.066406-.132812-.128906-.273438-.191406-.410156-.148438-.308594-.296875-.621094-.445312-.929688-.082032-.167968-.164063-.335937-.246094-.503906-.054688-.113281-.109375-.226562-.164063-.335938-.636719-1.292968-1.289062-2.578124-1.960937-3.847656l-8.839844 4.675782c.695312 1.320312 1.371094 2.652343 2.027344 4 .050781.105468.101562.210937.152344.316406.148437.300781.292968.609375.4375.914062.054687.117188.109374.238282.164062.351563.097656.203125.191406.402343.285156.605469.066406.140624.128906.285156.195313.425781.089843.195312.175781.390625.265625.585937.058594.125.113281.25.167968.378906.140626.308594.277344.613282.410157.925782 1.542969 3.511718 2.933593 7.109375 4.167969 10.777344.234374.699218.464843 1.398437.6875 2.105468.019531.066406.039062.132813.0625.203125.089843.285157.175781.570313.265624.855469.027344.085938.050782.167969.074219.25.105469.339844.207031.683594.308594 1.023438.003906.003906.003906.007812.003906.007812.109375.371094.21875.742188.324219 1.109375.011719.039063.023438.078125.03125.113281.089844.320313.183594.636719.269531.957032.019531.070312.039063.144531.058594.210937.089844.324219.175781.652344.261719.976563.011718.035156.019531.066406.027344.09375.101562.378906.199218.753906.296874 1.132812.953126 3.707031 1.742188 7.484375 2.367188 11.316406.042969.285156.089844.574219.132812.859375.015626.082031.027344.160157.039063.238281.113281.730469.21875 1.460938.320313 2.199219.011718.074219.019531.152344.03125.230469.035156.285156.074218.574219.113281.859375.015625.105469.027343.207031.039062.308594.035157.289062.074219.578125.105469.867187.011719.074219.019531.148438.027344.226563.042968.367187.082031.734375.125 1.101562.003906.050781.007812.097657.011718.144531.035157.308594.066407.621094.097657.933594.011719.121094.027343.242188.039062.363282.023438.25.046875.5.070313.75.359375 3.945312.542968 7.945312.542968 11.992187 0 .375 0 .75-.003906 1.121094 0 .109375-.003906.214843-.003906.324219-.003906.269531-.007812.535156-.011719.808593-.003906.121094-.003906.242188-.007812.363281-.003907.261719-.007813.519532-.015625.78125-.003906.117188-.007813.234376-.011719.355469-.007813.265625-.015625.53125-.027344.792969-.003906.113281-.007812.226562-.011719.339844-.007812.296875-.023437.59375-.035156.890625-.003906.074219-.007812.152343-.011718.226562-.015626.371094-.035157.742188-.054688 1.113281-.003906.078126-.007812.152344-.011719.230469-.019531.289063-.035156.578125-.054687.867188-.007813.136719-.015625.269531-.023438.402343-.015625.230469-.03125.460938-.046875.691407-.277343 3.898437-.722656 7.75-1.335937 11.546875-.0625.378906-.121094.757812-.1875 1.136718-.007813.058594-.019532.117188-.03125.175782-.050782.304687-.105469.613281-.160156.917968-.015626.09375-.035157.191407-.050782.289063-.050781.277344-.101562.5625-.15625.839844-.019531.09375-.035156.1875-.054687.28125-.058594.304687-.117188.609375-.179688.910156-.011719.0625-.023437.125-.035156.183594-.148437.746093-.304687 1.484375-.464844 2.226562-.011719.0625-.027343.121094-.039062.183594-.066407.304687-.136719.613281-.203125.917969-.019532.078125-.039063.160156-.054688.238281-.070312.296875-.136718.589844-.207031.882813-.898437 3.792968-1.957031 7.519531-3.179687 11.171874-.117188.347657-.234376.695313-.351563 1.042969-.007813.015625-.015625.035157-.019531.054688-.257813.742187-.519532 1.484375-.789063 2.21875-.003906.011719-.007812.027343-.011719.039062-.128906.347657-.253906.691407-.382812 1.035157-.015625.039062-.03125.078124-.042969.117187-.128906.339844-.257812.679687-.390625 1.019531-.003906.015625-.011718.03125-.015625.046875-.421875 1.089844-.855469 2.171875-1.304687 3.246094-1.488282 3.5625-3.125 7.042969-4.914063 10.433594-.164062.316406-.332031.632812-.5.941406-.015625.03125-.027343.054687-.042969.082031-.371093.6875-.742187 1.367188-1.125 2.046875-.011718.019531-.023437.035157-.03125.054688-.175781.308593-.347656.617187-.523437.921875-.03125.050781-.058594.101562-.089844.15625-.164062.289062-.332031.578125-.503906.867187-.023437.039063-.046875.078125-.066406.117188-.386719.65625-.78125 1.3125-1.175781 1.964843-.027344.042969-.054688.085938-.082032.132813-.167968.269531-.332031.539063-.5.808594-2.085937 3.351562-4.316406 6.597656-6.6875 9.734375-.078125.105468-.15625.210937-.238281.3125-.46875.617187-.945313 1.230468-1.421875 1.839844-.058594.074218-.121094.152343-.183594.230468-.144531.1875-.296875.371094-.445312.558594-.066406.082031-.128906.160156-.195313.242188-.15625.199218-.316406.394531-.476562.589843-.023438.027344-.046875.054688-.070313.082031-.546875.671876-1.101562 1.335938-1.660156 1.996094-.046875.054688-.09375.109375-.136719.160156-.175781.203126-.347656.40625-.519531.609376-.039062.042968-.078125.085937-.113281.128906-6.550781 7.566406-13.960938 14.371094-22.078125 20.261718l2.085937 2.878907c-.589843.355469-1.183593.710937-1.78125 1.0625l5.0625 8.621093c2.949219-1.730468 5.832031-3.550781 8.652344-5.457031l-2.339844-3.460937c.808594-.652344 1.605469-1.3125 2.398438-1.984375.011719-.007813.027343-.019531.039062-.03125.308594-.261719.617188-.523438.921875-.789063.019532-.015625.03125-.027344.046875-.039062.203125-.175782.402344-.347656.601563-.523438l2.722656 3.753906c3.25-2.359374 6.410156-4.835937 9.472656-7.421874.007813-.011719.015625-.015626.023438-.023438.308594-.261719.613281-.523438.921875-.785156.027343-.023438.058593-.050782.089843-.078125.289063-.25.582032-.5.867188-.753907.03125-.023437.058594-.050781.089844-.074218.289062-.253906.578125-.507813.867187-.761719.027344-.027344.058594-.054687.085938-.078125.304687-.269531.605469-.539062.90625-.808594.003906-.003906.007812-.007812.011719-.011718 3.039062-2.742188 5.980468-5.597657 8.808593-8.5625.027344-.027344.050781-.054688.082031-.085938.25-.261719.496094-.523438.746094-.785156.054688-.0625.113282-.125.167969-.183594.21875-.234375.4375-.46875.65625-.707031.078125-.085938.160156-.167969.238281-.253907.203125-.222656.40625-.441406.609375-.664062.078125-.089844.160157-.175781.238281-.265625.195313-.214844.390626-.429687.585938-.648437.085938-.097657.171875-.191407.257812-.289063.191407-.214844.382813-.429687.574219-.644531.082031-.09375.167969-.1875.25-.28125.191407-.21875.378907-.433594.566407-.648438.085937-.101562.171874-.199218.257812-.300781.191406-.214844.378906-.433594.566406-.65625.078125-.09375.160156-.1875.242188-.28125.21875-.253906.433594-.511719.652344-.769531.042968-.054688.089843-.109375.136718-.160156 2.632813-3.136719 5.148438-6.375 7.539063-9.703126h.003906c.097656-.132812.191406-.269531.289063-.40625.046874-.0625.089843-.125.132812-.1875.183594-.261718.371094-.519531.550781-.777343.046875-.070313.09375-.136719.140625-.203125.1875-.261719.371094-.527344.550782-.789063.039062-.054687.074218-.105469.113281-.160156.191406-.277344.382812-.558594.574219-.839844.015624-.019531.03125-.046875.046874-.066406 1.132813-1.667969 2.234376-3.359375 3.308594-5.070313 2.167969-3.464843 4.210938-7.023437 6.117188-10.660156h.003906c1.515625-2.890625 2.945312-5.839844 4.289062-8.832031l.007813-.015625c.058594-.125.113281-.253906.171875-.378906 1.664062-3.734375 3.1875-7.539063 4.570312-11.414063.039063-.105469.074219-.207031.109376-.308593.007812-.019532.011718-.035157.019531-.054688.90625-2.558594 1.75-5.144531 2.527343-7.761719.019532-.0625.039063-.125.058594-.191406.085938-.289063.171875-.582031.253906-.875.03125-.105469.0625-.214844.09375-.320313.027344-.082031.046876-.160156.070313-.242187 1.121094-3.917969 2.097656-7.898437 2.921875-11.933594h.003906c.027344-.136719.054688-.273437.082032-.410156.03125-.152344.0625-.304687.089843-.457031.050781-.246094.097657-.492188.144531-.738282.03125-.164062.066407-.332031.097657-.5.046875-.234374.089843-.46875.132812-.707031.03125-.175781.066407-.355469.097657-.53125.039062-.222656.082031-.449219.121093-.675781.035157-.1875.066407-.378906.101563-.570312.039062-.21875.074218-.4375.113281-.65625.035156-.195313.066406-.394532.097656-.589844.035157-.210938.070313-.421875.105469-.632813.035156-.207031.066406-.414062.101562-.621093.03125-.203126.0625-.410157.09375-.613282.03125-.214844.0625-.425781.097657-.636718.027343-.199219.058593-.394532.085937-.59375.035156-.234376.070313-.46875.101563-.703126.023437-.152343.046875-.304687.066406-.453124.585937-4.03125 1-8.109376 1.257813-12.222657zm0 0"/><path d="m206.59375 60.644531 3.457031-9.382812c-3.195312-1.175781-6.441406-2.242188-9.742187-3.1875l-2.757813 9.613281c3.0625.878906 6.078125 1.863281 9.042969 2.957031zm0 0"/><path d="m251.488281 88.703125c2.292969 2.195313 4.503907 4.472656 6.632813 6.824219l7.417968-6.707032c-2.289062-2.53125-4.671874-4.980468-7.140624-7.34375zm0 0"/><path d="m217.121094 65.0625c2.878906 1.359375 5.695312 2.820312 8.453125 4.382812l4.925781-8.707031c-2.96875-1.679687-6.007812-3.253906-9.105469-4.71875zm0 0"/><path d="m265.402344 104.324219c1.914062 2.527343 3.734375 5.128906 5.460937 7.792969l8.394531-5.433594c-1.859374-2.871094-3.820312-5.667969-5.878906-8.386719zm0 0"/><path d="m235.257812 75.496094c2.617188 1.804687 5.167969 3.699218 7.640626 5.683594l6.253906-7.804688c-2.664063-2.136719-5.410156-4.175781-8.226563-6.113281zm0 0"/><path d="m70.761719 89.71875-6.992188-7.148438c-2.441406 2.386719-4.796875 4.867188-7.058593 7.425782l7.492187 6.621094c2.101563-2.378907 4.289063-4.675782 6.558594-6.898438zm0 0"/><path d="m48.980469 99.558594c-2.027344 2.746094-3.957031 5.566406-5.785157 8.460937l8.453126 5.339844c1.699218-2.6875 3.492187-5.308594 5.375-7.855469zm0 0"/><path d="m86.839844 76.339844-5.761719-8.175782c-2.792969 1.96875-5.515625 4.039063-8.152344 6.203126l6.34375 7.734374c2.449219-2.011718 4.972657-3.933593 7.570313-5.761718zm0 0"/><path d="m135.382812 55.320312c3.089844-.632812 6.21875-1.15625 9.382813-1.566406l-1.285156-9.914062c-3.410157.441406-6.777344 1.003906-10.105469 1.6875zm0 0"/><path d="m156.140625 52.785156c1.828125-.078125 3.664063-.113281 5.511719-.113281 1.339844 0 2.679687.019531 4.011718.058594l.304688-9.996094c-1.433594-.042969-2.871094-.066406-4.316406-.066406-1.980469 0-3.957032.042969-5.925782.125zm0 0"/><path d="m115.308594 61.171875c2.953125-1.128906 5.957031-2.148437 9.007812-3.0625l-2.867187-9.582031c-3.289063.984375-6.523438 2.085937-9.707031 3.296875zm0 0"/><path d="m96.449219 70.175781c2.738281-1.585937 5.535156-3.078125 8.390625-4.472656l-4.375-8.992187c-3.078125 1.5-6.09375 3.105468-9.039063 4.816406zm0 0"/><path d="m186.453125 55.03125 1.894531-9.820312c-3.332031-.644532-6.710937-1.167969-10.125-1.570313l-1.171875 9.929687c3.171875.375 6.304688.863282 9.402344 1.460938zm0 0"/></g><path d="m293.261719 212.785156c0-72.679687-58.921875-131.601562-131.605469-131.601562-72.679688 0-131.601562 58.921875-131.601562 131.601562 0 39.988282 17.835937 75.8125 45.988281 99.945313l-25.632813 90.757812h117.539063l17.285156-61.207031.019531-.003906h74.503906l16.957032-65.546875h33.746094zm0 0" fill="#ffcc34"/><path d="m293.246094 210.933594c-.988282-71.828125-59.523438-129.75-131.589844-129.75-72.679688 0-131.601562 58.917968-131.601562 131.601562 0 3.878906.167968 7.722656.5 11.519532 5.835937-67.28125 62.304687-120.074219 131.101562-120.074219 64.171875 0 117.613281 45.925781 129.25 106.703125zm0 0" fill="#fff"/><path d="m298.257812 212.117188c-.363281-75.140626-61.378906-135.929688-136.601562-135.933594-75.445312.003906-136.597656 61.15625-136.601562 136.601562 0 40.339844 17.507812 76.628906 45.316406 101.621094l-26.570313 94.082031h127.925781l17.292969-61.210937h74.605469l16.960938-65.546875h36.394531zm-25.414062 59.613281-16.960938 65.546875h-71.097656l-.472656.085937-3.046875.574219-17.101563 60.546875h-107.148437l24.707031-87.46875-2.425781-2.082031c-27.089844-23.234375-44.238281-57.667969-44.242187-96.148438.003906-34.976562 14.164062-66.59375 37.082031-89.523437 22.925781-22.917969 54.542969-37.078125 89.519531-37.078125s66.59375 14.160156 89.519531 37.078125c22.917969 22.925781 37.078125 54.542969 37.082031 89.523437v.660156l.171876.636719 15.503906 57.648438zm0 0" fill="#122436"/><path d="m21.613281 383.714844 3.082031-9.515625 9.515626 3.085937-3.085938 9.511719zm0 0" fill="#122436"/><path d="m28.394531 362.785156 3.082031-9.511718 9.515626 3.082031-3.085938 9.515625zm0 0" fill="#122436"/><path d="m15.699219 401.964844 2.214843-6.828125 9.511719 3.082031-2.210937 6.828125zm0 0" fill="#122436"/><path d="m48.738281 299.996094 3.085938-9.511719 9.511719 3.082031-3.082032 9.511719zm0 0" fill="#122436"/><path d="m35.175781 341.859375 3.085938-9.515625 9.511719 3.085938-3.082032 9.511718zm0 0" fill="#122436"/><path d="m41.960938 320.9375 3.082031-9.515625 9.511719 3.085937-3.082032 9.511719zm0 0" fill="#122436"/><path d="m192.453125 394.746094 3.085937-9.511719 9.511719 3.082031-3.082031 9.515625zm0 0" fill="#122436"/><path d="m206.019531 352.890625 3.082031-9.515625 9.511719 3.085938-3.082031 9.511718zm0 0" fill="#122436"/><path d="m199.238281 373.828125 3.082031-9.511719 9.515626 3.082032-3.085938 9.511718zm0 0" fill="#122436"/><path d="m176.613281 164.980469h59.957031v21.445312h-59.957031zm0 0" fill="#fff"/><path d="m171.613281 159.980469v31.445312h69.957031v-31.445312zm59.957031 21.445312h-49.960937v-11.445312h49.960937zm0 0" fill="#122436"/><path d="m176.613281 245.53125h59.957031v21.445312h-59.957031zm0 0" fill="#fff"/><path d="m218.117188 221.140625c0 6.367187-5.160157 11.523437-11.523438 11.523437-6.367188 0-11.527344-5.15625-11.527344-11.523437 0-6.363281 5.160156-11.523437 11.527344-11.523437 6.363281 0 11.523438 5.160156 11.523438 11.523437zm0 0" fill="#fff"/><path d="m218.117188 291.367188c0 6.363281-5.160157 11.523437-11.523438 11.523437-6.367188 0-11.527344-5.160156-11.527344-11.523437 0-6.367188 5.160156-11.527344 11.527344-11.527344 6.363281 0 11.523438 5.160156 11.523438 11.527344zm0 0" fill="#fff"/><path d="m218.277344 209.457031c-2.976563-2.980469-7.140625-4.839843-11.683594-4.839843-4.550781 0-8.710938 1.859374-11.6875 4.839843-2.980469 2.976563-4.84375 7.140625-4.839844 11.6875-.003906 4.546875 1.859375 8.710938 4.839844 11.683594 2.972656 2.980469 7.136719 4.84375 11.683594 4.839844 4.546875.003906 8.710937-1.855469 11.683594-4.839844 2.984374-2.972656 4.84375-7.136719 4.839843-11.683594.003907-4.550781-1.855469-8.710937-4.835937-11.6875zm-7.074219 16.300781c-1.195313 1.1875-2.796875 1.90625-4.613281 1.90625s-3.417969-.71875-4.613282-1.910156c-1.1875-1.195312-1.910156-2.796875-1.914062-4.613281.003906-1.820313.722656-3.417969 1.914062-4.613281 1.195313-1.1875 2.796876-1.910156 4.613282-1.914063 1.816406.003907 3.417968.722657 4.613281 1.914063 1.1875 1.195312 1.910156 2.792968 1.914063 4.613281-.003907 1.820313-.722657 3.417969-1.914063 4.617187zm0 0" fill="#122436"/><path d="m218.277344 279.679688c-2.976563-2.980469-7.140625-4.839844-11.683594-4.839844-4.550781 0-8.710938 1.859375-11.6875 4.839844-2.980469 2.972656-4.84375 7.136718-4.839844 11.6875-.003906 4.546874 1.859375 8.707031 4.839844 11.683593 2.972656 2.980469 7.136719 4.839844 11.6875 4.839844 4.546875 0 8.707031-1.859375 11.683594-4.839844 2.980468-2.976562 4.839844-7.140625 4.839844-11.683593 0-4.550782-1.859376-8.710938-4.839844-11.6875zm-7.074219 16.300781c-1.195313 1.1875-2.796875 1.90625-4.613281 1.910156-1.816406 0-3.417969-.71875-4.613282-1.910156-1.1875-1.195313-1.910156-2.796875-1.914062-4.613281.003906-1.820313.722656-3.417969 1.914062-4.613282 1.195313-1.191406 2.796876-1.910156 4.613282-1.914062 1.816406.003906 3.417968.722656 4.613281 1.914062 1.1875 1.195313 1.910156 2.792969 1.914063 4.613282-.003907 1.816406-.722657 3.414062-1.914063 4.613281zm0 0" fill="#122436"/><path d="m171.613281 240.53125v31.445312h69.957031v-31.445312zm59.957031 21.445312h-49.960937v-11.445312h49.960937zm0 0" fill="#122436"/><path d="m149.089844 164.980469h-19.257813v-19.257813h-21.445312v19.257813h-19.257813v21.445312h19.257813v19.257813h21.445312v-19.257813h19.257813zm0 0" fill="#fff"/><path d="m134.832031 159.980469v-19.257813h-31.445312v19.257813h-19.257813v31.445312h19.257813v19.257813h31.441406v-19.257813h19.261719v-31.445312zm-10 21.445312v19.257813h-11.445312v-19.257813h-19.257813v-11.445312h19.257813v-19.257813h11.445312v19.257813h19.257813v11.445312zm0 0" fill="#122436"/><path d="m147.890625 275.140625-13.617187-13.617187 13.617187-13.617188-15.164063-15.164062-13.617187 13.617187-13.617187-13.617187-15.164063 15.164062 13.617187 13.617188-13.617187 13.617187 15.164063 15.160156 13.617187-13.613281 13.617187 13.613281zm0 0" fill="#fff"/><path d="m141.34375 261.523438 13.617188-13.621094-22.234376-22.230469-13.617187 13.617187-13.617187-13.617187-22.234376 22.230469 13.617188 13.621094-13.613281 13.617187 22.230469 22.234375 13.621093-13.617188 13.617188 13.617188 22.234375-22.234375-3.535156-3.535156zm-22.234375 8.089843-13.617187 13.617188-8.09375-8.089844 13.621093-13.617187-13.621093-13.617188 8.09375-8.09375 13.617187 13.621094 13.617187-13.621094 8.09375 8.09375-13.617187 13.617188 13.617187 13.617187-8.09375 8.089844zm0 0" fill="#122436"/></svg>