<svg id="Icon_Set" enable-background="new 0 0 256 256" height="512" viewBox="0 0 256 256" width="512" xmlns="http://www.w3.org/2000/svg"><path d="m146.437 100.644-16.472-2.152 13.203-13.923c3.637-3.835 3.477-9.893-.359-13.53-3.835-3.637-9.894-3.476-13.53.359l-26.124 27.547c-1.342 1.416-2.293 3.301-2.563 5.361-.526 4.031 1.535 7.802 4.9 9.641 1.011.553 2.14.931 3.351 1.089l16.268 2.126-17.925 18.498c-3.678 3.796-3.583 9.855.213 13.534.635.615 1.333 1.125 2.073 1.529 3.683 2.014 8.398 1.419 11.461-1.742l31.146-32.143c5.442-5.615 2.143-15.176-5.642-16.194z" fill="#f9d335"/><path d="m127.001 6.612c-56.413.543-101.462 47.353-101.462 103.768v83.565c0 2.835 2.298 5.133 5.133 5.133h21.382c2.835 0 5.133-2.298 5.133-5.133v-83.819c0-39.2 31.401-71.753 70.601-71.871 19.641-.059 37.422 7.877 50.291 20.745 12.811 12.811 20.736 30.518 20.736 50.073v84.872c0 2.835 2.298 5.133 5.133 5.133h21.382c2.835 0 5.133-2.298 5.133-5.133v-84.872c-.002-56.834-46.505-103.01-103.462-102.461z" fill="#3193f3"/><path d="m123.84 115.037 16.27 2.13-17.92 18.49c-3.39 3.5-3.58 8.93-.6 12.64l-.66.68c-3.06 3.17-7.77 3.76-11.46 1.75-.74-.41-1.43-.92-2.07-1.53-3.8-3.68-3.89-9.74-.21-13.54l17.92-18.49-16.27-2.13c-1.21-.16-2.34-.54-3.35-1.09-3.36-1.84-5.42-5.61-4.9-9.64.14-1.07.46-2.07.92-2.99 0-.01.01-.03.02-.04.472-.944 1.093-1.793 1.63-2.33l26.12-27.55c3.64-3.83 9.7-4 13.53-.36.33.31.62.63.89.97-26.18 27.615-26.069 27.067-27.17 29.27-.01.01-.02.03-.02.04-2.326 4.652-.444 10.207 3.98 12.63 1.01.55 2.14.93 3.35 1.09z" fill="#f9e27d"/><path d="m230.46 109.077v84.87c0 2.83-2.3 5.13-5.13 5.13h-15c2.83 0 5.13-2.3 5.13-5.13v-84.87c0-53.97-41.92-98.32-94.92-102.19 2.14-.17 4.29-.26 6.46-.28 56.96-.54 103.46 45.63 103.46 102.47z" fill="#307fed"/><path d="m225.461 199.077h-21.647c-2.761 0-5-2.239-5-5v-22.459h31.647v22.459c0 2.762-2.239 5-5 5z" fill="#87828e"/><path d="m230.46 171.617v22.46c0 2.76-2.24 5-5 5h-15c2.76 0 5-2.24 5-5v-22.46z" fill="#796e84"/><path d="m128 6.607v31.65h-.21c-39.2.12-70.6 32.67-70.6 71.87v83.82c0 2.83-2.3 5.13-5.14 5.13h-21.38c-2.83 0-5.13-2.3-5.13-5.13v-83.57c0-56.41 45.05-103.22 101.46-103.77h1z" fill="#ff4a73"/><path d="m128 6.607v1.11c-49.68 7.4-87.46 51-87.46 102.66v83.57c0 2.83 2.3 5.13 5.13 5.13h-15c-2.83 0-5.13-2.3-5.13-5.13v-83.57c0-56.41 45.05-103.22 101.46-103.77h1z" fill="#f973a3"/><path d="m52.186 199.077h-21.647c-2.761 0-5-2.239-5-5v-22.459h31.647v22.459c0 2.762-2.238 5-5 5z" fill="#87828e"/><path d="m45.54 199.077h-15c-2.76 0-5-2.24-5-5v-22.46h15v22.46c0 2.76 2.24 5 5 5z" fill="#a4a4a5"/><g fill="#5f266d"><path d="m146.96 96.677-8.69-1.13 7.8-8.23c12.348-12.995-7.353-31.701-19.69-18.67-26.295 27.724-28.937 28.847-29.75 35.14-.991 7.599 4.377 14.261 11.7 15.22l8.37 1.09-12.39 12.78c-12.461 12.869 7.05 31.721 19.5 18.89l31.14-32.15c7.717-7.946 3.045-21.491-7.99-22.94zm2.25 17.38-31.15 32.14c-5.204 5.354-13.118-2.489-8-7.75l17.92-18.5c2.314-2.379.874-6.342-2.35-6.75l-16.27-2.13c-3.58-.467-5.992-4.23-4.28-7.96.01-.01.02-.03.02-.04.649-1.297-.402.071 27.08-28.92 5.074-5.321 13.144 2.329 8.09 7.67l-13.21 13.92c-2.253 2.385-.823 6.31 2.39 6.72l16.47 2.15c4.652.617 6.365 6.28 3.29 9.45z"/><path d="m234.45 194.417c.016-.18.01-85.159.01-85.34 0-58.7-47.76-106.46-106.46-106.47-58.651 0-106.46 48.597-106.46 107.77v83.7c0 4.43 3.3 8.632 8.66 8.99.121.011 22.097.02 22.32 0 5.391-.36 8.67-4.579 8.67-8.99 0-9.671 0-75.055 0-83.95 0-37.341 29.948-67.87 66.81-67.87 36.926 0 66.81 29.861 66.81 66.82 0 .181-.006 85.16.01 85.34.341 5.107 4.072 8.344 8.66 8.65.12.011 22.097.02 22.32 0 4.573-.305 8.309-3.535 8.65-8.65zm-204.91-.47v-18.33h23.65v18.33c0 .62-.51 1.13-1.14 1.13h-21.38c-.62 0-1.13-.51-1.13-1.13zm23.65-83.82v57.49h-23.65v-57.24c0-51.292 39.665-97.305 94.46-99.69v23.68c-38.729 2.204-70.81 34.318-70.81 75.76zm78.81-99.43c52.44 2.11 94.46 45.43 94.46 98.38v58.54h-23.65v-58.54c0-40.103-31.401-72.664-70.81-74.71zm70.81 183.25v-18.33h23.65v18.33c0 .62-.51 1.13-1.13 1.13h-21.38c-.63 0-1.14-.51-1.14-1.13z"/><path d="m21.539 216.443v19.846c0 5.285 8 5.292 8 0v-19.846c0-5.285-8-5.293-8 0z"/><path d="m37.363 229.581v19.846c0 5.285 8 5.292 8 0v-19.846c0-5.285-8-5.292-8 0z"/><path d="m53.186 216.443v19.846c0 5.285 8 5.292 8 0v-19.846c0-5.285-8-5.293-8 0z"/><path d="m194.813 216.443v19.846c0 5.285 8 5.292 8 0v-19.846c0-5.285-8-5.293-8 0z"/><path d="m210.638 229.581v19.846c0 5.285 8 5.292 8 0v-19.846c0-5.285-8-5.292-8 0z"/><path d="m226.461 216.443v19.846c0 5.285 8 5.292 8 0v-19.846c0-5.285-8-5.293-8 0z"/><path d="m37.36 113.837v24c0 5.285 8 5.293 8 0v-24c0-5.285-8-5.293-8 0z"/><path d="m37.36 152.837v1.68c0 5.285 8 5.293 8 0v-1.68c0-5.285-8-5.293-8 0z"/></g></svg>