<svg id="Layer_1" enable-background="new 0 0 256 256" height="512" viewBox="0 0 256 256" width="512" xmlns="http://www.w3.org/2000/svg"><g><g><g><g><g><g><path d="m104.035 165.825h28.267v6.179h-28.267z" fill="#a4c9ff"/></g></g></g></g><g><g><g><g><path d="m75.679 165.825h28.356v6.179h-28.356z" fill="#e0ebfc"/></g></g></g></g><g><g><g><g><path d="m138.315 18.244v-6.906h-6.013v6.301.605c0 11.924-9.819 23.141-25.015 28.575l-3.296 1.179-3.296-1.179c-15.196-5.434-25.015-16.65-25.015-28.575v-.605-6.301h-6.013v6.906c0 13.823 9.941 26.493 25.822 33.261-15.881 6.767-25.822 19.438-25.822 33.261v6.906 6.906c0 13.823 9.941 26.493 25.822 33.261-15.881 6.767-25.822 19.438-25.822 33.261v6.906h6.013v-6.301-.458-.147c0-11.924 9.819-23.141 25.015-28.575l3.296-1.179 3.297 1.179c15.195 5.434 25.014 16.65 25.014 28.575v.147.458 6.301h6.013v-6.906c0-13.823-9.941-26.493-25.822-33.261 15.881-6.767 25.822-19.438 25.822-33.261v-6.906-6.906c0-13.823-9.941-26.493-25.822-33.261 15.881-6.767 25.822-19.438 25.822-33.261zm-6.014 66.521v13.812c0 11.924-9.819 23.141-25.015 28.574l-3.296 1.179-3.296-1.179c-15.196-5.434-25.015-16.65-25.015-28.574v-13.812c0-11.924 9.819-23.141 25.015-28.574l3.296-1.179 3.296 1.179c15.197 5.434 25.015 16.65 25.015 28.574z" fill="#f9a7a7"/></g></g></g></g><g><g><g><g><path d="m75.679 11.338h28.311v6.179h-28.311z" fill="#a4c9ff"/></g></g></g></g><g><g><g><g><path d="m103.99 156.556h26.612c-.861-2.142-2.036-4.213-3.497-6.179h-23.115z" fill="#e0ebfc"/></g></g></g></g><g><g><g><g><path d="m103.99 110.21h25.124c1.12-1.989 1.964-4.059 2.5-6.179h-27.624z" fill="#e0ebfc"/></g></g></g></g><g><g><g><g><path d="m103.99 88.582h28.311v6.179h-28.311z" fill="#a4c9ff"/></g></g></g></g><g><g><g><g><path d="m103.99 79.313h27.624c-.536-2.12-1.379-4.19-2.5-6.179h-25.124z" fill="#e0ebfc"/></g></g></g></g><g><g><g><g><path d="m103.99 32.966h23.115c1.461-1.966 2.636-4.038 3.497-6.179h-26.612z" fill="#a4c9ff"/></g></g></g></g><g><g><g><g><path d="m103.99 11.338h28.311v6.179h-28.311z" fill="#e0ebfc"/></g></g></g></g><g><g><g><g><path d="m103.99 150.377h-23.114c-1.461 1.966-2.636 4.038-3.497 6.179h3.216 23.396v-6.179z" fill="#a4c9ff"/></g></g></g></g><g><g><g><g><path d="m103.99 73.133h-25.124c-1.12 1.989-1.964 4.059-2.5 6.179h27.624z" fill="#a4c9ff"/></g></g></g></g><g><g><g><g><path d="m75.679 88.582h28.311v6.18h-28.311z" fill="#e0ebfc"/></g></g></g></g><g><g><g><g><path d="m103.99 104.031h-27.624c.535 2.12 1.379 4.19 2.5 6.18h25.124z" fill="#a4c9ff"/></g></g></g></g><g><g><g><g><path d="m103.99 26.787h-26.612c.861 2.142 2.036 4.213 3.498 6.18h23.115v-6.18z" fill="#e0ebfc"/></g></g></g></g></g><g><g><g><g><g><path d="m196.337 38.402 6.181-6.181c.781-.781.781-2.047 0-2.828l-7.506-7.506c-.781-.781-2.047-.781-2.828 0l-6.181 6.181z" fill="#e0ebfc"/></g></g></g></g><g><g><g><g><path d="m196.337 40.402c-.512 0-1.023-.195-1.414-.586l-10.334-10.334c-.781-.781-.781-2.047 0-2.828l6.181-6.181c1.559-1.56 4.098-1.56 5.656 0l7.507 7.506c1.559 1.56 1.559 4.097.001 5.656l-6.183 6.182c-.391.39-.902.585-1.414.585zm-7.506-12.334 7.506 7.506 4.768-4.767-7.507-7.506z" fill="#3762cc"/></g></g></g></g><g><g><g><g><g><path d="m125.249 108.368 8.214-8.214-9.212-9.212-8.214 8.214c-1.172 1.172-1.172 3.071 0 4.243l4.969 4.969c1.172 1.172 3.071 1.172 4.243 0z" fill="#e0ebfc"/></g></g></g></g><g><g><g><g><path d="m123.128 111.244c-1.281 0-2.562-.487-3.536-1.461l-4.969-4.97c-.944-.944-1.465-2.2-1.465-3.535 0-1.336.521-2.592 1.465-3.536l8.214-8.214c.75-.75 2.078-.751 2.828 0l9.212 9.211c.781.781.781 2.047 0 2.828l-8.214 8.215c-.975.975-2.255 1.462-3.535 1.462zm2.121-2.876h.01zm-.998-14.597-6.8 6.8c-.255.255-.293.553-.293.708 0 .154.038.452.293.707l4.969 4.97c.392.391 1.025.389 1.415 0l6.8-6.8z" fill="#3762cc"/></g></g></g></g><g><g><g><g><path d="m200.837 42.085-64.915 64.915c-.822.822-2.156.822-2.979 0l-15.538-15.538c-.823-.823-.823-2.156 0-2.979l64.915-64.915c.822-.822 2.156-.822 2.979 0l15.538 15.538c.822.822.822 2.156 0 2.979z" fill="#4671c6"/></g></g></g></g><g><g><g><g><path d="m134.433 109.614c-1.052 0-2.103-.4-2.903-1.201l-15.538-15.538c-1.601-1.601-1.601-4.205-.001-5.806l64.916-64.916c1.602-1.602 4.205-1.602 5.807 0l15.538 15.538c1.601 1.602 1.601 4.206 0 5.807l-64.915 64.915c-.802.801-1.853 1.201-2.904 1.201zm49.377-84.663c-.027 0-.055.01-.075.031l-64.915 64.915c-.041.042-.041.109 0 .15l15.538 15.538c.041.041.109.041.15 0l64.915-64.915c.041-.042.041-.109-.001-.151l-15.537-15.538c-.021-.02-.048-.03-.075-.03z" fill="#3762cc"/></g></g></g></g><g><g><g><g><circle cx="169.115" cy="71.806" fill="#a4c9ff" r="14.973"/></g></g></g></g><g><g><g><g><circle cx="169.115" cy="71.806" fill="#e0ebfc" r="6.697"/></g></g></g></g><g><g><g><g><path d="m169.115 88.779c-9.359 0-16.974-7.614-16.974-16.973s7.614-16.973 16.974-16.973c9.358 0 16.973 7.614 16.973 16.973s-7.614 16.973-16.973 16.973zm0-29.946c-7.153 0-12.974 5.82-12.974 12.973s5.82 12.973 12.974 12.973 12.973-5.819 12.973-12.973-5.819-12.973-12.973-12.973z" fill="#3762cc"/></g></g></g></g><g><g><g><g><path d="m169.114 80.502c-4.795 0-8.696-3.901-8.696-8.696s3.901-8.697 8.696-8.697c4.796 0 8.697 3.901 8.697 8.697.001 4.795-3.901 8.696-8.697 8.696zm0-13.393c-2.59 0-4.696 2.107-4.696 4.697 0 2.589 2.106 4.696 4.696 4.696s4.697-2.107 4.697-4.696c.001-2.59-2.107-4.697-4.697-4.697z" fill="#3762cc"/></g></g></g></g><g><g><g><g><path d="m184.015 70.364c.045.475.073.955.073 1.442 0 5.407-2.876 10.13-7.172 12.762 9.043 6.235 14.984 16.661 14.984 28.453 0 19.053-15.5 34.554-34.553 34.554-8.021 0-15.406-2.755-21.276-7.357h-21.051c8.953 13.906 24.559 23.123 42.327 23.123 27.791 0 50.32-22.529 50.32-50.32-.001-17.992-9.451-33.764-23.652-42.657z" fill="#4671c6"/></g></g></g></g><g><g><g><g><path d="m157.347 165.341c-17.864 0-34.316-8.987-44.009-24.041-.396-.615-.425-1.398-.074-2.04.351-.643 1.024-1.042 1.756-1.042h21.051c.447 0 .882.15 1.234.426 5.783 4.534 12.714 6.931 20.042 6.931 17.95 0 32.554-14.604 32.554-32.554 0-10.689-5.278-20.71-14.119-26.806-.558-.384-.883-1.024-.864-1.7.018-.677.377-1.298.954-1.651 3.893-2.386 6.217-6.519 6.217-11.057 0-.395-.021-.804-.064-1.25-.073-.758.291-1.493.939-1.894.648-.4 1.469-.398 2.113.006 15.397 9.642 24.59 26.222 24.59 44.352-.001 28.849-23.472 52.32-52.32 52.32zm-38.491-23.124c9.123 12.04 23.251 19.124 38.49 19.124 26.644 0 48.319-21.676 48.319-48.32 0-15.536-7.312-29.842-19.729-38.938-.546 4.088-2.551 7.796-5.664 10.498 8.58 6.922 13.627 17.361 13.627 28.44 0 20.156-16.397 36.554-36.554 36.554-7.999 0-15.575-2.542-21.956-7.357h-16.533z" fill="#3762cc"/></g></g></g></g><g><g><g><g><path d="m146.142 141.781h-58.143c-1.105 0-2-.895-2-2v-4.396c0-1.105.895-2 2-2h58.143c1.105 0 2 .895 2 2v4.396c0 1.105-.895 2-2 2z" fill="#a4c9ff"/></g></g></g></g><g><g><g><g><path d="m146.142 143.781h-58.143c-2.206 0-4-1.794-4-4v-4.396c0-2.206 1.794-4 4-4h58.143c2.206 0 4 1.794 4 4v4.396c0 2.206-1.794 4-4 4zm-58.143-8.396v4.396h58.146l-.003-4.396z" fill="#3762cc"/></g></g></g></g><g><g><g><g><path d="m160.338 152.042c-5.072 0-9.483 3.477-10.668 8.408l-6.125 25.489h33.586l-6.125-25.489c-1.186-4.932-5.596-8.408-10.668-8.408z" fill="#a4c9ff"/></g></g></g></g><g><g><g><g><circle cx="160.338" cy="163.798" fill="#e0ebfc" r="5.408"/></g></g></g></g><g><g><g><g><path d="m177.131 187.938h-33.587c-.612 0-1.191-.281-1.57-.762-.38-.481-.518-1.109-.374-1.705l6.126-25.489c1.405-5.853 6.592-9.941 12.612-9.941s11.205 4.088 12.612 9.941l6.125 25.489c.144.596.006 1.224-.374 1.705-.379.482-.958.762-1.57.762zm-31.049-4h28.512l-5.532-23.021c-.974-4.048-4.561-6.875-8.724-6.875-4.164 0-7.751 2.827-8.724 6.875z" fill="#3762cc"/></g></g></g></g><g><g><g><g><path d="m160.338 171.206c-4.085 0-7.408-3.323-7.408-7.408s3.323-7.408 7.408-7.408c4.084 0 7.407 3.323 7.407 7.408s-3.323 7.408-7.407 7.408zm0-10.816c-1.879 0-3.408 1.529-3.408 3.408s1.529 3.408 3.408 3.408 3.407-1.529 3.407-3.408-1.528-3.408-3.407-3.408z" fill="#3762cc"/></g></g></g></g><g><g><g><g><path d="m185.838 191.722h-51c-1.105 0-2-.895-2-2v-4.833c0-1.105.895-2 2-2h51c1.105 0 2 .895 2 2v4.833c0 1.104-.896 2-2 2z" fill="#e0ebfc"/></g></g></g></g><g><g><g><g><path d="m185.838 193.722h-51c-2.206 0-4-1.794-4-4v-4.833c0-2.206 1.794-4 4-4h51c2.206 0 4 1.794 4 4v4.833c0 2.205-1.794 4-4 4zm-51-8.834v4.833h51.003l-.003-4.833z" fill="#3762cc"/></g></g></g></g></g></g><g><g><g><g><g><path d="m223.301 196.017c-.402.066-.805.144-1.206.235l-50.937 11.521c-.371-8.926-7.704-16.054-16.721-16.054h-20.2c-1.674 0-3.178-1.061-3.699-2.652-3.245-9.906-12.563-17.062-23.555-17.062h-13.519c-6.479 0-12.374 2.49-16.788 6.561-1.444 1.332-3.334 2.075-5.299 2.075h-36.21-13.568v55.574h13.568 33.514l76.138 8.287c4.374.476 8.798-.123 12.888-1.744l70.503-27.947c10.734-4.254 6.486-20.654-4.909-18.794z" fill="#f9cfcf"/></g></g></g></g><g><g><g><g><path d="m165.701 215.967h-43.229c-1.104 0-2-.896-2-2s.896-2 2-2h43.229c1.91 0 3.468-1.542 3.492-3.446l-.033-.646c-.057-1.103.791-2.043 1.895-2.1 1.111-.038 2.043.792 2.1 1.895l.036.703c.002.034.003.068.003.103-.001 4.13-3.362 7.491-7.493 7.491z" fill="#3762cc"/></g></g></g></g><g><g><g><g><path d="m147.724 246.66c-1.042 0-2.084-.056-3.121-.169l-76.03-8.275h-46.974c-1.104 0-2-.896-2-2v-55.574c0-1.104.896-2 2-2h49.778c1.462 0 2.862-.549 3.943-1.545 4.957-4.573 11.4-7.091 18.144-7.091h13.519c11.612 0 21.843 7.41 25.455 18.439.25.762.973 1.274 1.799 1.274h20.2c9.275 0 16.979 6.686 18.474 15.607l48.743-11.025c.44-.1.883-.186 1.324-.258h.001c6.993-1.138 11.624 3.548 12.961 8.39 1.376 4.978-.226 11.557-6.992 14.239l-70.503 27.947c-3.407 1.35-7.062 2.041-10.721 2.041zm-124.125-12.444h45.082c.072 0 .145.004.217.012l76.139 8.287c4.036.439 8.162-.12 11.934-1.615l70.503-27.947c4.498-1.783 5.557-6.033 4.611-9.455-.84-3.041-3.563-6.312-8.461-5.507-.362.059-.726.129-1.087.211l-50.938 11.521c-.581.13-1.186-.001-1.657-.363-.471-.36-.758-.912-.782-1.505-.33-7.927-6.797-14.137-14.723-14.137h-20.2c-2.56 0-4.81-1.619-5.6-4.029-3.073-9.382-11.775-15.685-21.654-15.685h-13.519c-5.735 0-11.216 2.142-15.432 6.032-1.822 1.68-4.186 2.605-6.655 2.605h-47.778z" fill="#3762cc"/></g></g></g></g></g></g></svg>